<mxfile host="Electron" agent="Mozilla/5.0 (Windows NT 10.0; Win64; x64) AppleWebKit/537.36 (KHTML, like Gecko) draw.io/28.2.8 Chrome/140.0.7339.240 Electron/38.4.0 Safari/537.36" version="28.2.8">
  <diagram id="RxYslJJMUYVZMFo-P6Pf" name="ページ1">
    <mxGraphModel dx="692" dy="595" grid="1" gridSize="10" guides="1" tooltips="1" connect="1" arrows="1" fold="1" page="1" pageScale="1" pageWidth="827" pageHeight="1169" math="0" shadow="0">
      <root>
        <mxCell id="0" />
        <mxCell id="1" parent="0" />
        <mxCell id="tuwM7d_56svocFPWUMzQ-1" value="" style="shape=image;imageAspect=0;aspect=fixed;verticalLabelPosition=bottom;verticalAlign=top;image=data:image/png,iVBORw0KGgoAAAANSUhEUgAAAqMAAAKxCAIAAADo4zKvAAAAAXNSR0IArs4c6QAAAARnQU1BAACxjwv8YQUAAAAJcEhZcwAADsMAAA7DAcdvqGQAAAAYdEVYdFNvZnR3YXJlAFBhaW50Lk5FVCA1LjEuOWxu2j4AAAC2ZVhJZklJKgAIAAAABQAaAQUAAQAAAEoAAAAbAQUAAQAAAFIAAAAoAQMAAQAAAAIAAAAxAQIAEAAAAFoAAABphwQAAQAAAGoAAAAAAAAAYAAAAAEAAABgAAAAAQAAAFBhaW50Lk5FVCA1LjEuOQADAACQBwAEAAAAMDIzMAGgAwABAAAAAQAAAAWgBAABAAAAlAAAAAAAAAACAAEAAgAEAAAAUjk4AAIABwAEAAAAMDEwMAAAAABMz8BIJY/XoAAA/r9JREFUeF5M/FmvtUl6nonFHO/8vmtea897f3POWZlVxaoiRYqUKKm7BTe6bTR84D6yAR+0/4p/gX1k+KABGZYbblGyJYrNmcWqyszK/PKbvz3vveb1zkOMPkhKMPAEEBE/IC7cd9zPAx//FyOkjNKCR5gG8Oj0WBV8dZsrYZ3QEUDLxozGE/cRevP2u3S92PsooTFyYjTPVphhhzHf83dFRyJFAuDwGEh8982uuW2/+Nnp9l3x5n9ZkgyGNAIU8TE4+ty1ZrcTQj+2x2ejxa/K+V9qnTKGEAYIa18yYCmC2lBMKWMEmknsfvG7rvSuJFQ/Od4fWkK1Wzvj7c3bvePB/+Uvf1lyMfRHTw9+55tv5m9eL9N1jkVqDeBez4uSUaDCQ7tYztvfItwn4z/sb/A9/KZ59ODQ3bNWNell73/3x//d87/818z7vGF7xqX/5v/5PxYNJOHkwdlHUe6OBuv4eJMbZfaCf/c3f3o2OCpetbYb3NwXejdHyjv79Cfuo/BP/82foEaePTqOhkazrRcL0eT0wegKzFss9i2d8WPHJvvT2auvr8/6D2WV38TnOSy2891gtHd2Nn3+5tu6wep1gBaxTwc7Ueka/g//x//9//V//D/fFa/YqQMGTiz7ou4ob+uiXOhub39srk10N1OV0UwjQIw0AFjf467HXJdwh2kNIMTBuBw8WsWT/jd/d93j0R/+/tG/+pO/s8F+2uzG48ow/uLdxlbg9INgNtATmPxPf7f0oSveGl2HvV5/kvQD6zHjGACoh15fv5MuNT1lxjfjh4MGyKzIrq+L8SSO+vGb68tpNOUalcXualkhBfecKNLCd1zmRW+v7wS2tLMk07Oz2VWZKgAPwpGuutXb+9j6s/jpw5988Ldv/xzTqrmD2VI++ejJBz+Z/O2v/7yWAjkUZ3x1nflJBGpRyS6YBUeP6cOHyeX8vpD8MKK3+bJjfncOxTZ7sN87GI4fPvnFX776bcU32sxrgXw3UOWCUjCYDo3VABjZ1Id7e6EXfP/yZdnA6WkiI6ms2M5rhlEcBApoQGEQhaKTF+9WsrO9MZ6OhsWyPhhyKFuOwdH+UZXXt69XMZ999sHDnVq83b0y3FQdqTt3l4leMlrcXXhEn0xZQJwk6gFHVUtDtatN7sUNZyqh3JMgJAQADEkoOsacgrEttpiYiIOjvv84a76jZNbuPt4f/JdSMIgtxgGEfYgcYIzSEjFqLAYQIYithRAiACAAAAD7wwYCDAAAwPzDNQDAWgiAtdYAoJSGGN3v7q4X74Ie83xGMLy5utqbjRTOl+VFw9MM7DJx36gcIkExoUYFDOyyBeR0XRmBnd5Ix9gvb/nh6PdrWbeNiMBBvqsn4eGToy//9Fd/96NHnzCJpsNxfpeFSXjevvtfNv/6Trw2TChJcCfbvEuSs9P9f3Kx+jct+HozFzCUDHau1HEvWBWrx8PBP4/3EJPfNtdvzKbOTL8btItg2wArh2LjZPe1dYX7AG3xVRKbWMknx4fzvFhc17rlrZCbOkWRDcbedH9y/ubikyeD26usqtGPPzre7fJV10XUpRptFiufGGnMs4c/mX+tXr3PqqpzkPGG3t4zJzlCL1+er8ui0Ba5/IsPHyeq/3j05YPDzzyTfPfV30SD7nj/g1/99rfv7q42G2k41Xj94afO33339Xmaf/q7p3WzgBAE3EHFbjKNt9sC0mjeNBpTINDA79Mufzb6/Nd/stjd5lWpkeNYV5083Lu/uLt4dZ38aFSbdeJh1erf++N//K/+zf97duCcPdsvG+uz0dvfvlxfpEiD3mgCIW2a0kIRjJm753APjWxEuv36hd58fat81fhEURTHYPDEw5p//+8uy9u1NRw5nnXT2UecHcE2IOEoQVqpvCSaeiT89bdv6B6V+9Eqr6jEtDWyFYNeyF1yVzXUCXlLPhn8yJl3AwnOn7+pW9BVAFuHBLjdz3bJZjEXztb+4dnvfPvvXxIy2m23TqxVP8MfesoxU9QP8lEC+5vb+Xy+Wqa7g7NjpMDy7c04CQEEgFPmOoYxMHQVrCivwgH59t05ACAkYbsrw7HfP5u9XczrqkwQHUXRfZ1WtfIlcRo0etjvjK1FWzU11zbwOPacbduaFtCGnMyeLL+6vXu5njw9dU7t40fHdy8XNUZ3l+8jiga93up24SbhYOaPQkSVCtzh+a367uoy2qeTA8cYGi3D7kK8WN+zMBJGDccxyBcdqisMXCdu8nJw1NuyHQxFb9L3UY9f+vl1LWolG01bYBm0sWMY+G8/+0fv/urrv/z+uwrYpmkxhpRx5BHUJ0cfz7yeyZerQ/84O6+W2zoVLSeUYuJghmefIqs7iDph29Fe3Bv3RGX3J4cYwbQsJDCUOf3BsAur95cXo34fx4ph5XBkXbCshDti2jPWxfHU29sbbq/S+nY9xbhP0TgJF1+vzFxbC6vOIBdE+3D2i0HyLDFuuTdwp1549/VK3VJZWUiQMQoCrKlFFBJjLDIEmZCR6QA/+1BTviAEzyaPMB5RZx/jQTJgo6kLOr0975jueX7v+5dXtxcLUAEuAyQabW3ZQds0mJkw8mjLIQncUWT8uh/JYNBNJs6eEzQgevH97U8efm4D59++/tW/f/GrNs1dBgeDkVL0wbMHX/6jR8EJ+J/e/cn3b65J40xHPZcdP3n2yXdf/Y0jOHT86Hj0/fl3armICDs8PtJOYfyMRW1bKjiENkKU0rI1EY77OhyDWb4gP/rZP12YYp1k71cXASH5ZRa40IlYrbRYIrflPsAES8ogisyb7bfOKAG+wGG5VXled/144HOyuCmdOuKrwBHMImOQtQZYYxECjFHP54QgAC2mzELkDXR81DT3G9qIR0dRlGwvLufFZr03cs/2w8APqsZqbfwBExR3wtkP477pLV4X4k4fxf2BwxxLIGdlJwCgeVl1qiubRSs2bVpuztPsojmNeTKI77JN1AtHcbi5m++Pj2/na0xYGHPMWIMhjMJl0UpCkTFDz8ny3ALICdOrMlB05g5IhXp05o6CV9vvwh6Sqe5S2x9MDk4GtSpLXZWgAQUQG9sWBhitrB4fTwTrGpUaJdd3eW8UMeIv32R6rYaDMaHRMDw4OXp8e383HPSYgMurdRR5UkuFgMIWeVQhrZFep7tWtK4bGK3SsoYcDP1Yp61Vtu26YRRGEIsiIxAMIh+VUmKEfd+DTlfWgAMQIcUgpXGTg9gbJf2xNY0oVg6WuzvhgtiUZi8JB4zjqnk8Yw8Gw6bWd9Zmjfv1t+ctkO6IKgySxAGigqC2WEqrfTektIEwBcAwGBEwNJLk4iUEQeR+Bm2POT4EEQRTCD0LlIUSUQasY7ULjAugscBAQCwwAFgILQAA/sD6fygAILDAAggA1AAYACwAQAiBCXVcd75aRUkfc6eoN0HYNu2b++1bEIqL8sV1lbZIS91QpI1hUjJsiAaoAXhn7W0mDRnudlSIMXQcR7F9us+9EaQuc/jt+fxxcNCHEeGOG+kcphf5ZaZXartlOzKmD3929rOyWmPHPhv8XBddur4KbO0JCBT0HfdHk31mRdOmlNiX99eZS26F7gDgLKLMbRExlnLrim2DAYG+kl7hh+pkMoIAnt/f+M4ACFZmLcIgGcaNEYCg9bYaTdxtWTfcKimVsDCCAErf9+LIJSI/Pphw6mMV3iyQlBwbiUg/PuAdXwSBc3fdAoWGccBVnOVtoeE2D3y8F2vv48Fxt3H0ahBuT4fiLEH737/+Rg220KLL+y3r9fod3M13Hz96+EHSr0CNPX+7KJ0o3GyaroEQ4q6pgQS6RuWuNYpASJDFuso8RqpWWers2uKDD8+66yygQX8c9A4969k3t/Or9W67zYwF0gAehZ1VHVDXq+KDnx7Z2FpmPejWDQps0C52HS4NZkZzl1AnsUCrdiGXWaosxcjtcNey1vrYEtYpiBBra7277wRFPCExh7bSKJVypd0wbly9d3awuynVUnBDx5Pp+fn6ZDxpl0sgQSuMVAhCbrkj3a5UKULcKsM0zW+y9TxvtdBEkEAPT3vDWa/nBOl1QxWmELdtV7WNMDr0/aPJBCNUd1WjBUBQA00YG04HV+uLVG4Kqfv9+O42J4QQBhCEaZoTC3tR2DS177mmE0oiHpEWmFKIOO6JrDGVrFYdBNZJQo85PnI2WXnaO9xcr9K2OTjtX5y/cZjjU+IMeEfldDyCmC7rtn984rnxd9fvTc/Nam6VoqBJi1VhxaP4sHw+D9x+qxRkJAgjH1nt6GWbQwQYQo5PBKiKdTsMnXJZ9d2pqnVXd9YCK7UlwFDADJz2hxSS6/OLDiBhNIbGAmAxtgxhD0Qxr4rUQw7pWFWJums5Jg6hiRvgD/+o5zgEWKGgRo7c5VvQuapW0+ks7MW7KgcWDYej0tnVVfXlJz+CPV2jtujkdtthTCcHvVLsQh/F2NKsGiDrIZEM6fSsN1+Vq29rs7ISR51yA4YGA5t56W22STMRRkkUDN5/vZD3DtCetRZCgyFRxFpqqTWcYKuQ5ybhgD/+SCbx/dmo1+de5IZ+ECFk0uxVv0c3C4PIZLlr+vHg/TevmOGUhZJj5EOPo9Aa0OjNbb2+qkxrZGYdGEjROcNGAzNwZwNvUCxtaKYfP/jdl8t3r+/eLe7XnnJdyI4Gx6e9x8LcvJv/LfBkXjYis+urVBQMaeoInV7eC2GJi6f7vfV6ITZVLw5H++7l+ffJFAezvmJ6BbNKNEwzrz/anN8/SAa1bk1C7tDdrXeOZ+J2tepaPexH2Tzf3tbFHajOsS8HPo61AYhCPlF35tXBYHbx4oZyGk/7edoACaPI9YUEO0VBIpRUVgOIfnilEYKcM8owoQhAADEGAIYT29vPHp2xLlvWol46cm3E3h58duiHw+mvfnsdcD1yTZS4b67T5drGrpsv6s1N55t4OImwIylEFktpVdcBi0Cl8rMPZ05PbnMpusBYfHA0uynTLsCtakWRM41Wt+VqKfYOB52sq667Tcu8a00LobSJ4yKjpYXVpu0D7AjcGaQUbDM5DabJ08EFem/dpryqeO0cHzw8+eDwr3/z19smRxTZzHQrxGwMgYqHIfbw5W7Zgjr0kA94apVLhovvNoeD3miv37QmIWOfiKa5jj3P7Wav393NThiCmHGe1zl1CUAaE9DWHbJwMpr5PLy8XNRYSAjDfrJalb3Y22WlH/E4CapsO47DMKBuQtM8dTnAhDRdxR3VyRYBv2utx2GXb5nHGqw1FhDTB2dPimIVhZ1uSwLg3pEDrCOUd/7uPSnQnjdygTg4CDxqmFQJpo7VGFFEXYKANQhaB0NEEAWqj+y0FvecTmPvC2j2ME6MdQBgEFEAIUQWIA0gAoADACEUEBkICIQAQgPhD7IeQQABwD9A/T/LeggsAAYAgCDqhGw70SlZ1R3j/L68dkNbZxkFsYH+TnULu96i1DIALPIoFZoMhg/Gztly1VUK7RrVtIFj+qyO98mHIzTbrMt51wkYc8Vt1vrO6NHhEx4Ec5Xl6npZ3azqbNMI5nbDHmlTeXT48eubt7lc7WSTNrdWZwhpBEBH0ev54unkaHR0vCjqYtPkm5rz5Pz9+jAcdFrddtl1lm535dAbwhJCwCpS+gfY6evpaLRYbyoMb24yI8nB7KRpauqRTgvuOIezQVemk3EYTVwuOGjAKt8ZBTTgQuiDkQcYuFxtlOG7rWgq1TZAUc+dgkX6bruUD85OB32/zctPD54+GnyG0skIHp+MjodB1PeSTaWSaPLw+MHoIFxu367b196R7HO3qFPAumezWcB8al2X+//Lxbsr3fmDfpJEi3kJADaKIes9/82bUTzIlp2R1ChIqXVdM5sNy6rTmfEiwENzNnj43Ys38fHwprqpmm26a6BmqlI9N+r7MRa63O5cChGUQWgoU+lu21aS4jhCYTXfNDK32NWaM4io24C2QSXdpSXsmGMdSC0JwXg21K0+f3c3Ho6uX63Si3bv6exOrFgPX+dlP4rdzq23HcTkYG8y//aCps6T40ev373Nm+qnH56R3Qo0Nss7JRQjViLrxKhot602Stvj0VF9V7U10BgCx2rSeRO6dzqWZePIiCiCLayappFdJ+XB/r7nOKJpOimc0JNG+J4vOyGp5VMnh8WuUsNBvNpUfuy5jOC248ISTrZYw3GkhA6IF/kUYKSkthCVRcs7HEHHhRhasJW16aQqa7c3CCQlLeow9ANn2Os9OTtT97u6aqusnbr9Lts2RKxwdXN1XpdFWRauM/rs0aN1vhA9FLosXWwOj5+uNwB0NZOSWwptK7moQW2NdEPOhxw7ENYNNHZ6cIK1hzvYZBUAEEijENAE+JAErru/t3/54k2udGskAQYiaAmBDkHcRjEp8k3Ewj4b7daZsjZ0PGKgiyn+7A8nURxrhsKRi4lWda0L2+Ttbpclo2Ey7mkrmE/eb95lm+rBo6PXd8+XTTo+mVmpAh/unfSHM9fUmd+Kj/anDNTWEyAwwIlu50X+RrKCS8D8MHSZ9QPjH7B4NGXuoCjK+4ts816SPKDYNVpjTDAihmpMIYIAKuXzMab9YAif/RhhetPHdOgO1qsVIDoeeEovjDH96EeLjf32u1fDpL94v6hT3SrY0bZBgmqlt2W2abrM6XLKXRw6LgPedpF7Q9oVbP5C/vTpP93rHf3Vv//7zz75mYzqbbHJbjNu/SQYDv0Dzyaff7n31ev/SDyQr7YPHzy6fL/M7oCpZH2/yy7XkNOo7/fHwft3b4HwHJ+zXrNNy49//HDbdoVsSti6Pret6YRu74t+QN7l9xuU3Ynr+/paVoUtQLsDupJN1SzORbuwaBHMogPu8rITNETDJzxzLz98+OH8/Uo12g99pICWYtcVv/j509locvsud2gINQQWIQAhBBRjx3GQtYxRgACyCCCZTE3DroZhebY/s8T9q/N5MDQfnvCDgN1s80UhHC5+/OHp1X355NkXz//y/eImS9cN6mjCB17iUB8SjaRqPN9frlODSAmKwakvUNOU6O6qGAyGJZS3+aYDRkthao1qdvum2jsYKqAAtp0RQeIbA6tFvTebQGy2u7w3irHu0rlwPKR9L22ELsHJ9EQN9fP0O4BNd2ED2WOcvtu+WRS3hw+GUeRx4ec3bUzH0AO9g/h6e1VjOTrylJS4w44X371dj3lv3HOiAV3fL097zw4PqKDb37x++ezp7/GeLNWyUxIjm6YdJgQiU+Z1FFHEmUIwCYbzy7vZ6bQ2tYCaUZiE8d0iV9QIBHzfGfWjqsh6YeggoKyJA+5TOAl7u0XdCrjO1lECrehI6F/Xu7Qth+PRdnPPqbKmVBokwz52zfU8awWbjYKRF394egJ1sTeN2t1WFXWMsEcZp1wKaUhtAaEwwtBaY4yKEvejqhaUThk6cvgpADFAHCIAMQEQAogsVAAQBClEECIFgQUAQ4ABhNZaC/Q/aHprAQQQGAvsP6h7aK0F1gIpVVY1eZMbpLgPBWzum3PoitvVfDx+iBz8fvO6Zm2DC6kkU8SxZL7cIuCXtziBey6MKImQiH0RPI4/+LD/0333wEL6frOpNuZnj34E0u7s8AOHest0e7G5vFx8XdtUYtNIhB0FWNO2dSWitMpquHq1Pu9QxhntBadad53STYGO+g9eXM2Xdfvs7LjvcI+wvhtOMUWcfHWzbjDcG/fkunFMv8y1gHLwICnpzip0fbstlSpz1Snp+qHDvZvbuTZiGI/2ZtPnzy8/+uhol2exM4AKy1aUjTCIF2UNdZNry4cD1wmuz5eqdSwIBbIsBsvdPRAUI6iwiAbByWj/bPAlr45/fPbRbnEzHQ270ry8uxzuDTRIbzbfbdcX1jSZ3s0XF9HUVaw7Oh4xP04rfZ8X79vtysi8qcVuJzpR1DLftVqRvCjPjk+21yXVHsYQwAa7MB72lNTdonR8oHm335+Web6sFyJqtNJYcaw51GbcG3zx0aemrLfzFXHMo48PapVO94ddXRnL2qKLoS83TVUWCLkYcIdzP7ZYKVOh9aoyHaAAA6IMbvv9WJQNJyz0w8fHJ8PAu0sXx58c1qY4fXKa3dewBLd3+cmDkUuwJ0jU9s9fn6+rhvn4o+nMyTso3d26gkZTrBWUYeyl5S6cxoYRDwZy0ZRZiQmRRnohic/C3n5AAfJMYjqCES3KqmpkVdXjUd93XK1FXZd11xHuiE67lEliRGQyXBAO/JCHvRgw0nRtV9VKqg4rOvRp5BvV6byEhVSF7Io2a7qs6UZ+MAuHuutGexPBAdBSNRIH3tHwsNm11/drDfTxg8Pj09k06m8WZVXCKAwxULt2e7sp44gyaDChaS32RuNVveo9HrqmsZD29x69/+aKa626FkJGXKxdkYqqLIHjE0s1cc0kRq++bdpCjXtjokiTS4gJtMZgAAD2AUOe+/jxs5vfvMzqujHKYgQgspQgRsIe/+jj0yjgxTb3bCQbgwBwmCM6oaTEwci+m28rDxsHYdUNELGNRYAD4CxWWw1b4kscmu12a611enS1u0Eewb6KJkCysgOl6lrU2f2+S3mnubaBaevg/n037E/vfpuaJWFEIFKCQJe0HYwIYODtdcmBKN5qfUewQJhqoRVEDCGEgEEIWIgsBtjGHvWHh6Udr1FoEmdqxKQ32G9VKSFaNvfLTbs3+INiBZZ385vb28Vcq86XncSwskpahaH1uNPzvCgZDAajZHQSb6ptVVncsg8Pf9rXD7/c++e31eaX3/5FzLC3R3/9/PlmKyxAoT8b9h74QW963Lvdvg9mcCFeLXerKDgo190XH/7sj//gn33/3XNkEXAwS9jd/FK1bm/UmxfvWq4K1Wx3KbBWqY4zTLnLauUgtMg649Naw91tbm6Ut2ab73OYgoP+aP8xePRZTIWz+LrEUrR212EY7ZHgyK7hct2W0lpicXafP9sfEVwVHJp9JTsoz2ms+kZAA4AVWnUVQcjlnudwAI3LfNlpRHajh/Qivzyb9BIeO743GdMJF4Hu+oELuSIBu9s0QpuWBelKx7fN0YgfHpxevNmMo2Ho+MBgB3oQUG2MAfrN+7k3c2GiVutdc7PxagOkaTwKGK9XJWopbtjysraCANP5kWcIAshq2TqQRH7UecYQrWWzLWq37/M+LKyCkVPtRHnXVHkL3KaUK906bHMgt+jZZ8dzdeMOlUWFgajLUHbTEEXHH+wtzZoO9HgPlrL78KPP0jsp56WqBPcJRlUvAaSDnxz+jqDLN+3tW9HgCFbdelMucIxDx/GJj1QQ+L4SlUam8XAO2zqvymtzfDijGCCoOEddo8MwWWxqiaDGyAAbkrC4KIZ8IGXVtflBMsNFYuqYunR2FnUwkwBnsmxh2eRiOoyorR0Csk2bREOArR+GSsO0KZSDrAdW1Z2hbZL4om57vkOwpRQq2WKilNNVXa6UpJhSQiiOCTrEeCo7n5GEoT6ErkUUQgT/QZpDABj4h294/QPAIQDAEmAJAAhiA6AGQBtgIYQWGmsFhBYYCAGyVmtgNSCQOFmz3bV38/zS67s7vblTN6mz2crrXfNdNCokLvNt6WrmGeRgHoU+Fvwh/2wfHp0NntiajsLhXrj/o9OfcRWv5vcucJ+NP3BaMPTi0AmHfp9pIooq9LDCoiH5PL/0CBv39hBmuyb15L5RikRdsa4IhYzFU+9LZvXI9Kbt2Wz8dJ4Wv/r6b45mhsLVpB/Y1ji04YRaCDdWTEMr142HT/K0s9pQD6fedrcsxM4aA4bTIJ76aVv0vEmepkYAmVvmOwLVyZCfX2xLI9MiPe3PylYqaAjFZdkpx3GSyEN4eSGLHVMKUSANAffbzUcf7J8dHr2/uSWTiHP01fPbx09/Z+SQttlMe+PteXo1vxntjTebBVPdlE1lRd/e379aXX74jx53TFds9+ruSnK2bgvuhELKttGnYS/P5aaQTSGE7XBARuMRK10qYdfkiIEOARL6iKBqvbIcfv6LL64vvp04zm67Hnw8Xm+FFkS1umx1HIXL29u2LCxWg0cR2nNLrrdVpSXwqOMBS1pDpFtsagYIBlAaTSkczUa1UFVqmqYzREjUYAKjICSUlXVZ1vWm2JGeOzseUCjazebm7xcn8d5gMhB9YaCgGlxfbJPWy9dVNIsOjk4eOEf3v75HLIbCQKkwhggZA0AqitatBSVDd4LXqipWyBikXcJDMelaPxt6PhXR4raI4lFRtUWuZCcP9ntFUbqBs8s2EDENOWEBg0AR5YxdGNOkxw2Q51crSTQkhCfchpo6KKE4vVoxBjlGjvCCjnTSssQBHrBQy6oZDKOGWeKTpqmqTqyzYjg5tNrZ3GxZ6NYgq0B6cT9vBTbQnXfF3unZdpG1685xMPC4ICAT3a4pBShFd69UraATOWM036Z5VVOCPKIwAL4tROF5OKaxFd3DZwmP6j7kN7/M9k8npqWmY1VVW6S0UtRyAt2SwqfPPmi+vdrsFi2FlcXWYkwJJJZQ6HAtZO54XmQHqhTI6FZJxDgOfZTtirqsy0qWNRDCkbVnTQRRYoxbV3azKbIsv19crpZzzE1vgPp95scM9HjdN/w0cIPw9rlQKa8JvzHtWnS88M2FcIr2OJp4moROhDS22kwfREefe0eH1U9/6p4+0ZSyfjwSjXIcZ7vbCC2kUdoYo7RVWgLTJSijG41vHz/AJGF/9X329YuMhE8d97Et99tinznDtb6do1s9EJ/87ONeFEGNLKaQeQgGXAZYewYgiBTF0sUw8gdhL8lVumvnF5d3N++vzx5+ACfD796e/1f/4r/z6AFrJo4+puaI6MmYPhqbmVd0s8FgejA5fXponXqdb99evJNE5vjyq7u/XdIm5zWOqQHaNO3pYcTQ7vPPHvCI4SD0+oHrgqMoBFv4/ruU9fbtNCmiZnJyClrDMti9qPBd9uOne9FUoScAjvxwPFQRpGMUJMHp6HR7t83TFACzSeu/e355vk01t23VredXoqqeHg9FU2W7zTB09qbJ/t448UKPOS7jXd1ggBAAyABojNWaEXN2Ogpj9ss392XAv3r1cnNzg5uG+WZBdjqmY2fwR2e/W+UKePF/+ItXpx/v94/H0TRxXWyVYYwDDa0FEDIImKpVlleD8fji5na1LNPcuINwVZW7vHCZTy1xW6I3InZZ2IeVkB6lbmvtpt0LB+MkEnpbyGUFUj6iw9O+CoH2wWDmFdnGtTZ2yPjUp7jrGTe7KZZXd18++WL3fnd7t/b3j+9rrQT86MmHSRyn5apQO6/PpocTTplq0cX7812aEYu9Pi39HT4EnSv7k/F4NPjRhx/MnGjCHGCW9/N3/ZFLIsMdgao8NjC9mUOh1vcmvxesBawFYgv6bNjtgi5rIMB5V7AYDwd8L3bz+2xzmzfKf3b8u5/s/05XQkX8VYtHe48ezg68tkblBmNBEiVozpn1fNw2hRdQQi1lmHLiuJhz2jY5UE2xWoliO0icJGJdmUJtGQWMkVZ0FgKMSdt4yPatdGXjGgON1XUjDCwICzh6ZPUMgPAfzPf/7MEDBAD6T7/wPxyBBQJCgZABmgDDICAYWQiU1QBYDwBsATDAIGQItAQiTvjJ9MEHR1882fuJXPei6qCblxKsy6A97xb32YoX2SFoDgPAHVOqLOofpDndO3p68PDnEj4g/KxTIIqnCPdaqwzHTSeOR4c//fjHB9N9acybN2+atouSyHW8vel+5PX29w5Ksbm4u7hfFdvUPpp9MUKnY318iA/6MFpc33quezb9Ulfjo+OPAfV85vzxjz9/4Hv7QO4RMQna0UmQdWvHRdyBhkF/6ghnxeMa4ypf3j3oh0ex+Oip749BSjLpCx7ATXpTrduxO0UwePHtTbsQq/dF3QHqOE8/+ahwEMHYKHOT7u6EKKXghLZA7cX9IaCugdwa3bSTYR8xsdlc7RY7XG2P+u5BLFfXf+/4oHcwNART7n385DMjqLGxmxyefvaJk3jXr67HflDcZwFhnPYurqtv37x+cX1zkc1B33HH/LA/TiwdO87UdWHTUQTW6WI46WOM2lYoCBFgu2UKWjsczCplSS8GAQgifxT1XR24mqlFmUgbdVKtd55FVEvfBRDiXm9kANtsatlCW0lZdwpDd9qzDoWQRIT5AKhKhslAuwhRAhHsVKeVARpphc8ePC6qShG+1ZXusTcieyOy2sef/M4z5zCqhig+nuwKIRoREJF4uM3rcr19/eLN/f1OW9p2xnMCAIi0wAKILPawm6XCWnlx8446FlkAlB3FE10rJIGLnTYXpu0oAKP+kGLiUKq6DlrTiQ5ghBmrmlrKllBby4ZBAnbWyVh6VV2e76oSxDFHohbragLjD2dHk0H0i3/8yagXhEHcIHlR5ncrUZew65xoPBk9O3H2RtGg31hzXzS9vaHn8Te3l4MHh73hMC3KtsN3b7L1m/VJb6a2W7DI/M755OQzW+tOm3ye1e9zd11vru/7/d5kMNzVai6qra6dwJUuVT4VpuuMdHlADarWWihDYr/iamubH/384adfxGW1ThIfQWCNskADI4HRxuisypbpKh6GwIGSAgMBAAAbizS0Eq7mW1GaTx98etY/cjQxxkAAOyF3WY7HJ7Q/65PE3ewyrBDqqFLEWEcbCjBC3AY97scOZpZy1akKYFUSQONQCBGzqFi2/Tjkgb8uctf3VaMivzeMvOlw8vz7zftf72jNEQiAE/T33X6//fLD0KdTo4at0Hdvdjq1pjWYQeq6AFNGKaUQUogoAwbG0BswORrdeP16GHvN2jS2hVxB2qx373N8UTv1vOiWeek4/vX7ZbZrFcAKWmMB7BAFzCBoibTUWI79QZKJTdZs/Zh/8fMzJ/KGZ8dztLpfvHt6/OjTj39miH7+2/MmNT0SHvUffvDkkT+VYAj/7Pn/99Xmm9NnB21FNtdCVNLS+7TaLe8rDOR4f3+3rZvtZjruzY6iDz85vXqef/Dg4Wq7BIGdL3PQ2qOkny2LYmd2K3D3/sZuHQesDw7pH/3Xv9h2m0xkqchsUToK77YK14PI6VPKBuO9erM4Ph10Xr24KJAAhJLDD8d+QvcOx7udEEsLb1D5VmzW6eXlZbpNCUKuQ12Heo5LsXUcBizEBDGvGOw1miynI/3+6t7vx7OZNxoyP3Ja6q9raSSf9I/Wjfnzb9588fOP72/u71V6P68XL9OH0wcOcyGyDkDCQoyd64sb6EbDR8PL1asq6wijJbCozxEjVioH0vy+JAoOhrFhNki8pigCRLgGTV5utzn3AOuTVikDIPH8oqhlK7pcbG/ss/4B2RohSoTI/Xzx2Y8/xI37wfEHD548sP3qqxff7iqDCN+e7978/fKTzx58/IeP363fQmRk3Y6H3qtvU0fb3/udn5/f31bY4h4olUGkP5ocvr/7Vd6Uo+So6jaUAo2tdKWpW48Ej559WNkmjJ3Z0AkwdqAmBhpg79LLppHTmIfcVdY0onYC1Atxz2MuCu4ui+Pg4djtLW7fBE5gOydfVhxJ5nXAEV1TjDByMKhEM+wNGDFKlkoDYyBzOOewqbLJcKCq5ngy2c1LF9YuNsQqWZWzUQCMxAhRRjuplUKYQIaQS3oME9UNqP0SEGjFqBf+GAIHQAARBABBiP9Txh79J+T/EKhHCCIApQUCQAgth5AYbQDQCCAAKAJEGgwQAdZCKAHAwGKrbJbNi2I9SEYeGjUbMJ32FpvzVSrDBDC4GPKGkDWgUmPSNps0zWfTs/ndLurt/f3rvx3t4RpfXrw71xWxCiW90SiZirzxXRchWDc15y6ASACtsVlmy7RKN/n2ZjMHjE0mh0P34PeO/oXNDFGq3ZUWS+66iTNUomoqWW9tzGjM8rZ6wXFBiRKqZi65uy+z2pZK7VoCESq2ReL2082aMV9a0+vr4wFqxU4mQesaSh1cwwDg9J00AtZIUUQvvyvGIaMx66zwmXP5/EZBKYwGyjAELIBSN8u3y8fBk81lJTUApsOudvsm72457VxGkCpnASMAJd7gcf8zDkPRamuMfxTagGWiEaCo4bvL1TeN1NPjIR+w1BS5zjdF2x/E/cHUD5iSJddW3hWbVhx/+cFgFL15lYYOVo3cH5wu7ivGfFsLJIDH/TwvkcDv1/d2zNyxbbZNOq+2WQkBxAgYaIhDGyGEEEHoC6B3Qr2/XxZFq1v4+OAs5v7j0w/mN5tiU5kGiloCA6URta6TSb+TanWRikoZbQmhBgKDrWLg+5sNH8P7os5Rx6bBVpdOhJp1BqHdbFfV1WYQjmjg79KiuF51FVhldno2jWn40cmz7WprhS6qSlirAQAAQmoHp068H098P27Q4v3WIUlbaOYB02sOH8zczjUpggJDhVTTqlYba8KYd630fM8CbQ3G1kJoFYGQE2Ds9ma5uslm4wAgPRkEj48Oi01VlBL5IAWikYDteHfTaQlhRHmEqONaACUQjWqLol6uVsAlErSPHjxyibfL2v3xyf2r62226QdJj8Snw1ltSiehsFVdp09Pj5t6mxXZNHTDzvZQqKBGLixloQNStmbkjnzpz7d53dYcKSf0IIbEAKRkJgWY4ORJb3KctNnmF7/zk9v7Ne4csZMIIyVLa4zDPEigZGY8TMbIeX7xttLKKuwqyywGGCuO3NhhLv3g4cd2CW+v71uohDatUBYhPDlhiinDtQEWa+xjH0BkATIWYIYRNfEgMFBnVbZJm7v3daUEDqBqOryVu3e1BeDFeTbeHyBpd9fNwf5MuejV+6Vu0Te/XjRzQ1oCLMOuwzz1j//RKTdi6D2JvYfPL97evlm7OjRCIwobIQDACAALpDIaAhJqf6Cjw8T7/KdkOjY+U4yrCpUFXAu24c4qBdt5W8+3eZqp9y8XV+cbYKm2GgKFAMAGEsKENQZJywHgKBwEAhRpmflJ4ibo5cW7nd6suuv8fMGlP3v8cFcuvvrV17rUIzceJuMnXz7809f/5t/9+i8Klr7dnAfR4O5VVt22MacWZMTg7FbGgB0cPrq6WaqydQMXMi3r9H/43/4fmqz7yR/8/L7dLnepqkS7aHqcPDj69O5yU67qLz8OWlF98HO34VVatemm6XGwHzuz/ky1XnoOKXYaUANLPt4/OZyFdtJ0m0Y3fFnkqE8b1VhpN/fm497D8z+76eOpmwyYy11Gbi9vlWz3Z1MMAcbWQsAdVxnphsWDJ3hvVCLZrlewkqZSNSOwa1nW8FSr3HTny/uvv7lblTKX5XAW58zeX6V+4e6HB4RQYxUHVmEmNby9vp8cn4Gg29Q3DuNBv6d8SmJm6tZWUmxrosHJ0XSdronDgtBnGK/n+eJaEgkoBCQElbUKAKUgIZFsAVTIg9ztANvCWASJ1xtNzm53+fAg2h+PXr5+ffrRw4v0qyzdAQVGe3FzpRyBPvrxQzOq3y/OGWW6UozgatN6AB4fn7x5dxUPR3zMs7atLWbT6MXil9ClzBts2t3jZ5/91S+/V06HgE2SyfUq84Y+pQZ1Fe262TTmCWNDp9T16cHQpFmP93772zV0FGRayYYDrEqzW+jPP/qi5zquKn7+7MdtoQIWrufnhrUoom3XBdJSSKHvIAsREGHAANRl3VFOjenqYudA+GDv0NTVOGKyrnsBjXzKiXUYQgByxpHFhHLKKAAFBIUDQwy5bMeJ+3s9/yGwY04nAFcAAAQ5hBgACAGEEEOAf0jSW/sPMh9BCICx1kCAzA+xPAistdYCCKE2EGBkAITIAKuthsgSigF32zS/2qxuPR5F0YHvsjpdt5WlZBW495zk0GsLLQh1RwQkIX355sXDsw9ut7cb8bzzv3coNKmdeHuRM4y8ccAiqqHjckqIhRBTMl+vq67xkvDm/kYD20q1Vm1TK9cEQzh5GjylAiEMyiojnEwGe6hE8/t3X376xUF8MiZOvv6e8JW/F2WmQRQ4lNS5U9eCcjevSCelS10mSOL005TUnQdN8cnT6avr+cKItVAe8mPl4K7DBQi8gY6AaIqPz6aga95dF7PDyDTtlDABddJPTgdTT8HbedGJ7g8++uQoPP3qNxcSM6AFZWp84I1PqTHlZx+fxj58dPzwcn7+yQefzuynWPmUEOrra/j++erb2+yCBs3V7j8ocpOu9fvr2w9+8dHL9Wvh4lZ1bSUSNgB16UkRS1ysmraHqgQtFsvj0bBc5VEI6xK7zlDkxmvt/eVtXlZeHFFFSise/uJZge/bdTVEYwZ41E9yU6+aBnCEHLdoGmHtqmxzKetOi1Z3mXIxzdIUKb66XOBOu8gvSmkINUxbQjingzhcXud12WmhIcIQQ+Iyrxc9+ORwK3fu1O0deavdznW5S+1x0CeddTUyl8XtIhs8PTZM6U098f2yU7PHB4v75T/+6e9dvzkH0jZdKxHACCMAuEeWKoumXsSYui+rZWcaTpBLHQ0TSTj46Sc/LbeV7sDyfvXw7PTm6l4bQ7kV2gAErDGyNVRCI5RyaAeMR4ltK4vE/sFot0k/eXi2uVuVVU4StDZ1Z8H8Yn3mHqhVVxYN8CkNeSNbAxrHpR53F3cLxjh1qdHCpfzV8xuoAFGkR/zNet7ltUv9LF/em9vpB9P0bllo4UT0cD+muIJNa0r58bPPWUD8gZeauuLQVqLXcdg5aVogLTHQ2OEIYlW2jALQw85p2HDxm1/dPX0YdG2erpsIjWQBurY1RhprgcXaGugjl9NHo4PvX74oGwUU9AyCAFpKoM9xgAmHl+8ud28yxrnhUGvbKY0Zw3sP3A6WtAej2LcdAB1kgBBAhVIQAgtNf5iUXXkzv64lQKFJBtDmElcq4CiM8XLRxA5PL5rqNmdaX57nz9/kFDqH0f76t5VdSAqh4xNPrf74vz3pZucnM3a9eXXfzYuGlAurdxZrCBlChAKIGCaMQAAspQ7F0KGB68Cjx10TtzvThd7oz7/KNiXopFMBUBK2q5QL/euXm7evdlJHrRRA1wxIDIyEAlJsNaIKRIhFCPUS5+3lq0YBA7hSux9/+uDx3vj2q4uHuyfH3qfOyej//v/4V7tMtBUee/uggxfXbwub/tG//BfOGF7dPb98UcENOwz7Hz3Y39zvPDvAhTckvcDx77brTLRWyv3E2RtFC1Ue//jj//kv/sPd5f16nmuD9570ylnwtr3qH9KjMf3yy1Nolh72H+9HQ1/++MfH4Z43byrgDMqtqW4IJy72tOn0kwcPfvpPP/773Z8VSgtgjJHlZeNZAtuc1soncbPWEZsUAHeiQ1KNJ5M829ZNMZyMILYAY8y40NXeCdo7Q3mzfnTyCBn14GS4PyKDMJpn7a8vd97+qDNmfV/evWs1xNjD22q3FA2q8BmeDUiPccdCTaDFXrhOc6E19jzgFtvsKoz7qzyDLmybPECkuRcBINRFQS/yY0/Jrqnr9a6OB8GHz46Y0kArw3ApdD8Z7pYdVi43DuxgsS6GTt9sdKCjxJvsOrVRRaHv2uLqZrGbfX5cTyqDrV63A+OX59Kn/v7jZA6uc1Ek/oBqtppvTWtjFhRlneU77hvat9y3y3w5V/d0XwgulnU51+nz9y/3jyaQQgqYg0PVAi2qg3FcpguCLfY75IrW1LIw49i1usnqcjCN15u25/p9zgLKgLXKim22PT2eMV/sYPP8zbuffPT5p+NpSPF1vr530A0ADbawa62ETV0yB2VF7Xr+o/FjA9rQgdRYIPQwjqPAc10MgLRWMGLbtlVCAY2sRlCRtkWc6SgAUFGlaoIZZVMHn1qQQIwwQhASBBgEPzTN/1AQ/v9hHgBjgdUKQUARxm2bVXXGGAWQSC0AURZXUtdNuyVEEQysQUqBuiup21iS7qrFYDSkXsdYNhmSfoDa/LXRq20uC81rBV1g9xj2EHZ91wIz8U7e3H5vZD7BHz/q/fTh4FnEfWJ9KEgv8BEEFlqA4fnV1Xg2RZzkZbnarI72j3dZVVjnycEzvyFHbDwDoesQb5YMDwbbrBBb8IA/fETPJm6cywXxyXy3MARaYtLF+njcz/Pt+abyewGyeLsqKPOIhU4HQrT/6k3e2QBYQ325krvUUKh4e9eqdXE8mfbDyXy75n2w3m3/+R9//urN3fHj/vsXS2rbYBw/Ge/LvL1PU4LJ1OcPh0kwDK+usm2Nss6ItnWIHQz58Yd95tO6rvf29r968wYbmyBsxeTt7mZR3xAsLFu92/1KeelXr/481y98X3db+u71fNPMBydOmjUu4qgBEYl0IwZeSJtOp0ZpBUTuV8DmjZD+Fz86efU3b5/ufby+3X7zzXOLsVTd0XQPKXiZb3Kn8nrFPh8U910tIHJsXuQc2C6TbWoCh81m+2mR1xI6Aa0rFUcBwbSXDJY3ayztKI5Uh5vaagg1lBCRsir7cVDsZJ41QigMEACIMOYEXGKRtunB46EEUjdCb3NeCZCBDqAOw9loDFx2vVkpbdCiPemNLLXX5bpT3cnsIL28Z5DUQtRaUoqJ1dSByaP43fL68m3xIBlkN2W16zwvFrZGgelPotGod3e3UNq+f395cnRSlR0AgPnIQIQJcR3WFYLUiChiCSbEGtSNH41u6Y6MvTji4qpu33bTHo1nDobG0Wp/EN6U14PHA0XKMOQt7qRbsxiqWkeI7Y9HZVtRYNJlcXedHp8Mnp08+fWff3X64GQ5v3P8oDfpN2bOD9HRk9ndd5eVo7w97vjq/v6yE5r74dMPPp5n19tmVxlZWhkJEGRd39uXRSeKAmOkCSGY7NZzhVowRDqChOD7l/lgaB48PUYNi+AoXzR12VJKRSeMgZ3VyMFNXT89e/L23WXaiEYbYK1BEDiUeoxQCW372dMPfv7kJ9ssUxykRQURFkLh4UOOAoFcyLhrBQYNBTWnwKPQ0co6rtvrx9eLc02byYnrDcDwYMCYH0785OnIjgMSeG1piMU8gE4f7TrVG/LZeFxn3cVfrEAGCXAhoD4D/+v//p/8yd9/v2yzeBZsdvfv31TphSQtowZTipS1EBACIILWGgswgh4QEBw8mYyfthfysjGiR8GPf/HRn/3Zy2ePTl++f3GzzJNoMnL7q6t2cQO1jIBV2LYUGGNBB4RFEGiECEfUwb7f3x8iR9zNN67r+6FtbW2JjtzgSDz7+Rf/5J7d/9s/+7el7BTHg/3JT/7R2dOf9kTY/Mm/+3/dXL8KHDe70s28/vTxkee3X321uL2umwL2or4/c16vX0sKjwa9w8Avlpef/aOzP/nl/3yxvsnLLtn3xo+inS13pnL7w7v1GgA9Gvh+hEAgdk3btUDlIpsvyi3czrVYiXKuQj+RUhqC+AN/N9qk7s3ifkmV2ovCkyH/o9//NK1XeMBti7qtBgpDQ6HVAOpOWO7xIPaYwx3fAYQARDRs984giNcF2XneBJgg3xYulaKspMaL3GQmLzPdLPn1d20YMoMkD7ibjMSdPNC9sT8EAGGKjZYsiN5dXweDRGih7ELYTBNmKI586iMNWsk6dDgcamSv5+uk71dlZaHBPu4MkEJBBZS0gHOAoEMD01CTCVuKdLkdxP6PP/x0/v4eKTw9nN2vL2kgggccDdXh46kfDt68eX71/WroDHfzrlnZXtI//WRvrs4d36l30kFBW9c9z+3x/mT/MFXL4RlFniWqmw2irKtv1+Vw4m6LbKur3ixgjuWGRoB9uv/kg/5hHxisK00E7RPIJdEihoxqPl/WyDWjvUHgh4nn7Y8mvsObrlK6Oz7cQ1aoYh0B8Or1y7ptIAZImheXb9+Xi9JFjCWokzGl22Xb7/tFWbou0gqnZcoIJFpwQJABWpuqqRtRSdMxTgmjjuOJWiV+EjgRMtxqF0PCEOOIQ9QBVBuku2bC0IhSBrQDAftB0P+nQj8w/odO+R9SelIqaxDGROmu7nZltQMYEEYNEhJs0/K+qGqjAWMugqxphYGAumBZvG7APJeroikO4n7d3V7u/jaT32KydBzgeJ7WPHb5wBO6KXcr1Zbu7WK7aucU05PhZwfOTyZ8v0lr3bGuU9BoTgjnxFi93q3DKKLceXf+XhtNCccQH8xOoQl948BM/u6nPyvm83jYu6k2727fLxfZs4NPPjv8WNAm43WG7NuL9PD00fh0/+X2EiZuDaVhBPmj+1VaN41SwokSB+In48nLX95D0itF6zKuWNXxBhEPp7xnOe7acleWSipqKJNh0rKYvF9UJITcRZBAFvDSypvFuhcm62wHiSNt20rz3fO3+4eP88LA1lBgO5X7M0J9R7Ym31Z3q/rpswPVLfphfL799X355vLm9qK8fP721zdXbzCgWV07vWED8ctX6wdP9yBb+jaCKzFUDq617bCHuQvV3mToOJADcxYl/WQ0PowYgXiH1Vr9+q9+dXJ6cnJ6GA+jwXQIheqUvM9vHn8+skW3udggwzNU0pBZBTmijBDRyarrtnVzeDrquk522uWcIepoRJA33Z/5see4/dVdSg1yMaLYgRQBahD0l/drJRSGCANECILEnj08vF9fuT5++XLetN0gDtp1p3Fsw2gtq7QsOyWlcQ+PR+CmaVaNdYwMcdgPZ8Oe2RQe4ess7ZTmFFnZAaKFr+6K3TiJhjhevF1gwASwiCBN1OHDSVrf57oTBsvODvuDu9v1Yr1yQtIIYZSJ/KArO9NaC7Bg1lJrqXYHTrKXWNGqdXnUH548OdlURSc6Q10lrUMdadRuV5eNpH58Lxu/FxCjjyYjZuzN9R0LmMdJ6GPiqLxt7y/vCEDj2T4tdJ2VLW78KRKJ7oCJgfc2WwVT1u2WeCtLBeLj6eJ+3pDy3f3Gagms/uzs6GF/Iiuar/OmbjF3MHcBtINxsJM7HRjmAlfxvZitsnJdF88OHizfZjIn1tBWCmCx1dASAjBUUj48erh9fddtmqLpCEbCKutiiy3zDA3sm9sLL4q9JMqaqirrumqNtjh+AD/68mnYT9bLYnVdXDzflstqdbdDFiS9JIpjQMzt8rZUFfIFDixkaL4r7vP8It3e7nYWGKDsepMfnk1ggIfTyEUcEnZzvs6+6RxLpKaMOftD8vFPn7ycv/3tZT4c8+NZv1hF9y/KyMRAGGU7ADFChFkMrcGQEMYh1uE0cScWTe6A13hIDjBcrq6H497V1btPPjqq8nZ+m330+Gmd0otXGewCK4WWlTZGWqwhRBYRiBj1LfGj/lQak4zczfY2iv2HH+z5SfLm6now8//x4/869Pv/+q/+b+vbBcGMuJj4Jte//v7+//Nq+3ZxdwGE8FHkglhWzWjKnn2+/92LeVWFYTioVQmjjvdxWTa7xfy/+KPfn0142b4ZnUVb1TYYlqpIuxSFhDCerlpiPEpMGLrjgxHw2fy+PYyeDlTydDwSbfD3f3OFKuHgoZbYamuoUfv6ZfutAZv9xH757MHJYIwqMeiHDS5fLnakAe1aU+RqhQGyBhoAKKbQDzzqIAMMJBxA0ppi/6GRwXJnagRDI9zFzfLixXYv8rj1LEPRJMyKZuDvfbh3+ujxUdHtqlpcvd+pe/2IjyMSaG2kURZCwvjri4vR4V5ebCBZY7+xXgQgcJHRRWG0TpIAA7TNdtyDnWiRQ9w4UgAAgKFBWgNMmTbGc1yCcLlJ89sqYvz4IOI+NE3VZFXTdoPjURjbDq4yWreoaSrzwdGn529el5sSSlCVwAHeweF+/zjYyDvusN0qk8LWbR3yiCrn8MGDm/wVShotTEJIwl03iLZpPh6GyMCybF1mkSixREOHP+7PPhkeLV99N97vL3QuA2pBl0BESoToqMMtYG0Qkth1Is6zLI2n/XiUFGkaE/5kf3r7/PvH4b5P6WK16Q1ja0xha5DgWtVHvdk0jIt0wynGyAyHATAGQ+5Qx8GIAk0N8LivoC2airg4GfTyIs+L2uMugdRnnhWAIgYRwQAhQ7CFxlbSVtDyYfQTCAfIugjECDIIzT80w/9QP9jzEP7AeWMhRIRQ0HSZga22XV6mlhpL2lzcLcvzvFkBDaKoH/BYGL3aroSSnu/ebN+l3a4Dxvf6M3dciqs31W8KezMd7nkkMqqN+EjmGTSbqqtV61uZzLf5R18eain2w49dGQXcY5gwJ6pF5fuMImytIhi1TRslfURIVdcQIKs1UtDU6mx41mfB3nCKCev34lKL+yJf3N0Pe5MPTj+KGH/RfPPL22/Hex/txx8sru6/+vavrna3aYtcfzZKDpd3m9t1Gk1mAGhhsUc4TOsPj7+sO9N2bVuUwZjiwBqp48ZJMCXUKA0yW9OAeRD5MWiYsR5ernON7Onjk7TcvbhdDEf9YTDQFvYnycvLW8a6LhMHw6PFVX40OQndUIKuJlvE6epuawuQbxQirGrTmPu5vTlfvFwty6t0tSl2v/jpz7bzQmvw4t1L6KJm4wBV7M/MNJj1ZBQq1wu8d7e71sj7RQpwm9ZNnNBssbubb64XK6nsjI6+/7sXP/nRF6KzyqrWtNSlPcfXxi4398ZNdVsz67x7O68d0RDbQJCXXRgnfhw3QDGfMpdqpRgCGNGuakVaNa1alZt1vvZYLAsJa0U01BpilyCPJP5gfrcUnYAGIAAwAIxjTMze/mjQDw9ngQa16OTDw0ca9zpIO9B4EW2r5vXrzfAwfhAeMC3ndavDThCFoR1Bx3f9bVporZlFBFvqk5tiAQLfdYIxS4qrtexUozRgDBDkJFD7BYkDA7moVFvWBHALEObWWCg7mfiBbUEtuhpIgzSykDAskc3KHDXtNAyHw/4K1pfpPYAIuB6mTpm2IDMe8PJca85aqMs0R0rWeSWNdhN3MpuslvPBeDDfVsNJMh5Osqzqj6ZxG87v153TBX3caKkK8yg5e726ZS76wx/9zuZNuhZCxXY2Hs2ejK/nN8PA+fmPP3t8sNcVpVb87etzRpyms9hxADWjvQBEJYtBW7SkhOubvKP2Nut0vvRU7OhelrZK265V1kDLMGPEGnN0dEbu6/R2WwINKGyBsIxgDKOYkgi0pNtm1TbPe0kvT3PVaowIhlNdymKXlelSOqCfuMNhGPd7Xlqst7u1HwRhEm3ye+J2yAGO72tL4pCdzXoklWCumRZRSEejmFpc3Fe85dW2q2qymxv1qiWaaYIsrv+rPzjzjsFX1d3uqgpdcXK6d/ltm72XvgkdRBAGzHEc6iINgJSUMIa5A1yM5OFTP9jPQNfMWBIgjD1nK5vpydnifJ14CQa8qArR+TdvCtxwrK0GRkCkgUsAxxZBYIiBEfCn/uxocuQnaJ1fPfrw4ObyxZePf3r5Yjk5GYkV++jDz75+9Utxp92cHAS9vQn/8GNDx9n7Km1FpzqgWx64roR1csA1bVQXXb3NPB4kA9rW2y6tYpr09ycV1F/87McUZ7WtfnOxy6ApF3XiBRLiLJO4hc+mE7UTQoq7+93uvfqDg5/1Nsmxdwxst0KosCjBg3pLAGSQAo6hO4SY1y7oHIcA66wuC762m/VGUeNhml1pUIUEeQWgGhpkDQAUYcw9whgmBGPiGIMwE2cfIE3ugjgYh9O3z8+hFg6irmYeHRMv2cGiAmC3Fdv3uUVl0A+bnDAVBiU5dQdAakZ4V0vs8vvFHBJiMcry1f/mv/8nF8tXLfCsBEzJruqsC6HDeegVWWGVsRA5iV8J0dZds2sdQjDjpaibuuuaEiCtlB6GNHClxY1EDYeKKAsgjqcjGtvDR4O7m5spGrLSn+09+JsXvyYUcAQfHh6Ne+NW1KvyPlVrLUWx6wCBXuhBg7hyOqBwrBGXAY5j1wPYKmKDEDfbjBSqD5NQYq46ShH3QFcVHqFBQG7L5UJVhQbA2GEwBjqaV6hFZjjxQtdCWafbTS6KVOat7lxEE+SGBsycZMj648l0m69OT/fL9QbIIo5II4q6rETTOQ4ZD6airXyXAmOQJdgiCjQFkgIMLdRQUwdrq9uuaYWAEFtjgbQMMagNRRbgCoAGmo5hwyggMMLmYUC/JGiErIeACxEEP5Ae/NARDyBEP5De/qDuEbQQCJO1eg1xWzYVpBA7Zlm8X1fn6/JGwjoIQOCFEND79a0GXdSLpAGXt2sAw8nko9DZh2J+k7+QIbJgMPG/CNBsl96FbC+gIbRKYxjG7mAw2FXKCRqPtxFFtltyJ2HeBDtd1mWcu5HvAWNEKwI/JIhCjAM/IBj5jjvtj0Z+PMJ8GMeC4qt863vx/XLDqPtk72TQHxijimr126tfQgQejT/4qPfpPnfh5vYkCffdZ5/t//GYHjTpqxLolXT9cKIJNAL20B6F4vzdraiJi5QGAjmAEhkZiqBy+n5nSQWltYoW1o+jedUUCnepjD2/1rV1oNupt98Xhtm26HRVW9lM93s/evKguknX74rdpi0aUcncH4Oiq5CEkeYJ7L1/t9jlPNvQ89UtABbVugN1NJ5czXcnJ4dddvHxWV/tCnVOA2yOHvhF0759NZ9vsrfZWgxi1HNGe2AwSvYeHhgGjvai4Wiy2Gxdx12drw5nY6CV6UilGos0laA3CHd1uy2LycgZ9NzeZCwd5nr+siraEDPHZZwZZHdNQV3iEFasM1moXhQ3VYeR06pWGtE1HbUYdKjOBCMuJtRYTRCI/Chb72TbUYhczjknjOFWlA8fHufp1kpFrA6Qs7nMX79Y3ry/A6pyXGCFVkZvukKmteMwFGrpSuSTwOMj42LL86xFChFjDZCVacKhpziWnXA6HUo329adgRZQiJAi1fiR10Fb7lrHctRqCryuE4Bo7oRlkUeehzXedakkrQuIDzhGTDOGYr8x3SrbSNze7u6tAwUiHENZt82u+9HZ71QLpQ3AHtDNjjPiJXw0DEosk+mIWhT3e5eLu6DHZdFkRWsIFwIN/ONa6w40VHQzOvjF8ZdDHa8228V81fPGv/r714LS0XHYG8e/+s2vtTLcIZzg775+/d2LG9qP7i93fX9YtQJSZqmCXmNpZY0lmj45fcICFO1FbmwGHneMr0qnLrRBqGs7q62kgFFstAknsymNXr5+m1HTQqEQIJS6lDPYUiID35n4Y9EqLwibolGtQhDj5BOyyoUUYJxMIzroB/0gJthRk/0+gLqqakbpLtsyBxJGuBOUqapX3fKi6Pvm7Mz1XUZp0ApJODCoxgxTGi5fF+YNcG6VbU0YuZA3f/jfPFknm1/dX0ZhJJQ8f7e5+23q1omnfAqQsUIZCyAmFjGEHeZaQDuBhzNv/9gSdC2ZYYEvq3aNqQqTSqF5AdJd9bs/++TN+9vLd9luLkHHgLUaWg0RABQpDK1GBBkCWBiyMHrw8RO3j757/XXdlscnk0Zia/1ssf7w6ScqxN/evl2vJUG8P3BNtGLRVYWzb+5zCkNbOn06AZ1N22UqN/erXbUAeoOIMI+eHEqDXry5PTx+POu5PcseJCev3n33fHPxriwcn0XILZcV1XgaRQgJiRRk9vd//PuXf/PeX9GxnP7hj/7ZYDAtQvttPX91c8szF2UJJG6HBaHUm/pX7d2tKotS5VdCz+HvPf7ZYDTe//hpxtHiLWXdACvEFIFaWmOA5cBYzpHnMIyRVpggB+JqsldIu6KoRySKqHmw5xz19YODB8YZ3iO7AmVbkfy8w6atbDbfZO3KlHc6bpyp42slfOxahUtj3r47P9g/uL+9P3l8tAN3wYGz2drLl6s6b4MhdvdHqW539c5hRDRaSusGzmQ0afM2pC5FZJluMIGBS7kL/IEPPXh73YQxpIFlEQqRgyqAtbc3OhKi/Oabrx8czy6+2xkV7x0fvXn9daBBsRLu1OtEB4BOxtG2vtFC+h7QDmyBIIZGMOysIL6gngy5B5m1ke5o3rZVRNHMiQeW/+jp42+/vzh6epDrUlF4eXuTm/x9ukSxazQESvl+0gLeKFh3WTh0yi5nLucuYxgg22ItkIUQOUCKhyfHizTNGThv1nOTl7ZsbdkfBxI0ed0JLQgBFJHAZaLLfdcxrW6KUjQVw8qjzGplrEDIGqs7IYy2ge9TiGXT+g5zHGK0oMxSrAhqCBIYd9Z4SD8wpg8txshaxRDCAFoAgLX/4Nn/p/UPGl9ZoUDdqGVa3lJXd1JABpmHluV1adYdrHiIq3KNURywWZoXUjWey+eLRVM3ddv249j37VL86XXz19qttNC4U5wUVXe+2+kwPBIdDd0Rshtrs370oUMUarehNcw4dW3ztp5n77M068cDrRUC6P56HvuRMYAxxgl3HR4HoUeYhwgxQiJwsVv9/dsXHgvevz5/fHKW8KCqs3dXr5suLUV5PP34MPho6I641I/2DogBxw+PcrnVtL189xrFcYudKjfr3d14OP3Fh/+ssefbTd2moegqDWDYCzATynSbtlSM3+5yx2UjP4qMm+0ayALMAlFKbi2BWnHd6/V8BEElGyEfn53IYgOZ7vfY4t2cdr26YQoTYaveIeExHfST3fX9frK3zuqgx1a3uWAgnCT9XtTqqtppscAhDVlADVXjZLx42+RdM/vR3nerd8CNis6sdbVTdRTYw4hWi3WI6JPZPsm2i/k6rQx3wx7yBgHHGKSZkZ1gGGptvZ4rFSlLXcryw588KHS5Wm673Dgud5ndd4JQ2Xq1rQuBVNdz/XxZEQuVgXktCOXjaa8f+01aUIt9nlS5xsSH1lIIfModTKuiAFJRgkLfd3yHcGyAwhTd39724jjbFqBq0ZqIRRHv+WAG2dA3FUgQjyJ3s93wmIVjF1Db2s7lfA/FyDqytioToFOGIOBCz8eVbYajcMJdtAabZWWQYxGk2OEhmjyNNumOKkJqiBs97e3vdhkgxo3idJtyQjzqb5udAB0BGCFqEADWjuMQ2a6DdRvqLoZEuk/Ys0g5u+UWA/4v/+hfFkWdqrrhhnOHGMqh28miY6DTtlkX+SZDBCGLWAM84BWbpsnEj579zmq53KxvJknisqAoul1Zff/9W8f6k2Dv5m4+mLrYAwWtqjwzFnTIiLocJnFrOxvG7XXdA1EhauT7krQsVC7T2UIQxE1E9UDH+2EckTg0s/CoWNmuArUUwEKrrKKWQcsZFZR+Pjt9+dVvC93KriIYUeZhSCmx0dDPmgrUTAjlxB6Qts1aoABOPucswAwhn7qOpRjASrYGayHbJBmEYW+XphCJ2V5kkcx2mRKm2HVxz3EGzHi6sUYaUJdtWZRJGFgLslSuvt/1c28Ie9BwBQ1yWziub2kRH/fuvt2Oo97b7wqakhk7POofB9TBDvKigBAHSqPaDhjAuB9E/nAKP/zY7yeptIXVHVbw64vy1WWFAD3//tZa28piPDj5zd+cq5ZZS40FEAJgLYYAQiONoZxbDJ3AcWN3md3eby/u7hdti4Sqr+9vHhydeZ0/3o9fXn/77TcvVQcwBvEezdy3HbyMZ4Pzldm8BN6W7uMhKMjJ45mg1WYty2uLG+wxcnh2WqZiebf1++6DE09ttn/wxR9v2/y6uz/5rOf7JFvUIpMQqP7AU0SCCNkAFrvaFezHZ5/vJSeu31chfycW//Hbv92uCpByWXmY+m3TBSzwEvB3L765z8W7vxNQ4ZHTfzI5ud3ev9ldvrlb5u9oJPtaFIwAYKUxwCqGoHUd7DgEWsuJz5mLcX1wUkM/S9vu/s31wIf9hFkOhPGoO/z+5QsLmuVl/fbbvDdm3pT6YSDXFG5cWoGx73kuBY1Git2kKXMoEHq32E7PJrfi8vn8XBQ8v6uGI+YdeBkjpW76o2g0GXKOVCewAJu7DUdUdF3dtg5jwAIMsUW6RMoEfLNpox72B6ECprqpncoNQG/Wm5WLmweH3mq3IGi/qKkm3WpzNQoS2KGsBlHEJ3t913erbjMaMsy0M/KBQxl0TCr9kKdqjgORpUVhQAm1Bl0AaUL6PgiPp7N369s326xDRmHQVG1XdsiB1ocCGtganZYYmFVVjx/sXd2fBy7p6qbtDHc912fI1KHLHMfdVTUNyaJcGg9d7TbfvLvetIWTWICkEEIAWBMd9V1Zd0YaaIXLrChbDKBVmmHgcesy5nKOdGdUhxEEFlDGOWGMU0qQ7zCMNDBSKcyoxUAATRFARjsYDn0vyuoXBt05pA+hYyz+YawtgAgi+J/tewCBBcaAdpme77I7C+r5+tbxMSB6kS3SJnP7Lnb1prziTKiOUzJyeNzUuVJdWzeT4TgMMSbFcvf85eLPK3wtwQ4AIZvStI2H+4w8CqNHhCY9NsNdZ1U3CPYGTuDr2pdVjydpcU/DMi8XIRkfjh/PV3OXOW3VRW7s+yEA0AILESQQImsJBFp3LYS3Rbou04nfx0IhoCkgWZN5PRIFflvJs/4HY77PsSmKbTDoV1pcy5v/+Povzre308FRVq2K9vb87ds4oWHsF92OBllZqPmNNBZ3xnqxk5YLbxLNq+bNfQpcZ8D9QIFZMtjN66qRhagX84xzwjyY2sbx3MiLVvNKIeC7zmqVhXu+P6Hjwd7Ft7vOho0yjcrcqAz3gtF+v22q9XIFnXYwibDC3iC5na96bsJDFDhO6DjXly93efny/KKUDTa9i+VqQ2vZ6xoBWkEbLJ0RffxgMuKWGqkQjfoDCurttlpsZVUrWYvh0IsiZ30jqEa60xASErOgN1uvhQRbZ4pf3V94jq9WUNp2cBT4CDrWzu92Qeh4LkXSqlIQi3Y7xZhX5FWnSuZix/XzXRqzXrXqXBNiqxlH1loCIVDKGm20JQQBDJjPy64kjCqjwyhZ6TrcD6PQnSZ9PnHyqDXAwBJVq7rfD/jYMa7Nsh3CoNJwMuz7GapSTa0rty2zuAbK+AjKOpq523zxaDIKq97tedZKYIBhiEBuZNh6Dj3sTVFmbNZNk4PtJmt04wRxlu2gMUk4aKsaSI0NsgRZAhDVLjeCiS6yJuaNaIYs+b2PfmaKFlZS560F9mY1X29WAeVYGwgldUHTtm7Am0qAWo/cyNEYdnrEYrTVkQ21gLO9o0oUbbvljFWy25q6oPpw72R7sZOlCvbDq9W92ycbnEFCqR/URh3EvQcPHr65vfOc0F8QXuDM1CyMW1RTpz2ZjnZ3CnpePQTsEa6ae1CkYQhnvZP520p3uJVath22QGLtIkAoLhD8+aOP3n7/YtMURrQQYgwZIR5AhnKc+PFZeFq3reHWo069q4xQOP7CifsxttCFhCFsjdXYs8SRSlNOHepq0SlZCrAzrCOe7vWiSnbRnouGuEBKYXiwt+dZSAS9eJm60I28fnq+czNgGuLHQ4VgPOXJQ/9luQIRQm/E548e16UiOSaNp1srlTBEG4o59wa9gcOYaFtjLQ9x0pOzA83iPAlpj9J82SwXqq2dxEni1pw92/vu3R0T8eWLTCunUdYCAI2GsiVWGgIUQpR5VrWhz5K+k1a3abrMUnF89onrgE5sfIaICn/0kw9++Xd/sXu3mwSDQeKhqM6C6yTkIR+/e5ff/WX+33z58/WrG1OzR1/u78SiTqlKOdKwl4TJeLa4nFfb7clH+3uPvNDzZ9HR6WePZFA0eJU26yprwyhyB0ELZWnbBjSd0Mrq5XIbef3Z3gHq+bd699fv/vL+/pa1vNkhgxwEmIf8EDle0JTlbZfB0cA93Z8e7R/6DP/28nmOa9DB9h0OlAeRMK7qVAc1tZpwTgOfQ2QoYcAQrWScgIcfkFTfKUZHnokDL1fm+X2edcC2YMToNApu7+vnb+TDDxyeIKDZ8nk9Rocgl+N+6DjcNjbblRUEnuPMr+4BBPufHN901w0oN1edA9Hp072VzN+tC+5T1TUcUdgBWdagtU2tLNLYwX7sM06qqmYeRz7NTScwIVgHvYAErhJw97IlW9ijw7PZLEDNf/nPPsdh/c3zBWH9txev+uMA4+TiVTH1Rl25ixIuUTechsNRJK1SLrKIba7TvWAa9pj1u2gUdJk2PGFBX5cdrnlIxsP+weXtu0uxbSK7WogybXvMGQVJK0oUYOaz4j496cdY61y0tddKWUWQcMN1h4S2GtuuqynSnDLRdTUsa1hhxyIEEMRCNL0AHox6ohaYeYIqxglGmEEKjXap5dRCgCLfiyKOgNJSh5x5BGML/CDEhLluoJRWstOipRgwDJA1QDOHMmCAbkNrXAuIsQbzupS/bcRbhgeUJtYyACgAGCFkAbTQ2h/G3EIDgNG4qtSqanOIFWHKUFWLzWJ7DzmrdNnYtJYrDEprg6wgzI3yYocgmAxH/SREtN1W77ftexLDDqbGbDU2UpK93ieR/WzY+4KwqKorW3khHkdsZNoqJrErFFPbyHOgs4TenWiLk+FPoPYVLIwgw3jmMR9AiBC2QGMIgAEIIqmVsMoyZ5mlbVt/cvpsMkwwMUbbu+VVrx9CZQ4Hxwe9Y5/wTXp+v7sVEG11+zx7/dXNK028iHOCF5TejCK3ypvh0G3VDSJ5VZu6ok2BpbaGikLmOaxaS9JcYY/YovYNJJyUuw4AwFzadCZv2viwrz3QVI2UoLVytL/3/nz+9KO9XFY1LNsa1ku4KbEQkBFLWIn6oCEVj+n3bzfHD6dKiccPH90sF6v73GY2GHiSVZrsRmO2ut4N+sc11a4XX96to8mgcra+624XBYuwP3WSiKAqHwzC9+n2pi3igcMo8mlIULxrmt7YGyVRew9FpWWnEKbbdpeMDndpp3Su/Rb3ILSseJfTmMtEdkWZ73IvDBQHnTVGGRcyTgIvDJnjlFkaxHTTFcblkR+Exodby4RjlGQ+1RD94BfWVb3dZnlZ5FUpgXZ8RwE5GA7eXly6jwe7Hlx3GUew0jlygSy6eiu1gTzCNiRZXTLOgdEW2IA48rqkIOw5o2pZAAtT2RCPcatnT0c0EkzoMTg4f72ulFVGUIg0FTYxT5+dVusM1hCUkMJAQZA3qedGRVGIViRBT9UdaDTWSGNomAGuRq6taHOeboiPYdoGiHk9p8jWfodoC++KpaaSNvqj8Ig50h9Z6LUIGiAQFdgD7ojGnuGgNRENz/zp9TfvUeCWRHoJL3Zr1/GDQbDVmQj0fu9g+355+Wb1+/+rn13O3yAfyBAqynqTiZSdr9Dri1vgecfJeFIO7t7cqdBKygA3mLSD0HeQKzC/gSsxKLg1oQauT2zHmx3QORUKaaFNJzqoGLFSC8nopw+fvnr5apnttLUWYAApIQwj7QfOg9Oznzz80abercQmcaJmW6tGY/RUZnmFNHFRiCA3gBgFDXQao7nfRgxt54vFchOf2emHccWaYBLfbdrkALGhbneynKt20bV3O2jw2dmxrrQutVrY8qIDyrVA06BzB13vQ7sLSs34SQADLzi/2ORXWnQg7Yptl6WiKbums9IiE0XusBdLIfIGHk0H91fPX+XblATEiSYe+nSafPTwNI4PDqafvF1evbvZXn0ndJrY1hWtxBBiA4hRxhgDKECutagfQjfxC6IasrJl3RTdF7/4dDR2sAdW3WqwH7y9Xv/tX7wxOVrfVknfe/rpvnKQvffBPVTbzb/8Pfbh44Ovn181jjj7o8mvX/9aLDttiYHYYe54kLy9eot7OJ65OklclXTzNPnZXs52v3nx69dZd3jsDw/7DWGN7LZNLVs7U86jwYPF7SYZD+/y+4Ve/Orib9Li3XQSpvcFK0aiVl6Aa5Ezz22dVLJd33HsriNNtZzf0BF+s92ez7f7w2mzAUYQo6kQShskLUAYcYYZw47rGUAARYC1flIOJiZiakTAYI9vTXGbl9LytK6Wxboj6Nt3Kxj3WyQ+f7xnlUr4pD0P5t8sHsz2+4OkzPRmna6y1fhwUi9TQ4l5EME9tFiddxvJjOcnTJKG+UipFhmYwMi+TeMcy0LTaXj808cVbg6Oxo1tNqZhQ08hmaFqMB5HyKcCaKwa2yLppi+F1/GRF/RDNtiHswfcmvqv/+b24OjAc9nD/b3zl/O2grMwxoWNIz5X7zpeZ50qBFrvKt4Fm5fpx2fP0u4CYRHbMG4jwuDhyRhVxie9eDSsQXp3+Y76zAkdoo0W2vGYE1LDlBu5TZk6EEFtoqB/f791e6gXOPW6IoSG1DXKdFpxCxEgouumcTRyeQQNNsIyyWNjjdgP3f24D7XSuk4YQhZWQsWBR6xWnXS5CxAo6sr3mcMItYYhRC3B0DGAUuYrCawxsuuAVrEX2FYzxDyK27rFKPSDiZROUUnAul35xuLK8dyyzjQ0QlKCJxZSC5HWFkCrgVFGZNW8k5VA1bqZW6kMyoDTdQoJcWPAzhCY2ru82e2N9mWreXRwscm2qnTiCEJUFzsvwFuZvty8LdxtkjRGXHuRXRWtEntn4z+gZEgZWc6/bnbvJ8MvHO+YOxMCpy7lTZ1aoKirOjOHYAeM4vSQusCgq37wscv2AUKA6N1u5XtUqhZYDiED0FLKyrLOtoXP/KQX50X6/OW3mOq2yUEnqSERHZSFaExzuXjPHQ9DN4rDTi3L5fow2r+7/Ou9s7I3lDEYk5r5FMVepvKdBjyIjq9/s6CGQgewEYJGuDXukbCDdS06HFJnsndzfcUIPhgdoV1JIFYAuhG3CndCV6KGXEQhW5/Pwy5Y3XW+07NCz+cKCuZaRqDLZywlq01b+AlHkL57vzh8cFrh6vz6Vrfy1y8vJ/ujJGBjL7p6tZxM9zNVSacFneKC4YllpH18EDhUWWjc1iRV5zKlCVQQ9OIwZoQJIlPqDae71f2T0f7mvm0rZDFvYdsKmfg9JFVab7Rjq7YptkW10YOBx6E9jWaoA9bht6pZaolcr2oqrxcUqPEnPrKyLWoQgcKDsaZH7qS4yYQw0HeVttSCwPMJde4XG2VgIyxiXGodBF7dVHEYxHHwenmZogKHeG8UO9LShhqFlVbYx348XNyUVmNh2vmy84UW59mjvYcRTZhgZd7sRIs5QdJyyOpYL+X2wfFxfVff3RVZZTHEFDfQ6/jMV77Z5htOHF35LeQo4nm+fDQ82t2uhTau5yNqRdci42pLLGUGIwhQ3dSOo61ofIVAhbpKCLP1aBS4eyZAwJGfHH58TJ7u2HJZ3rVl63lOvaoHKDzpnTx98nlZKsYDGvi///mPv/3t3+9cMQfldDyrb+q7u7WPALF1aeu93pAW6Obbuek6l8halDJx5ut8HHNXqiZrG206Uz168IRlzuuXV3gU10ozZIBpSIxaATfztBe4GmaqAjJFk/7e+e3dbDAz907duMZgLVtljcaaeQx1MPC8wPFuX113frhTijBMqKRUmgCSw37YD18sXs6zu4No1qxaKwic/p8CkctEByM+Mg2AkCEJG0lIwB0vYxK+ffNu74Ph7HdI69U3ixXRfp7qoy8P6mRbfJMTnRS1JLt6k3ejSew3iaM8cWnD2geAQAh7fR86mffMiASvdmpGCanJ8kKihkOLrbUAAgshxMhagID1OQ8dnxNWd2A40HvHuvHz82xrte0bMgxw6A8bwQF2lnr19nYpl9zmnhLWAgMARFpDqwG0ClALCSHEc5Eb+IWqSCjK25JBp3cYl92qP3YlkB53rl51MA8DSwCm0OrxKOSRHgzo3izZFQvRzKfDx3/6H98UreyfRmmx7VZWSA4M9qnrufxuviIeHR/0t011Mtj//Mmjr6rfGpJ3bb5TKgi9Tqht2jKt3MCV1nqC+l6yvNu4iGd5CZnqJdGQ+oS1VSmzW0cpD2FkTOu5JNi31m9ko5GAxuBCNsks0aYVbdemMJtrLHwHOsTaTksNLLLIoTTwfe6wH4abSlX2R8aPa2yzvaFfwrrAqFAIWBYyVmyy1aYphZ0ejJWqEs/ZpDuPjV//VYYzfLy/5wUOg971xSXlRGLUlVU47O+wcBPaNru6TsNhUnW1NRpY23QCYsIRkWkXUt6KzjBMEkJ9RjjZbP5/7P151GVVfSD8f/d3732GO99nnmueKKpQmQXEiIAMLdESiKFfu2NFjRpbKWI6bSfxpf2FTi8jxpjYKhL7JRK60KKjoRDUCqNBLOayoObhmec7n2lPvz8uPHlyGRoNVQXl/iyX69y99zn73Puw6nv2eEqMOYzTKEkEVxRpW6qtNldWjmQZx9SBz3KvSjpTmVyK967KaL9WqZT37As45gZ7B4LS/P6DYwPL1szPTgH63Ss7ptQ+wIgSpMRrJFLOG6dOBzt7gtQczQADmiIpnnfmw7lsKpdJFWOZSBNU52dCMOmOtIzjMBZSqJSPzDGFdEpHUa0us57r81SjFtAiVUrmU6kgjD1kCrTiBGSiVcId0pbOOMooITRq6rA4irQwaS/FuROJpBYHxGONWGgDPmUp5iAAo8SAatQj32c+RQeRavRpllIWJoGhUqOSIiKgKdA0z6BiLvNcTuIkNAYoc8FQpaXUAZAYCAFwicly7GE4hKoXSZZxDkCUdB2eAQAhgyCcj6GhULmOV6od1DRyWTfBchhXiJNtkPlqkHisjRlJWVui/GqlkWH59lTBhAklOsakLGYTPs+wok3dTTtCgEp8ZrJpJ130O0XY8D1Mud1ai0Zc4RSiaDyVqtWCYc4IoRIpEXEm7awl6NZqcwXvHJ/3ckq1giROuANKC47tlDEAiYQkiTBII6HmK2XKzejY0VWrllXKc13tHdVytS3bqQVBZmbKI6lirlwPpdFxMlmvVRzuePlJyUfjpNHmrKhUE3QjzWfDsBaadJy0jz1TEoLzHHeKMlZlZmgUJSZtpDbtncVyJRosdkwdnO7KdUVhKUBdUrFXpIkQjNF0xvHTTNRFh5OlsXh+uDq4pJckanxfyEnGCMU4hULdtCU0g2280CjNFnO8s23pXG1ufLZUb5hCyuNa5Z1MIduOaMZmxkPGy0E1JzO1kdrA2Z1+WjYqJT+bn6mHacpyRDV0TblOoaNNJ6Hj0fnxRkr3ztWEVtWh7o7KqKjNmkSaWEXccbLpglBmsjIOeZPudMN6jYTAANJZz0v5pUatFIWKUj+djuuBjmUm41eCwPFYxvWkTJRPYkbyiddPOoOxoFyJCHcRjM+Z77rMcSYmJsMwFkobAsxhjoeGiFTaLXTk5nkjyijCdVhqcAk6QZPoREmdovOx9NDjFPwcEyLyJeiKGuzuS5EcjXltplqNYmK0S5AwI3vUnCx1Z7w2URzbX5ubkxQIZyKhUXZ50e3kUkWu8syMqxVP51Ozs2NtTtvszHwtCjs7u7WJg3qNCh8YNS5oph2XKxpFpO5leVxLcn5GJEmmYNKi7a2r3v7svmeQkg1D60ujczPu/ojXZ+Zr4Kfq1bjgZ5JAen4qCENlNDq8L1VMGtHB0izxU228PZhoxHHSXvAkBiUaZtwsqxIxH6eKhXy7mWxMzHmGuDDU0xHM1kVgEqMk0VQ5K/mq3T/f43dnhFKui4Y1vA6qGySsieLSotsZz5YraTfX1ZEdn5ztTRfF0VQj9OI4FkE1MJFkEXOJSHRnT9uG7qU/+rvtB6M4AaBGZrLMTQFp99qW9eUaeiQ4OqvLl5160eye+dJMSDr/IF0gmXzosjoH4RjNqZBCMZZOJ7LEuTteG3/Hb5351OxPaNbNp3KNsVrabY86RdBdZ/tVWGUNo9odmTPtld3pd5/2rjOWnLWqe9XalRte3LXDsizLsqx/k+cP7j48dnDXvmef2/fcvJm+7KxzfnLLP+yv1AUgKp0p+IJJrzO9es2aFX77gWj/z6ee2tC5Lhvnjx6aoumzDWuIVAgZ46FmcSIQNYBSSezzNGFeSZW8JSTK15UDzz03mzREogKek04+0ZzVK/VshmTbOlfqNX94xf/77y/88JqhdR1t3a33aFmWZVnWr6qzrWvVkjXnv+0d3e29+44ecFycODpcBhVL5XJOEI3DMtnC8v7lpy5f+/TBp+pYh9D0FvvDIEYRSi0ijkZpWY8C8LggKI0AnXQW21FIZpLq7NjMaK06nwhNlE+9Hl+RqN3z/IFUbrXfNVgY9Fb9+W/+r7NXnt96a5ZlWZZlvX7e/ra3f/HTfyED6nUURRqED4oaoxQFyoDVypWaTgxnQbkRhokh2vddzHe6hY4scIxAkqwfGG0MR0Mch1DXRKqczbD50en1Pb19flt7OtvZk8pn07MHhBnX0UzAOeUTbb+3/oYMz7XejmVZlmVZr7e2fPu/u3BTe6HXGAVEKZW4SHIpT8S1yckj9z70w0qjbKQhaJjPPd+j/e9tz7C0risRggQnkYBVYFrlO1LGg9lkfNmGTqDVuYl6fT58y/plDpVjz02t7+rKJjyNmXRQOK/90k2r/2PrjViWZVmWdWz0dw/OTI89v+tZj8L6Nat6Otoy7bl8Z9b3EX1TiWeJA2eecUYSqrAW0a7zfD9m2cTzpIcJdbSTilyPYabdr9Gw4s3zjmTFukFmcHak0tueIjKGaoCh1mEcj5YyuuOKDf9hSX5l611YlmVZlnXMaKKffOzhgf7uA6NH948dPVyZqkBAfJLJOzVR7uhvq4XBkeGRNStWY2OkMn90VpQjFho136iNziQi0cCCQFcaYXEwG2Uah2tHSrKU7cDndh8dPjRPaebQXBS1cR0QL8otK6xprd+yLMuyrGOpq3ugLd/2/PPPTVTnI0YEZ7NhOFyZF5y6eW/dGWtkWtAijWiA0Zw0giSCCA2cO57vqwzFbAZZLuPlli7r71qSb/AgcOLedcXiAA2krkQcCzxMkfaunnZvoC+7pLV+y7Isy7KOpc5i1+DAkiAODaNxbEhCXe0pzYJQxTp5cv/OiWBq7+RYndTQz6R4tk2k0mUKDY+JolfL6AY3SB2qoDY9xVEOLe+FPIE2N8nSfO9g1OBk3vFKOFeWmTiPBFvrtyzLsizrWHK5Syk6jDOgnSzTFrBcxGnEoqpwXTcyjXSX17XCT1iC2VTeUx6NXQqeRqJQCaKoJ51MHbzyyNhUVGZByZlp4Egdcr2rC7l8OuWailjmDfK1bKYx21q5ZVmWZVnHXj5bHBhczgjTUinQMRjtOFpTEMYBQ5jGrFFJjGnH87TnAueGEq0BNANGjIhlKddB6w3z3DPTO75/JK47Rw/Xnn9u9NmduxylelNtc4fKWCTS0a01W5ZlWZZ17KHrICUolUJIqEmoiZWKI8ETNyfb45LqSHeuXbIOpUi0EQYUQUMpcThLc9/j6STW1VK8YunQ7IykiiQzcSZiGeXlcrnOdHtfobers/+pR6eiSLTWbFmWZVnWsTdTqxQLBV8RA1oSTQCIVEQBi7JiIpWJ2jtl54HnjiBFwjkiJcZIpaQWkkpCgSqN5XJEeaZeBu66qdhnszIYLQVhUis38rniPz/zCyPlTKXeWrNlWZZlWcfedFgp5PNt1CUEgCIQwhQQAw5Jd+UH2v1iZXx2ePIISmG0Bq0NIDLGXe54jBGC1E8VO7r2HxzrHGrjbqrDLcrJBg10kKjx6vSRymT3+pW5fI+b81prtizLsizr2AuVlMqouhChVoFOSpGaT8JSRCh29baFtdlaaZ5qgmi4VlQZUBoNIAAqLRWRAvTh8fFDv5iqBlEQRmMHx50EU9RN5dMqgz8//NxzY/vnZkqz1fnWmi3LsizLOvZiEKddc8sTe+annyvPPzs7//jk9P/+41NCmC3PT8yPTcJln9785NPfnEJUrtEMDDOGakWJQdfnwPVUdXq2Vs6s9ImjmYOuhwQNR4xlFFOV7vRWrBx0NXHd1ooty7IsyzoOhNGlJ286ZUm2Y+m7PvHjAwd/8qmLLv7T3ZRWyrX9z5/zjY/fsORHH33fdw4iJZ4xVBskQJEwRBcYMRQMVU4ee4faNdH5fIr7vKGV4cAMiWpBMCMmnz8k50Jqp95blmVZ1onACBokxZ7O62695Tfv/ehb/sPfPYU0DqSo4uW/9ynyv9973a1PVqsGlSBGA4DRxCASSmkipZvyhIipQ4K43tmeblTnIhWxLE8AZAnSyqmOivm98fmnn8aRtdZsWZZlWdaxxxRMzs0MrF7xd//xLR+88ykEpIwbgzq4+pKBH/+Pr5Wnj1RWLgOkQIySQgulYwMCQHPHiRphZSbs6erO5zKVuRKJCU/zgdVDG85420AxjzXmhtBOnZ898bybclprtizLsizr2POZU1fR+e+9KFNI5wu5VDHjdhXcXIauXb1qePTJQBlz7imrACkiQQACBAERGIVcJh9Wg4xnMr4/emQ0zVDHsm+gty7FPT96cOS5yepY7IJTzPaRbGquHrbWbFmWZVnWsSdq0ciR8VIjcpjDkaYKWaej4GVzzMHDR/ZRQguFt62nO1AQowiAkUQpA0RTWormY1NeuqRz7ODR7lwhzTIecUb3DgPXqZ4iuJSlMdufhR4/ICJJ7EC9ZVmWZZ0AQf2U/3bT78H4zKq+gUxbym3LpB0XDYhELxlaPj4+Xr7m8uWH9qOSCgA4MIqcIFeUKZSGxX6K6ErMGoQ0KISUJzoK5gTG2Y50cSCVXkJHyQQ62rGvt7Esy7KsEyHOdyw5tOefnt3fkcoHcaS4cQ06nu+Mjhy58D0fMeajv3nZoR9+D6OZUjJXJol0KTNAU6ms1+CE5PZOVn30sKzm9pV60qytA/JUDHCZdqJGfV7KhkuVi+CgjfSWZVmWdQIYDeaCd59FDk+VqnE1TmbrjflqUK4j3HvL1qXfMOY/O3/wmR9lSd9pXErJKU/l27qWrfDbiqWZSX+Js2v4aTcxOi8Io52uly9Guc7U3uGS25atH6nTCFg2lW7L9jWWfvePf9RauWVZlmVZx9j7/sMmXPuHX//ou5cvXUgb/vZnfvcbI5jzuC9I1IjSmY3kHb+9QSRJWA3nZsvETa9+68bZYKJkpgJSk1KKnGRphrEc6ufpjhzkMgGY6jPj0dEEOO0e6OoLV/z9n9zzr2q2LMuyLOvYu/oj1+yfGCZKn33Khj1PP9tgNC7mMl6+p5ApZpz+9i4SGhAcG1RFHDPtbStXrupt6yhNjkR6zPdjjKPBTs+fJwXCRRvujWQ1m2swevi5iagMYIiMdGmsEteT1poty7Isyzr2GKOZnO/kfMFJ2vO5IYlMKGdeNtW+pGfJmaveesZpG9eeguhxmvICkShiOnrbuAPd3Vn04kwXNwRSBkWtEYLRHpkenU4n7gXnnJ7N+0KYasmEVRnXZWvNlmVZlmUde8xhXs7PduWVR5YODSW1mpJSKxkqaQq+6vRWnbbmtPXrUCeGCHAch7g04SrVnU50EkujuD8bis41xdPfvrE/43VJ3tEQwYFDDz/wz7OVSt9gFyU062UK2UJrzZZlWZZlHXvc4alCyu/JZwaL55zztvZCNlVIY4rFHg5X5qdnS6TAQ2ygmwCTxEiTgJSuInnqZHPTY/HIvsp0OXxuvnRkYvLKDRu6Betzsu9958azTmtfe0o3yxB0DWgp4ri1ZsuyLMuyjj0CREgVRqEE1TvY6yCSKFZSSDBj41PDh45uf/i+Q/XDyAhz0UUgiIa6Zq4yPXZ0tJ356QZd2tnR4XrVQzMPbts1PBU13NoTu55MV6JVg/kV6/vSRaROkiRBa82WZVmWZR17iFSDUWDqtTrh2NnR5kkZNRoz4xO+ISOHDj139BdPTTyFDaFiZQwQhsB1osJKKBvlmWBpTwcQEJHgedpzRmbZmd11nycd6c6NHSYXP3vgqbed03PaGatc12ut2bIsy7KsY88YI7U2xGgpytVKf38vJtKohCayNDwRh1ElLk+LcQQGQgsglFHuMTbQ3c4p1QycgpNq8zUlNYWHGvXR+Xqm2NFQydH56aqsUY7Frsw9d/+iWrFtesuyLMs6EYwGpajCWjWcDao9/b2uABU0dNwoeH7UiObL5bZigZx17WpifKTZXNE1zlRDjBweqZCcT9sc9DWl0Kg0fM+LXHSYXN1HLzhjdcBhbL52dPdU8JzHx/rv+7uHWus+vpRSUkqlFABIadcCWJZlWccEIYRSCgCUUs45nuhdYj/6n39nOJzSTtpz+Knrli5x2n74t98fpRWVZxJoIderOpIPXHQOOee31hDwKcs7aaLZBPNmGUvvnpsyOc5FxKiC0D37tJ6fDB8JBQzlYWV/N+R84TkQsl/cdXCp3PiDv93RWvnxEsexEAIRHcfxfZ8Q8kb46S3LsqyTktZaCGGMCcMwSRKtNefcdd3WcsfLx/7zh8eiKcV9l/Nib+Zdq976o69tO6CmZQY9nnWdTNQrfvO6sxEIRjKRWiGD9s6uJatW+wP5JINl3ch2e9TBc8/Jr10/dNZZ69MFR3m5wzP18enk5z/df2jPZHkyVvGJ2TknSZJarUYI6ejo6O7uLhaLnue5rmvDvGVZlnWMIKLrup7nFYvF7u7u9vZ2AKjX60KI1qLHhQaDBKhRRiXzjYqTdjMcjUmMUiKoZTBOlesP3vOPKLUihDBOkVLG2b4jI3vnZ6HghMbkBlODp2RZZ27P/Pzhw9NEu5OlhtveVplvJFNGTYZZA0hIa83HWPNhSmvd2dnZ3t7OOW8tYVmWZVnHnuM4HR0d7e3tUsowDFuzjz1tjNGaKIFGxUZGKh7obm/vKA4tH1y5dmmxy1uR6x2CHnQcX2lARvy0nwhx5PA8hKaTO50Exp6bI/n2B/aP7J8Np8OkGgbFzmyFhBnUp3UVaClMKqC0aa35WNJaB0HAOe/s7LQx3rIsyzrhHMfp6urinDcaDWOOa0w0QIwxYJQxUhhVq1eXDPVyRurzpXJ5bn99elRCTLtQScM4I9QEUT1XKGaz7vzsfFQun3lq97vOWC5q4cRIFJfmB3JqbbvrzlcqB2Z7HHzHW1Zl0inmETDHr7fcGBMEQTqdLhaLrXmWZVmWdeIUi8VUKhUEx3U9mjbGAMgkRmIAYHJuhqedybHRienp0bm52Wo4U62NTEwjABKgnu8iktGxcc65h6SrM+s5UC3P01p9dQFXFOnGpemLLxh6z4Wrz1s31NvGl6/q4ilfIxJz/HrvwzBMpVLZbLY149g744wzWpMsy7Isa5FcLue67vHsxjdgAAhQkFpCoupBQIs+AgEgiQEIQEWhMiESQNdxjJa1anlk+GhpuswEr0w3dh+YWra+m4bJxv706hU9Q+v6nxjfN4alJBUWVnbsmxutVhMnYfx4Rfo4jiml+Xy+NcOyLMuy3hiKxSIhJEmO11x1yiRoQgkgoQJqjSBK8/Z8hxuDKQe+FJSEgSgjJYxR5nAex0F3Z1dP72BdyBKnqj99cH56zXk9FVHf+bN99z7y/O4jemq6plTw3P7DP7z3WS6xt9DBudNa8TFgjEmSpFD45d6mE0n993uGf/+nD133z3d+bNf/+h+jdzzQeEyY47fgfu/evT/96U+3b98eRVFr3pvE2NjYzp07d+zYUalUWvMsy7KslygUCsct0lNGFRhFABimwa3VG1UX+nv6VSIMU4QmoBKiOYJCLTRFiMIwjOJ8LrN0qKteifc+2Xj+AJmPM9n+gVPPOo25fTNj8MQjYW+2s03lc4kbllSl2ii0HY9GdhzH6XSaMdaa8coeGwk3fu356+89/OMDtUrFLVXdhyemvj527+emv3QoGW4tfWyMjo6ed955b3nLW+bm5sbGxm6++ebFuS0fX8nOnTtvftHY2FhLSmvpRXbu3Hn48OHW1NdgbGzsrrvuah739/fv27dvYGDg6NGji8vcddddzZv5lY2NjW3fvr019ZXt3Llz586dramvWaVS+elPf7o4ZefOnc8+++zilJcaGxtrOcuyLOvVcc49z4uPz+vfCGGe6/ieUMoBRoBWUC0bWuoYMCCEEjoCUdPkvGvOzrbn0UuOHt2DrvaLEKgZ7MpXITU1NpUr0nPPXX30yMSh6bCzve2UwY6htDir7y0Hny5/++9+HJXxlKUbfvCdY75zTq1W6+npee1r5X8+Er7rW0eUNv/5Av9Dp+XyLiMAdS3+qfrcT+SD2Uzyh+0fW8YHWk97ZWecccZv//Zvt6a+aMuWLTt37nz44YdbMwBOO+20KIouuuiiubm5rVu3btmyZSHr5ptvXvzxtdu5c2dfX19/f/9dd931/ve/f3H6y97DgqVLly4u/0rGxsYee+yxhZI//elPV69e/fOf//yKK65YKLNjx45cLnfmmWf+y2m/pJ07d05PTzevGUXRjh07zjrrrM7OztZyL2qG+Vepce/evY8//vjU1BQArFmz5qVXW/xzVSqVHTt2uK7bUmxsbGzr1q3/cs5LvMbf0LKsX2da66mpqUwm05rxetv8p783EU8YiBzPd0NOfGf5hqE1QfqO22+fpY2YSBcLbtEnF1x7LsuniD9XHTuSLzrDtdkNb6fOUPtoxRt7dqYy0WAOJAxS3UW3zWG6clZnLssG/vmBfTP762I+u25o4/Y7ftha+etKSimlfJUY0CJRZu2X9k/U5Peu6Tx30AVCCBhCSHMjwz3R+N/Ut3annP/e9QeM0NaTX8EZZ5zx+OOPt6YCjI2N3XfffR/+8IdbMwCasfzaa6/t7+9fCCG/bKRvCTzNMHPXXXddfvnlnuc1Q9ezzz67ZMmSfD6/8ATwry7xopb4/SpevWSzKf/YY48BgOu6cRxPTk5eddVVr1TvK9m+ffvg4ODGjRsXIv3Ro0cvu+yyZcuWLZTZsWPH2rVrm1d+9Ui/Y8eOKIrOP//8W2+9dfPmzUePHn3kkUeuvvrqxf/ZLI70d9111wUXXOA4zo4dOy644IJX+q9rbGxsfHz8lSq1LMt6JdPT047jNLfOPXY++fnfn4zGq6JCfR8lz6Uy/W2531i77ptf+1/j5ZrIJgJlJpdGDZplPIUCEWQSvP38/jPO7RlaVZgPypV63NWbp5wRRXRVxqWQc1d6qSonM3HDSHBAUXLM1w4KITzvl3hj3t89VT5SElvOyb19yENEJASREiTN41NSA+9mF47VG4+GT7ae+dos7tw+cuTIkiVLWku8fvr7+7cs8v73vz+KojAMF36QKIpqtVq9Xm8989j427/92wceeOCxxx5zXbdcLp9yyilnn332hz/84dcS5iuVyl133bUwZeHo0aO9vb3NY8/zrrjiijVr1vyf//N/Fo84tAwZvJK9e/dOTk5eccUVzQmb+Xx+48aN559//kIPR3Ok48iRI83xjh07dqxfv76zszOfz19wwQX/+I//uFBpc5BlwdatWx9++OHFKQt/esuyrFfhed5x2DgPtXGRZr2MQxl1eRAEYakqQXR3dVJNlAKNYCihK89cIZhWpDJ1ZLKnr/CWC1dPx0dmjfjFwfm2TM51M5FURgPUhWNAyERyHYUw+lzJrQKJdHux64Ob/kNr5a+rJEmy2exrfzL6wo6ZA7Pi1vd1pF1KkCBBJIQQRARCEJEMOB3/MLXbdeQ5mQ2tJ7+Cb37zmx/96Eebx7VabWxsbN26dVEU3Xvvveeff34ul2s9AQAAHn300UsvvbR5XKvVdu/efe655y7OXfzxlezcuXPr1q2PPvpos/yDDz640HAfHx+/++67pZTnnXde82M2m/3Wt77VLNzi1FNPbd52awUv0bzVgYGBdDrdkvXWt75148aN69at6+7ufvTRRy+//PJcLrd4/sTiu3300UcnJiYWavQ8DxHvueeegYGBIAgOHTp0/vnn/8ulAZYvXx4EQXd3d/P3rFQqjz766IUXXti8/vj4+MjISEdHx0vv6gc/+MG73/3u5lkLv2p3d/cPf/jDt771rYyxc889t6enZ3Jy8hOf+MTtt9++du3a7du3N+/w2Wefveiii5599tn5+fmhoaFardbW1vaBD3zg3HPPPffcc+fn56+99toLLrig+fHcc899/vnnX8tvaFnWrzljTBRFx3qHt5889KNqML/34J7DR48c2Le/PD8fVOa7OrJMkyOHj4bUKDCMErrkLYMkTTWv1+cqiYySXBx1Ovsr8dKVayujlcPPzyHKTNo3jSjt8SUrhmJGxnZPilHFJSrtdnX2/tZvfqi18tdVkiSZTOa1D9Lf9OAsJfCHFxRfDPAv/D8SJAhI0GP8H0cPK0je0/HW1pNfwctG+scee4wQcvbZZ7eWBgCAmZmZ4eHht771hSp+5Ujf39+/EGaiKIqi6G1ve1sza/ny5eeee26zA7xZMpfLLRRmjC1ZsmQhaOVyudcYopq3eujQoaeeeqq5svGlcyE9z3v00UebcXRx+uK7bWtrm5mZWVxpR0dHKpW6++67G43GwMDA0NDQ4nOb32jhseno0aPVanXhy46Pj1er1WeffbblriqVyvPPP3/hhRc2W+SNRmOhxomJiba2tuYFn3zyyUql0tXVtXr16qGhoXPPPXdoaKgZ1Ds6OtatW9fV1cUYi+NYa22MoZQePHhQa718+fK9e/c+88wzy5cvB4DmA8G/3LFlWdbLaW715jjHdnna3/3v/+8Xe55G1Ll8vm+gv6+3x3Fx+bLetnRmzzPPRZwb5I7DkXDiZrhC4aW9UMrxqfl6NROVnEPPjHSmi8Ucc7Om5tV1DzjdrBHX6rUgmpZe4kuV0iwrVWvFrzut9UsjzasghhiAZq99M8C/GOYJvpgS1NJh41ecK9FcPhFF0ZEjRy6//PLW7BdNTEx0d3e3pr7otS9aWzzT3vO8Rx55ZHFn8s033zwzM9NSfu/evYtTfgU9PT0f/vCHL7300gMHDvzt3/7t4knvY2NjY2Njzz77bKFQuOeee+66667bb7/9ZVcBVKvVl/4Ca9asOf/88/fu3bt06dKWrBaPP/54y4ZFg4ODi++q+TXr9frC8sskSV7ppVJRFK1Zs+bpp59OkqT5uy3umd+5c2dzQKSzs3PNmjUAsG3btscff/y8886bmZnZvXv3eeed15yg0Ow+sSzLenWUUq11a+rrrREGvX09vT3dPd2dKd+TIHnGi6hSRMgo0EIrgSLUiJw04rICGYqYuc7YcFw5MMcm1NTu2cd/eiiKY6fgs95s0utOkLACjTASMqJG+CJxOKYRXmun+nGzqpNP1eVMXb80wDf/bzYUR2ZoG3S1nvnazM7O5vN5z/Ouu+66V5lAcODAgZUrV7amvqher7/KuYudeeaZC+P0APCJT3xi6dKln/jEJ7Zs2fKJT3yiu7v7pbPJXq+nyP7+/ve///1XXXXVyMhIM+Xmm29ujtPPzMy4ruu67tlnn/3Od77zlaYWvuydxHHsed4DDzzQmrHI4cOHK5XKy86BaN7VRRddNDs724zug4ODzazZ2dmurpf5s46NjXV1dZXL5a6urrm5uaVLl27ZsuWCCy5497vf3TxoKd/Z2blp06aF5QzN+Y/1ev32229/826NYFnWyadvoC/fVuC+I1QipEDOBNHzSUA96nF0GKdIkVAkqKUOoqSezqY1kDUrs21JcGp7ocslHb0soUD9oqKezmVohx+ArIf1RJsgEaA0k5qzYx7pEVHKX2K7m6vWZbWGrz9eXRTgm+37FxL+9pnZSjX99rblrWe+NtPT0y8Nri3GxsYmJycXB6rm3LqFj/V6vaenZ+Hjq3jpevqzzz57x44dzfVvb3/721vKj4yMLMTXxbPJWoq9ds3I2jzesmXLdddd1wy0q1ev7urq6u/vf6XpeNPT061JAJVKZefOnVdffXXz/luzAZrt7/vvv/+iiy56lYehNWvWNJvXjuNUq9Vm4sjISF9f30KZcrncPHj66adXr14dx/GGDRuab5lsWnzc1NwpaOfOnbt27SoUCg8//HAYhs2ui927d/u+3/zlLcuyXp1S6rUPOv/KJNGS6dgIoaVGEkuZEDNbLTPu+J6vpFRCEA1IGXF8yBd8IZPp6ZB5esXZ7evPL3SuIrJN+p3u6O6Z1DRLDlRwXrGYQ8x0JAgEiocJCwB/iRj8qyGE/FJ9IB88Lb+6w/nLfy795EBjUYB/YWLevfvqN/243MM6Lxt6oSH4S4mi6OjRoy/b1lwQRdF999132WWXvUqg2r1790KLf2ZmZvGk9Je69tprFzc9+/v7m0vsPM9bvCatGUePHDmysIjzggsuWNwf0BRF0V133dXS5/8r6OjoWGjrv6w4jhfH3aa77777tNNO6+zsvOSSSx577LGXbr8TRdG2bduWLFnS7EV/LZpDIVEUTU5OLjx2jI2NRVHU399fqVTiOG5Oy2/+RZqT8B9++OGtW7c2DxYu5ThOX19fX19ftVpduXLl+973vtWrV7///e9fuXLl5Zdf3jx4lb+UZVlWk1Kqubr7mKIcDAdgKJsvsDWgNamHwqCTL7RpJQkBpRQyRsKoOj8/FTTCbJb2LumJO/DJ0d3nvGNZ10qnOJTtH8oVEpOvKzKZYNnwupNOwCdGOypAYfCYfxNE/KU2G2JI7rxu0Ofk/d8Z+9MfzYxXZbNJP1qR//W+mfd9ZyRW7LKhPvYr3fmOHTt6enpeZfv9SqXSDFQtMXix5qqw1atXNz82l3tt27bttYeQzs7OcrncnKC3OP3xxx9funTpI488sjixhed569ev/+53v/tvDPaO4yw0ml+jHTt2+L7fbIt3dnZecMEFLXtGzszMbNu2raen56KLLlqc/ir6+/snJydnZmZ27dq18HAQRdEDDzzQXAefz+cXX63ZudIc+FizZk1zHGRhxXxnZ2d/f3+SJJOTkz09PQu9I9lsdtu2bTMzM2vWrHmVBzjLsqymJEmOQ5s+kYkCYRAIUkIoNQyBxYEQgripbBIHlChCDF193tDo/L5KPYnnTX9/ZuDU9kkyXfQwo8EUUhGjR56bactCCo1qCBowVWI4LSDWIQOD7mB7/7VXfrC18tdV820BL11b9Sq6M+yKtdn7D4bff772lX+e/8ZjpS89PHfTAzM/PRq0p1gj0Q8dDroz7MwBv/XMV/DNb37z2muv3bFjR7lcvuqqq152hmAURU899dS9997bXMzdmg2wsCdrs/t68ePC8uXLd+3aVSqVmhO8FxsfH7/nnnseffTR4eHhU089NY7j++67j3N+1VVXTUxMPPDAA6lUqqOjo/kAsXPnzquuuspxnMcee6zRaKTT6ZftWu/o6EiS5Iknnli9evVLv8vC4oKW9Ba5XO7+++9fvHzgrrvu+uEPf7iwxK5cLu/evfvRRx8dGhpyHOe+++6bnZ1d/Ov19/cvvIB4ZmbmZz/72UMPPfRKv974+HjzlNYMgFwu15zPf+mllzLG9u7d21zLt3CdZmxeWCA3Njb2wx/+8JJLLlm7du0999yDiM0fsPlHfOyxx3bt2nXllVfm8/larVar1Zr36bruT37yk4Vf27Is61VUKhXHcY51sL/vn7fXdUUaqRUQzYhhDjIjk6FCbzBbOzg1zFwOBOi6C5bRbNzT48p5USxkIgwLuS44PL/CT0/J2rCuzzuSeDrb6bmUyRKEYwZqRGsg3PWg0N/Wd/WVV7dW/rpCxDAM0+n0L9UT0p1hHzu7uK7LdRjRAAWfXrg8/bl3dt76gb4Uxx0HG9v31gfy/G39rynYf/Ob39y0adPRo0evuuqqV2rSPfbYY3Nzc5dccsmqVata8wCawewf/uEfhoaG3vOe97y0V2DJkiWHDh1aaOgvGB8fP/fccy+99NK2trZarfbAAw9ceOGF69evB4ChoaGurq6nnnqq2Um+Y8eO9773vW1tbc1F51EUjY+P33///Q8//HAz9B46dGhhSd7Q0NDIyEhzIKClxtcY6QHg0KFDS5YsWbjCunXrFpbYLZbL5Z566inO+RVXXPHSB4uFHvuenp53v/vdL33WaXqVSN/R0XHmmWdu3LiRMTY2Nnb//fefd955LRvbVSqVw4cP9/X17dixQ2v9zne+s7lOb926dXNzcw899JDnecVikTFWLpcvuOCC5ghIrVabm5trLqvr6OgYGBiglL7S9gmWZVlNWutarfbSf11fd/c+8o/TwVQcxYwwVJwadBjTKml3Co252vDMCOFEgyHv+c/nH5l4cl1/78Qv5mlO5d/m9L2luLrTMVFtthN3zc3ueq5eG4VlBfQST4yz+SeUmjXGkICqvN996tJ1t3/9ztbKX29RFDmO89Lo+Cv78wdm/8t9U0hgx+8ufefy/3tvwSvthmtZlmVZLUqlklLqlRb9vo5+/wsfGw6PhkkoE0MlZcgchwqilxcG1Vzw82d+lkBCPY5SR/X54PDTY42ZxHUKo5OlQ0f3P3nwwF2PTo7MzxXc3G+8dcMpy7onj5hUzo+YKoeh1kxqBAqGSsJ+iblyvzLXdRuNxi81A//V/dE7O/7HZd0pfmz7VSzLsqxfN0KIKIqOQ5gHAEodx0krIAS5MYaoRIhAGlKOQ78jrynV2iilUECV+MCyqclqbNJ56abGjiI1fWedsWzXrvrhg+GBAw2CbX0Dfi2Uk5UgNJ6iGQUEfYy5lM4x3/e+OVT/K8z/enV/+I6O2o3rXkuD3rIsy7Jeo3K5/LJbiRwbRsqEMarBNAEQQkhN1lN9mZBFMapICqzng841HfW4nGF6/uB+MVLzY3/XQ0d2bN2rRkzludr+n43MjJUpdVOOx0LwNQNCEqKIBkeCa45Hm77ZrFdKvfat5V5ftuvesizL+r8qlUrGmOMW6TMZ33NZHAVaSwMG8IUdZJSJuU+oi8pIZQxiVpK0GFrd3z3U1tbjv+Ndq2Qsu3t6Np7R97azVnMva5SpleaTmsjxtE7AoDIsIqgZSWUzRfKaXzzzb+f7fhAEtVqtNcOyLMuyTrRqtdrcA7Q145jRWoFW6XSaEDSIioABY4whWldnZ3pyBSIUVYCo69Vqba4yXzeRyrAKJmdeeHpJVp4dmdwzMeLktea62OF25tOu9mVAFMaa1DhTCB7zU4k+fkPdhJBUKtVoNEqlUmueZVmWZZ04pVIpCIJUKvVLLRP7N0IKlCGAAQRllFRSKgUArmbhVKU318UT5JphZ2dHezGrJTKWMpDec2BiuDYj/FQidXd28NAzlWX9GcPV4dHp3U8Nm3ksKupKhcp4lPpomDlOfRRNiJhKpYQQMzMzx+HVv5ZlWZb16pIkmZ6eFkL8sqvB/+2kkg6nDuOMUe643HMBkSM1hoSBbC92OcRHzdFJZ2IBSRiKer0v15aH1J7H989OzBPkE6OzLsLKvu4uJ5uMgRnFTOCSkDBwGCFpDmklUuq4Rvpmy973fUScmZmZm5uz8d6yLMs6IZIkmZubm5ubY4z5/mvaneX1JaREZEopylwNRiqptFJaCaQlJQVl1POEFPjIP+2eHKvWAoWeHJ8fTuVTp65dSQlds25jttCFxn3wnw45QHuyeYwoJC6ipwR43ONcBfUGUcev934xx3Gy2awxZnZ2dmpqqlQqRVHUfLl4a1HLsizLej1oreM4jqKoVCpNTU3Nzc0ZYzKZDOe8tehxEYSh67pam0RIqTQgUkqN0RGRDVTKY07KAVBkxcfTrkf92IDEpJPPulFntn1ycnxwadehPdPrhzqNJ+dBuDNs7ukIZjyaKKaBe5jqyqZYT552/v03v9Na+fGllJJSKqUA4HVcc29ZlmVZixFCKKXN188zxprHJ9BHb/yPThsZmZmsxxAFCQVJjeKOLxC4S1d39O997JnJo6PknP/fykY17na8qZGpKM/nnMipS6Dx296+8sjhmdJwbWhlZvkZqw89sm/6qdhrZNJutjZTJQzbB/pVue28t2z8/Oe+0Fq5ZVmWZVnH2O/f9FHMq6NTE4nh9VpgkghU5PtZxUzKY6s6+ub3jex5+jkMVEMYVq1VkjjI5LxIRr5DCn4GDV+7dpWb9kpzwfTeibTO1GbjaiWYnpnPt+cGh/oxoksLG32Sba3ZsizLsqxjz/UcCiTjuEZoSjSnhAEHJZjWoExdxJ2d7UQITLcLw6rFYrqrrz1VoIVu2t7vFNtSO380vmvXYS/HS7OqdlgF4wiJE8bQiOXE/JTncw983XDb8r/KW94ty7Isy/o3cj0eBzUfCRoNRqDSKJmIA2ZASzon5dpTTkXQWFjCskOiOj/rqpScI3rOOXqgumfPdGAqwVy1Mlb1E1M+NDe+Z5oIBETDRaTlVKnk5zMhNMrx67lDrWVZlmVZr1GSBOm0T8CA1kiAIAEgQJnWIIUIG4GXTqVSKSwM5t1OMjlSO3pgMimJHj/lk5SJCJXgAC/6nm8oFZQKnynHJDFDk8nk3FS+HFZUOvQLL/MSUsuyLMuyjjnUUdzwPJc7lHOOSLXRQhkNBAlNohgpXXvqepyvh0fHK9kMby/mkSRrlvRvuvTKc996emchn894kUjQYYS6QDg1zDXUNxgHSSxBoEx3I03bVW2WZVmWdQIkKjw8csjxHMYpUkREZAQoM4RSynzHmy+VUpk0Ht5T7u8YzOW7FAk3nNEfkcmJ0V+c87Z1hbYsz6ZDSgKOiYelsKqUopI6CS2mC4gklLVyfHjXnsdaa7Ysy7Is69ibmp3Kd+UIowY0aEMIMEYo41IZKZVOxOGR4TWnrMf6eHjk6fGx6bLhQbaX5pe4G89d2rcsn2nzDhwZl0TnOvK1oKZRShCIjtEeGs4ZUK69dAw0aq3ZsizLsqxjr60nn4BwfY8gGKlAGwBDCDOEKm2IhpnS/MDSISymsl25HqG04aYcVUomdHr5Ywcee+7Ioe7etnwqK+uhSSQFbYiWSEOg1OWgJKckk6ep9PHeDdeyLMuyLADIdGRCEPONgDJklDmInAIFBECtNCMYJclMaR47OjKlUkkaBcYJA6w01MPPPzUaTp927jrfd+NKvTFZoQEwCQAgGCQuGgZChIhIKeBx3czfsizLsqwXxCBpxquGEeecEqQGUGuiwRgAAKJJouT49CSCpwSVWiiq8weemZ0+XBubqc41wmWrVr7l9NPa89kU5VQBakIUAmjqAeXKIDGazcyUZ6bmWmu2LMuyLOvYq0Z1QY3QhnkORSTGENN8lzwy5hKlCWIlbKDysJIkKe6Vx8X80TieisNZVSuJRx558smnn3TSXqkmlALUPgXOjHZJgqiU1sxNR5GKItVas2VZlmVZx56hhKe9ybk5zrnDHE6pwyhDSgAczgkAUKzX6ygTAALVuYZGnS/6Oc670x2zRyq10jxmSPfyvt6h7iAEAUgQOYUUNZzSRGqHUwAgcGLeZWdZlmVZv+biKK6U5yjVhhCCyJnLkRPQYDQhBgwYgFKjjrk49Y6V6xgA62kMnZ4eXNUTNeo5ZChM5Eb7Jw7PzpQ97WoaJzwgLmE8xVlGKYFQhrgMwr47zrIsy7JOAF2L+jNeIa0SnbBsNjGcgKejyCEiqFcJomY8cBmO7p86+rMjaemyUM/um9n5o/H9h0obznxrZ3/f2FRFJ6oxF3NFGCAiKgLM9yOtMpm06/IkjrWyvfeWZVmWdQLkcxkZ14LaLAUNYIBjrBX4SCgwxpExxnkjirF8oOaWCDPpvNc3PS56+9uXru/dPXJotlrtzOVd5ZKAcE2oIgioiDGcGkKE1F4q09bRmQgb6S3LsizrBOC+t+bUlbmcH9fLRCeOQxUH9KgwmgBRAEZrJSWmyiwYFUrTyXrD6Wmvenh4YnamVJ2anS+P1yqjFa4AlCGaEEDH8yjjSSJTqUwYJhMTs4zb9fSWZVmWdQJMzc/uObLPyzBGjcvQEGUQNBoCxGGOJsA0STkupjSP50Q4OdvZnupY291oB06Za6hjeI7ka2NSR0iQUWScOdlMljEmkiSOBQCNE/nCfH7LsizLso4vwkyqMx+jSZQkBJSUDnMczdLM4UCRINPE0QRndZBbmVqxpiNpzEwf3tM4PM1m6l6QYKi80EmBiwQ0hURrACQGqCFoiO84tUo9DjUQG+kty7Is6wQQSu0fG9ZprtA4ruMx3yNujmay6MswqFUq5cmp+ckpdFe0J0tyjVRiuOGlpDiuewQ9feWqlT3ttG7C+QQIxCg0Ac451UASyQEdyuMgociVsO+ysyzLsqwTwHVdQdl0o6aQEkIZ4RknHUxXdz/+1P7nnx8dOTo7NVWbL6GTdWtpmHDjGRBCwKDDUopNjA2HYS2uhB5hSunESM45EuI4TEkZ1qoijOJGpCLp2HF6y7IsyzoRhNQJMV4hJ7QCQrRWTz/z7MF9+wu5XE9v19KlQ0tXLF22bCmaekVOz+sojrWJfc/0FnhXrqIa+Z48SMIVZQYYMRyIMYY6XIPJpNKVudnS9HS9XAsD+y47y7IsyzoBZCJd16lUyg6SWqX89HPPQIqt2LC22NOZbc9xnyWghJaYd91sINspyxLu+v4cEcNhKc7gcHlcG61CkULugPEY8zgnlNTCOuPoEEQAoo1K7M45lmVZlnUCUCRJEDKjiIyHjxzq7u/pWzWo0lS4EGkRiiQmQqDGSEgldDGd4hVBy4FMpErR4lBnvq1DxonHeIo7nABH4BwRiQFDCHie47puJpPN5rOtNVuWZVmWdeypRKfdVM5Lpxjv6Ci09bRpDxOqDQfDiaEAFAlFrIZOnTrC9XJZN67EjQqoiBSiYnu12O7n2zvbBpcv7RsYyHX56RxFGXFtkOjYyAi0dgFd+9pay7IsyzoBHOlMPDc9sneq0RCHR4cVSs+jKc6I1ogoIwUxMQGgSgx3fOZwj9NiNutRL+NnV/asDCajsZGZUqWy78DBStBwcm6+PS1kIpIYCAmiyBBQCMjtKjvLsizLOgGihnBYrqu7d3xmOttWMBS01kQpSogxigBQpEgIYiyplKikQ0lYb1TmS+XZ0oP3/7Q0VyUEqvUgiOO5crVUr3ipVCqdRocBolTKAGGOwx07996yLMuyTgQKYRgPT42lO3K5roImKpXyQCtEYBQ5RYdTZBQ9jUU/5XMn5WY627OFtGciIuoyKEdaIuUuMs49N4xFKEUkE0JoGEZCKCEkY6y1VsuyLMuyjgtFDC9ScElA4gDietjglFJGKWOEEAJgtJFGow6NQ9nk1MzhkQnC0HWdvJfLO4WoGqFGhzqIjDLmel4cJ5VKhTEmhJZSO47rOA6xe+RZlmVZ1omQzvqZgh9DVI5r1OeJSpQUlFFDDKUUCRhjNABGUSKlRJc5KS7AxCLSDanrkmsHYhChFIlEgowxKWQcxErIOIrDIHa4h4QZMK01W5ZlWZZ17FWrwfx8mXFKPYourderRik/lTIGlFJaGaG1UgobUcJ8xy3kAoJT1djx/LASVibmHUWpBk4ZQ8YoT3tpFUtOMM08ENr3fKN1yvWUtOvpLcuyLOsE8BxOhJFRgpwKJRyHG6kAgBAkQBjnRpNEafSzOFmeeH5kfC6KAyVn50txPSaaoAYCVAhJKTPGUEqTKJZRYoQ2UjvMJZoUckUKtvfesizLsk4ABzkVJOd6jGKjWqWEJHFkgCBSBCoVSK0YQXRSkOvysl20rbejq683ncmkfI8ixlIAJQoBXDQMkbNQJIRSApSioxOVz+ajMNTavuHGsizLsk6AoBIUeC4uh7IeKSEdymSUoMOBIAWuDShlKKGYmAg96RcciVoomfK9TC6jwQgtFRjC0VBkvmMYhnFMuZsIiYRm01nX8TZu2JBK+a01W5ZlWZZ17KGEdj/NYiPCmAKhQIQQhCEio4QRwgCoVgZ7elPc0ZTqXC4lRFIqlyToWEp0qEINHCXR6PFEq1hJx/Ol0doAGOpwJ+37tu/esizLsk4InZD6XAmVcQnXiTBCSSG0NgSpkgYIIuNaa4R6ipmMDkQ8O12dmgWi4liEkdIKiCGgJAWgBpNYAEFAYhAk0YobTZKfP/5IqTTTWrNlWZZlWccexkY3lGqAH7t6VuiG1tpIIjQDQwknYGjSIBGOD5fjEEysdS3pKTinbliD4DLDiaEMCFGaEYIa4iCkgKb56hwHvbTrZZxSZQpAtdZsWZZlWdax113IQgLdHX21mcCEpF5uIOP1Rs0gADKHEMJAc4U0wwQX2mGGE2RsfGRWhhKUIdqAMYQQznjK80SSICFaqjAMCZg4aricU8II0NaaLcuyLMs69jJtxYHlSxVRG96yXjPjF7LSAGrqMJcQosEQAARE5UiSQnAwlCYUJqwlQaWhEqGV0lozRIdxRlnSCDlBow0YSOKwWMgmceRy1yg7996yLMuyToCJ2enpykwQ10anRgTV81ENHRbXQqIAOdVKa2UAEBl3fd9XQvlpTKVTRHOTKNSABow2AMAociAgtYMcpOGU5fMZQmWjUYuDmKLd+t6yLMuyTgBBoBTUgetaXM90pFdvXKuJVkniMU45MxQJIkNGVlxTbF+THZsaSzPlO9lqiTV+UWIRM5oAYCqbKnbkUxnvyOHDhUKHTBSlHLjI5Hl3V8/c1GwGe7fecm9r5ZZlWdavN6VUkiRCiNaME811XcYYpSfD0POmP3nPM/M/RyMRWS0yvV0DXW57EdKOk6vHMqxUhZFCCrLh2iHWrUanx1asyEWJKI2T+PmAC6/RiFLZDHfYshVDQVCrVSuek04iJaVOWGVwRVdf1+D+5w72FtZ8529+0Fq5ZVmW9WssCAJKaTqd5py35p1oQohGo6G19v03/X4w7/uvFz81v7O7M00Zk+AGNdmf7uljRUNSgca4UW806gAEZ2dmZ6dLWd+VIunqbAvrCQJqbZBRjYCcUsaiRkiUYYAOc3zfS+ddzZJDwwc0Ba3tG24sy7Ksf6GUopQWCoU3YJgHAM55oVAghCj15l87pmWhwDp72uthGEcRaiPCWCSJMoq6FJAQRGIAAxEUu9PZgt/d116eL5tIGkW0MuhwTZF6LqEgRMwJUg1EKi2kk+aZdm/V+hWGklgkrRVblmVZv8aEENlstjX1DSaTybwBRxZ+WUQCaiTIPS9TKzVMoNAAMNRoXJ8jR5dzSgh2re5wullbX3Fyfr5ajk2ERhMFBhCBgJNyldYp38+m0hSAKINAuvva23vbR2fGG3GDsTfiI9uvj3K5vGXLls2bN2/fvh0A1q5de8sttyzktny0LMs6DpIkeeOPgjPGToJIn/UyKqL79g7HDVg9sHZJ1xJHO7VGNDU3DQjaKGO00Qp5F5T07FhlgrmMGK4Cx2gKiEAJ4cz1fSFFkiRa6TiIjDbtxY5iRwG4rjaqbsoPk7i15je5zZs3b968uTX1FWzatGl0dLQ19Tg6ePDgunXrbr311scff7w1z7Isy3oFhBBj3vSjzypUpemwrdjXqOuMW1zet1KEulxpaCCUEsoJpQBgUBaVKNJMf0c6X0ThcUHRACIxBiiiw6mQMhGyUonDiLhOvljozKU7VUJ9JxvVYo85rTWfvL785S+vXbu22Xq+5ZZbtm/ffv755//whz8EgD179jzxxBO3vKj5uLB58+aWVvWDDz64ZcuWtWvXrl279uKLL77lllvK5XIz64knnmimv6zm9VtT16697rrrmtWdccYZ/3KjlmVZJ5elr2rnzp2tJ/x6SGfzLmPBfJUSE4eVA4efC3UjVfS5S9EoTigh1GgkZ9255vnxA7TiLIN85clKfIhSIiQQzRyecpcs606CRm22Pnmk4prUymWrB5f3QHdtOhgtT9Zq47Wlbad87zs7Wit/83jiiSeuu+661tRF9uzZ0zwol8vnnHNOLpcDgB/96EcHDx686aabPve5z919992f//znb7zxxmeffbZQKDTLPPbYY4888sgHP/jBd7zjHd3d3QMDAwBw44033nHHHTfccMO9994LAB/+8IdvvPHGwcHBbdu2Na9/8ODB1uoBvva1r/30pz/ds2fPyxa46aabAKB5hWZ3/Q033PCRj3zkZT9almUdB9Vqtbu7uzX12Nu5c+fVV18NAENDQ/l8vlKpfP/73y8Wi63lXjQ1NdX8J/3N68Nf+O0j9eeHjwxne1JLenunJ6fRcdOZog5UX3ufkaxWCpNIYDgWsBL4EchyEJUjQpRSWgoFGvLZjMdZvVZWIqJoCNXj00fDeP6Sc9/+tv6VZLI84OS6Um/0aRevbsWKFbf/a+vXr//gBz+48HGh5He/+91cLnfXXXcBwFe+8pXTTz+9efrnP/95APj85z+/bdu2W2+99SMf+ciePXt27dp12223XX/99aeffnozzD/44IN33HHH7bff/pGPfKRQKGzcuPGKK674n//zf+7evbvZSVAoFE5/0de+9rXrrrvu9NNPX7Fixa5duy6//PKWAgua6f/qK1mWZb3hlUqlL37xi62pr6q1If+ihQb9mWeeeeTIkSNHjnzjG9847bTTvvOd77xKmD85NILI5Z5PNEoyPjnJuVObq6KhSKmUyuFcG2OAYjIRwriiUwmtqqHe9mUrB5YuW750yfJsNgfGaCU9l6dSbrEt3d6Vaevyg3j25zsf2bfn+d7u7nVrVnd2dLbW/KayED6ffPLJj3/84x//+MdHRkb6+voWh9KmO++884orrhgYGLjhhhvuuOOOJ554Ytu2bS+Nss2I/tWvfnXt2rWL0//qr/7qgx/8YPOCP/3pT/v6+gDg9NNPX79+ffPp4aXK5XJzxsBHP/rR1rwX7d69e2hoqDXVsizrDaxUKn3605++8sorWzNe1Tve8Y5mIF/sj/7oj1qKff3rX7/sssu+853vfPKTn3z++edbck8ySsI7L3gX05QoCGOZzRbWr1xXLdcM0DCKgCAYwijDLKTatJMXDg/J9MTskdHhqenpRMiVK1b19/eVy/NBUDNaAxit42Jnuneora2vS/tOyGGsMluK6q01vwnt2bPnS1/60m233fZKQXf79u0jIyPXXnstAFx77bXr16//oz/6o4Uh9sWaEb0lzJfL5d27d7/zne8EgOYMvmakB4AlS5YMDw8vLty0fv36er3e7C1oudqCJ554otlF35phWZb1RtUM8//lv/yXdevWtea9qoceeqi1Ob906Z//+Z8vFCiVSn/8x3/c19f31FNPHTly5Ld+67ea/2ifxGQijh4ZbtSE0iSRamJyanx0PKjVASASCSABAgYMzs/PoNIqFHMT9VqVJNJESTw5MXbgwF7X4e3FNpf7SSzjRCH3lDJhEhX7u7pWLquCKBFRToLWmt+EHn744fPOO2/t2rUDAwMbNmxojqMv9pd/+ZfNAs2Pf/ZnfzYyMvLtb3+7pVizkf3SyXHN8fVMJrNwvGLFimbWunXrRkZGWso3OxsGBga2bdt2xRVXtOa96O677waA8847rzXDsizrDelXDvMtbforr7xy4fjMM89sXvlP/uRPbrjhhve+973NTvvrrrvuHe94x8k9WY8Y/dyuZ4ZW9iYmQTRCxVO1OeY4nuM0GoEihDoOAKDgSUNKabQxvutktKJKK2QEGQgZAwAFqiQi8Qi63EvPlCs/+smO3bt2U4NhvXESrFIAgNWrVzdnvY2Oju7atWv37t2Lc5sN+g996EMLKWvXrv3Yxz72jW98oznE3qIZ0V/Jk08+mcvlFh4afvaznw0ODraU2bVrVz6fb0lsMTo6escdd5x33nnNeQBNe/bsWZh/12zxL3QeWJZlvXkNDw/ncrmFpvzdd9+9cNz8x7lYLP71X/91y8D8qaeeuvjjyceIOOWxugx5jrkcvLQLGS6SSIiEOkyoxE+5SkskPqQ6aK69kCis15RSFAgBCoyh1iJsBEoCZymKvuNnBcHV69f/zr//0NKe/rgeUgV4UuyGe+GFF65fv/43f/M33/3ud+fz+ZbQu2LFissvv/zCCy9cnHj99devX7/+xhtvXJic35TL5b7//e8vTgGA5jTUZm/8Pffcs9BML5fLu3bt2rBhw+LCTzzxRLVaveiiixYntiiXy5/+9KcB4LOf/Wxr3ouaLf7TTjutNcOyLOsEKRaLX/nKV/77f//vv+wI+tTU1KmnntpsxD/00ENDQ0Pf/va3mx9vu+22hWK333770qVLN27c+IMf/KDZTnv1ptebnZYiDhsxRDO1mkjiUqUUGBmENS0TgxBGEaHo+C7GkVKghDFKIWceo1QZg4wiIwCmEQTIuFTGT2UIpW854y3FnsI/3X//xMi40SaOEyXf/PsGAzQXqv3DP/zDN77xjUqlcs011yzOWrt27c0337w4penP/uzPqtXqpz71qcWJH/nIR+65554vf/nLi0fxBwYG1q9f/9nPfnbLli0jIyML81C+8pWvVKvVxcv8yuXyTTfdNDg4+Cp98k888cTVV1+9e/fuL33pS680SL9169Y77rjjYx/72OIWv2VZ1gn3qwX7Bx54YM2aNc3jP/7jP/7Od76zbdu2l17hG9/4xkMPPbR169a/+Iu/+PrXv14sFn+FYYI3EWbQCBkEIRDtuYwiyRUyaDQBIBwZRw0KKSBPABOUsdLSUDCgIm0MQYaUa621kYgQRI0gaaBjHnz0J/ft+Iddzz0Ta81cX1Oq3/BbHr4We/bs2b59+9atWz/2sY+df/75r3EB+tq1a2+88cY//uM/Xpx49dVXn3feed/4xjfOOeeczZs3P/jgg830P/uzP8vn8/fcc8+NN964YsWKrVu3XnzxxXfccceXvvSlhRn+27dvv+SSS0ZGRr761a++dFZ/8z43b97cfDK4/fbbXzqEXy6Xt27dumnTps9//vMf/OAHr7/++pYClmVZJ1wz2Df7HV+LUqn00EMP/cZv/Mbzzz//oQ996AMf+MDQ0NAXvvCFv/mbv/n6179eKpUWSv7BH/zBlVdeedlll5XL5dHR0a985Sv/6kInHWIIkSbnpxkhWhOOyDWq0FBCKSX1qEEdyl1G1n04lcgEqrRyGJmilMWJoX4619FVzBfc+dkJGUsRoO93ZDr8dJeeqe/zMW/qXISKSNqdW/7333itf603rAcffPCzn/3sFVdcceWVVy5eWfcr2759+44dOx555JEvfvGLLd3+C8vnNm7c2FLd9u3b77rrrhtvvPGVGuJ79uz51Kc+9bu/+7uXXnrpyz4KAMDFF1+8YcOG5nL81jzLsqxj73XfOef+++8HgL179/7iF7/45Cc/ubiZ/oMf/OAv/uIvXn2HnFdyEuyc85v/z4VzycHOFV17q+Nca4e5iabh0VL/8iW0Pe+A25HvrkzPk8v+65rp6dm54UY0y10gQlQpzzl+rqM7z7IymJ8PyqESmG3ry3elYpxp6DEWp2kjLWNNDe1pW/n333iZWWmWZVnWr6fXPdIfIydBpH/v//POqfreJacM7pkfIUb6jteoRPF03D7QmVvSCwld0bt8dnwGSSoU0sSRX09UqAVSxpTkicr46YjUG6Eg0nGQCjTaoGO4z1wiUCVGAyQgFTkZZuRZlmVZ1ptOKHUEoJD6lGghUh4p+IwRMESAkagURLLdLaBkSb1RA62ljBVoqbQixnE556i00IYYYEgdxoiGIFHVTD6PlGmllVKEIiJprdmyLMuy3tiMMYS86eMX51QZU6lUe7q7HZf19vbkcul83tFGaaKlEo7rHD1yBJnPtFJGRBxBJdJQFgNgigIqkxgwgIwzN+V6jNBKOZitRnVpDKUUCVFaa61ba7Ysy7J+jXHOlXqjL8uSUjrOm/5drL7rK2VqtbqQynHovgMHpudKBk09DglH5rL9h/cPj4/gbHU+DLRJpIPIkCqFkiJxGaEKJTBklLoEXEpEKhOddk4nS3lRLAAAEbXWJ8fOOZZlWdbrhXNeqVRaU99gqtUqffOvHcumMzqWcRjXKzWkzE9nM/lMLRSGQj2qGKqqQWXthnW4as26jqIPEjgwoxmgC5QTxxglSGSYBkaow/2Mi929/PSzlmfSaQNEKaWUIgBIsLVmy7Is69cYY6xSqYyOjoZh2Jr3BhCG4ejoaL1eZ4y15r3Z5HJZLUAmUgrNGOvoKNaDRiMibV35WAU8Tb2sl2vLkbf9v22zPyupcZrEhDqZSGm34A4O5trSbHJkHITDSLufynUsqS4/PepZnbv3nvmZ5wIMqDYaKR1sX3PH1+9prdyyLMv69RZFUa1Wm5+fb8040QqFQj6f9zyvNeNN6LNf+MT3/2mrW8R8b0byGAkpzdZUSAY39M7E5aVdK8PpePXAenLGf+0/fP+YW3WUoMB9CTRVdHoH0/kUju8fZcpPuZ3tPT3962pBelfbQP65n9Hx5xsoWFN3bvnf/0+7ys6yLMuyjrc/uun3dzx2d01U2pbkMaUjEQ52D85NlXTGpPvyrkzte2r4nWdeiKP75uI6KEmAIkXkhDpAKKMNIzUwo4zWyvPJpVe9663nnBMnbjAfMEBCSJIkcRiBHae3LMuyrBNh+MiwiBVFTgl2d3WtW7duZmZ+ZmYuiqKpycmZ6anuruJ8qYQQETRUgdEgAQQn4ALhvj8bhTESwh0gRjOx+8izvzgyvPPpiagUoTLNGXmUUgJv+lUKlmVZlvVm1NnZ2dnR7nJXJGJyYioOYzCaUeAUKRDHYblsLghqmEHPQW4QNApNEk6VxylQOhsFMSPocupiR1+xrMrPHDpSbRjUjBpUSjUn3huwbXrLsizLOgEYZw7n5VJFJopTZ/jI0Vq1ohQQACQkDqIkipMoxrAUgAZCCCAhqJEqP+3FMpFSE0qlQSfljs6OoO/0DqxI57q1IdoYDUZrfRJsO2BZlmVZb1KVarXY1iYFZYCccsYYd1DGgIZ4lMlEeD5DCqgSYIahcVB6qCnlSqWNicNihE5dM+oIBnUVTI028ibDg1ggRlpTwhBRamVsrLcsy7KsE4G4kGCY4ppVaR7SkCRATIZDY6Ym6pViDnJ5ozFA0AaNMYAaHAIcGQDTKHUeXN84Djqen6oH4dOP7547OouJMIiGIAAQggbtrveWZVmWdWIInXCPZTLpvrZ+KilnTBtDNHCGXd1dS5YPemkKjkYAaYg2BDQSg5QzN58uxI1EJYYz1+EuZ45OVFCOqXFQ86iRACABQggiou2/tyzLsqwTwhgwBnw/PTI+Vq5WvHTaEEI4pjKZRhhPzc1Pzc8TRhEpIRSQIUE0iNRxQYIIFWpGCaeEOZQzxRozujpRY9LxqEsNEUJGiUiSRMk3+ubGlmVZlnVyIhDGUVtHR6UWhEni+qlMzjOGMMePlSzXq5ESXjqD2hAKhGtwEClF7rmUUI96npfi3HVdRgF0LD3qJnVdnq5qoQGIBiAECAGwc+8ty7Is60TQWgspi+1tlJMoTmr1hp/KKgP1RiMMY6110IgMAFJKQQM3xjOGcYI+q5TLI0fHxkamhZSO6yKFJEogUtz4RKBOlJSq+WYbo1HbnXMsy7Is64QgoLQ2BgwgoSwME6OJ1gYJcuZEgZiZqUsRY0/PUFd3d39HZ3s24/sUfRBSMuZIAzOl0sjkqNIyaMgkNvVKYhRDaL6RnhgAZZRdT29ZlmVZJ4RSEpAgpV4qVas1CGAcJURR1DjUP9jf25PxfJ0kGIYiEoK7vK09XyzmKAMhY8YddHi2o+hknMm5SaEiiq4UIITRxMQyUVoRQhjjSN70b/2zLMuyrDcpqXUjCnPZvJaaU14tBagIKCiVy+VSPY4jKRKcmpqer5SPzk3NNaodHQUfWaVcBo5O2leM0BRNt6UkIdPTQZwo7riaGIJACL64bY6dfG9ZlmVZJ4bRRmud8lOu49XKNWaMg4wx1gjrbgp7+/MzcxVkiMBpwGA6qVfq9TY/jYixEizl+rlUQmQ9aUgQBonj+rEQQgtDwBjdfEW9seP0lmVZlnUiGGO0NhSoyxwtJNWkmM2D0FqbRhSWarW5SpV6CjOZDFAqfY75tARSnppDhm7KTZSohY2Onva3nLFxcEkPczBKhCZAGCGUAH1h5r1lWZZlWSeEMYYAaK0IkrSfisMk5abQ4MxsqZZwP+f0Lu3qW9qPQT1GQqiWJBGcYjUKhDBGRmnHFDK5oBEdGj5IfdHZxbMeI1KDRKm0Aq0BhAalbZvesizLsk4AJJSAViYhvmmEgYculdRQ3b0ye9r5me6lXhmmVpzThZQ6SivfkCxzkNBKHIWJAiNdIj3CU+m0cSQ4dT+DSVR3AIkhWhulldJGazB2nN6yLMuyTgSiwUglTGw8DQhGEAdcJ41L13W29fqFdtfJOcPV/ShUCCCBENfLaqCRMEJLQASkSovpyujYzMGzzzv96ut+y8mkics1AoJxADkgtT34lmVZlnWCaGOUMdIYQihjPEkSKaXRRkZ0cjhyTNHEXDYANUkIKkR0HT9RGCtDGCFAKXXBo15Kp/Lws92P/eznPw8iUU1CwwDAoDaoDGq7nN6yLMuyTgwDzRVwBAm6jquVieOYcX74yJFarTYxMdPZ1dnWXkCiFSWGEWCUxZEUsXJdF5mjgGkQTlYPrCgi10fHRqjnEWQGjSEAhACCsS+otyzLsqwTRGuFBClQoyCTyUmp4jjJZDJuhntFbIhqaMrZLhcRCAV0mONyapTUUmsl0XFS2ZyRSWjKNCU3rF8pQEut0UAihEItqZHUSARtQ71lWZZlnSgGtDRSyHw2HwZaSpVOp9MFWuhma98yYHgwWRpGlJQbB5XWSSwbdZcyQKSAFDDBOOPRtkI6kImshi5hhJgU85HShGiBAIzq1joty7IsyzoeKKFKKCTIKWOMUwJxHFOH60R25duTchyXdVKN0BgHjZPyUh4HrWKTaI7MdT1KkaGmaOYm5g//4igDRoXIIqWJdtChSIkB0Ma+oN6yLMuyTghKKQUqwlgmymGO73uNRug6Tn9xSTIGjcNKT4OYoKgNlZoBklg2kjhApAwdIIQyyKfcOInjQMUzSZqlfCCdzClSP0e8HHXThDkG0M7IsyzLsqwTQUaxTqSIpYNca8hkMkYbrY2jvPl91erBUE7Cyo6NCI5ruE9dJxShkIKAQ4nrMceICBn0t/Ws6FvFSIY2NG00VFDzY0zH0KZZO3pt1E8hb63ZsizLsqxjDwn6nLfniwiYcr18viCVqlar5flZIxUjkPX9kaMjGGutmWsYbcT1WEupIIqkVrB3375MytMCTMJIzNpS+aHO7qGOrmXd/UsL3UtznX1erp36Ppyc77LL5XLve9/7WlMBtmzZksvlWlMty7Is67gTcbLvufH9e/Y+v3vPc7ufm50raQ3Veh29ZP1ZPdluopxGVZaQIKBrNNVhJBCo5zmFQgY5LRban336F3t/cfDRnzybY7nuvv6OwcFcb7/ble8cGuoeWtazZHBw2UB7R0drzSeLQ4cO7dq1a3HK/Pz89773vcUplmVZlnWiBKFaurJ91foVqzYsW71hdd9gD3N5GEZ+yhufPHp4thIYxX2DDieGBpQaFWuRSKFDxoXSxsu0L102RAVLG68+Hx8ZG3t07/5Hj47sHN/30KE9Dx848PTkkeFwNiEn7ez75cuXf/vb316cctttt33gAx9YnGJZlmVZJ0q+mNaumgsnKnK2Kqs8k0JkYEhQFmByPOfk2zs9L49gtOdQo5RMlOv4vucbAkobg4iMI2HV+YaSOgga9bBRj8Ja1IiVCEQ0MTfz/MF949OTrTWfLK677rpvfetb8/PzCyk333zzf/pP/+lfFbIsy7KsE0SC1kAajYbRslGvMSAZP4VSmxhqpTCKxDnnnrlq1XLUOnE510JpqV3muI7PqKOUIgTCKHJdv62jsznFniJBJGAgjsM4CQmC43nATs5xegDo7+//3d/93dtuu6358Xvf+95FF120dOnS1nKWZVmWdYIkifBcTwkJQnqUdxU7+jp7GDj1EpyydvC553b90z89ia7LXEq0EGgIRYcz1+FeEEYaVJSEQRg3wiQRWhkNCMZIKRRjSKkxxAjQiUxaqz2JXH311Qsd+F/4whc++tGPtpawLMuyrBOEUup7vkykQ7nvuFKIoBYc2n84rMYb163KZXzHhSXLu9FzGKUUlObIGWVIqdZAKWMO08YoDfUg1kANATBKKaW1TkSklAAEYJScvG16ADj33HOXL1/+ve9979FHH21+bC1hWZZlWSeKAZnIbCYbx3GURImI3Vy6kSiRwJKBZXHYECKcnplEAOCMhbWQGCAAvu+FSZzKONxFqZNGFFHqCmGUkkpLMBqRGtN8jR0xGjSctDPymq677rqvfvWr3/zmN//kT/6kNc+yLMuyThyGlCiMQ2GAEEolAk/72uOVRvLkY8+k0ykthccdpIyCAim167icsVhElBKhZRDX0lmPUBoLbQhVxigtjJZGa2MADJgXXm5zku+G+4EPfKBcLu/YseNd73pXa55lWZZlnThGGymVMcaAkUYLMMblLO1FUkWRHh+Zmp6sp30POXeTWOnEIKDrO8zFWlDTkDgeeBmHOax5DQ1KgwQAJJwAMUDAUKIRT/ZIDwC/8zu/s2XLlra2ttYMy7IsyzpxKKWu4xtDldJCi1gnEgy4bqI1d9wwpNl0ppDJoeP5SawZOtoAoDFEeR7jLqSyPIxqSitkjgYwxhhjAAAMNQbBIBgkmqA+OTe+r1arC6Pyn/nMZz7zmc8szvqXcpZlWZZ1ghiKgCilBEOMbgZpcB2nUq443PMchyN2t3cjGBrH0nG8QqGQyaWFiqr1khBhKs3zbVnmsigKtdbGgAGtjVZKGwADQDQQBeYkjfSWZVmW9QanCVGEuH4aEI0xRCoKkHJ9QnByZiaX69AKxkfGkRmYGB09sH9kcnIKgHBkRBLGSCTqWmsiCREKlAKChDrUcTyXIQAAGKM1KGNO8hl5lmVZlvXGxBgFBoooMEYpLYQgSmeY6yIfHZ0IqklUUyImyJI469LOnnRi5P59h2tzcQbaZRIL0qhWJTRIRmGKEMUzIfMFKhcinxCqDKAARxt28o/TW5ZlWdYbkAdakSDBKjGGMO6kfQoqQ5BERoUkLokUzc5ONVDEoZQxclJoy3f3dEuhVCJTKa8eVkvlKmiihZYy0Ro1UANaK4FgkABBY1C/MAHfsizLsqzji4BxXceABABCMIljA+C7HmOYxEREUaHLfdvZq3FgaDBTyBJG0aFREiojDSeJjJWWSiltDFJEShEJJQaAmOboPGhttLbj9JZlWZZ1ghAkFJmIFCiCGuNYSqVZyiOccg8m5ufbetOJmcQj48ORiJwU99M+ctREaqoJh56+bs/1gjDUSAgDBA1aa6WVJoaAQQMECCEEmqP2lmVZlmUdV0JLApjNFo0hWmliIJJSM3TcbBQZvyObiGq91sBIJK7vZ/PZTDYFVGsi3bSrQEeNgBiSSmUIEm00GEMAwIA2RgEY0kQJsZHesizLsk6AXD4DAEE9AkAjJKc8FirS2nGyUcBCbVzXD8IKCq3qYaDAUNcJoygWMkyCYiHvMLdeaSSJSqTQRhPQFIAA6hf2y9PGANEvLrK3LMuyLOv4kko43HF4ShtipEZDtDZhHLleigFPwiTSsruXYiyEBhMnSa3WIIQ6jkuZ4zp+3supSBlJkHIDGrQAJcGAIiCVFlJrBWCA2EhvWZZlWScCUkMBKfMlENAahCSAsUwoA5+iaUQNUct2eAgEXS8FgNVqo1EPCVBCCFFExwAxkbFWimit0RAGBEErg0gdRh1GCGptI71lWZZlnRBShMaoIIyQUQADUhqtgCjfMz6TKhQzM1Od3TmU2iDlSLhIpNbAmeMwX4RqZmSKGYcSbgwYDQQ0EiCEaAKaIDFIAJEA2lV2lmVZlnUiSBGlUynKHMMQiQEtidZGKxcMlZILKgJwWA4d7jquB4BxJJUE0IiEhbVgcnSaaweBK2m0huaqOmOMJqA1AWOMMkQpsHvkWZZlWdaJYJR0GGeuowkgAQqEAgElXOYVvCKp8+o8MOxEpbQxBJFyxhkyGStQIBMNCRoNWpoXXm6jtVZKawPGAIAxANqAIcTYRr1lWZZlnQBKgdYy7afBGEKAAlAgRAExlOkUT1LleecXu2ZRqESDrtWrlWqJEGhvy6VzjtIojSeNASqVkQDGEDAAYICCpiQmkAAAMQ4B1lqzZVmWZVnHnjAaGfWNm6EeIYS5zAfIKNfV1PNdiZyG3tF9E0gZ5ZxSikqK+bm5w0cOxWFNSg3gajAGJIAhBAkhAECAEKOljJSOjTFGIwHaWrNlWZZlWcdeKsWynquDyFNgEhlWayqI43JjdGwMMjSWCca0I9+NBIxREoxO+6n2tkJ3Z1cShUkUKSmNUgSB82YsJwub5CCliAwIAWj+z7Isy7Ks461cThglMgqPHhiRcew4jjHGy3he0UsVXA4gS+Hc6DwWc/lMKgXGKKWIAcYIZ4widV3XdV1jjJQCALTWYKC5JS6lDIAYDQQpot0jz7Isy7KOufHx8fHx8cUpy9b3HpoZOTQ9suK0Zbwt00AV+aTKjeLSAbEk054LnVzDQUapTEQSxc2WPRijlZKJkIkQIlZSamOU0UqpF7bDMyCFVNpoQ5TWtk1vWZZlWcfB7t279+7duzhlcmpyembq3HNPj5MACUGGwihNjHFMgsJJeX6q2JiLkBAkxighjNaUokNZ1AiNUhSREEIp5ZxrrbXWC5HeaEORMcbsXriWZVmWdXyMjY1NTU0tTnnrWzZ2tbczI31KRRgaqYnSiYgqYUO4JNPRnu/qLRR70WWMECKlZIwRAgaM7zkOpwS0klIpRQhxHMfxXILUGEKQceo0F94xxmyT3rIsy7KOgzAMq9Xq4pSJmUlFY0WVJkpTYigRRmtiDKOVRii1OrB3/+HDY2iUFnFCCAAx2phYCCFioxQYaL6uThujjYEX180TAwQBCAAicxz2wnw9y7Isy7KOIaVUkiSLU2br8w0aKB8jDtrjMUJCieFcG8LB4QY63XRQDVEpFccxIWAAkCFB0Eo1t8ohhAAhzX57YwAMAAABeDHFGFB2Rp5lWZZlnRBKSgCltOCMusxBDSTRJFGQEK0xZpEiiSSARmutNRCQSjYn14PSaIwxGnRzO7zW4XiChDFKKRhjyEm98f3YdPL578186FuTV98y9TePVGcadutfy7Is643CYzzNuAojF7mj0NXUVcQRxtWsEYVhSgtPS9AohRRCNPfGQc6QUqW0UkYppY1GQgghAGiMaU7Ja76otvmJMUrpydmmF7H553tnPvlft/9iOA5iAwAPHIw/+Y/lrz0ezAQ23luWZVknnkEMQc5FdeI7CQPgXCNKDSwBPzYKhJ9zvURjkkRKSCmEVtpIqZVSQDQQY4hSRiuDhBEgBMkLzXcCzW4AjaAYAXoSjtOPPJk8dEv1oR1HymEdoPl4A0AIEHhgJLnxZ8FDE6r1HMuyLMs6vojBYi5fLZcYZS9MqzdSSKG1RAQTipTvCQOYiFiD4dRJeT4FohIBQAEYEo7AiKEIiIAvhHpCCBICQCmljkMcB+hJ1Xs/PSIeuq22+/5AxWbf7DCBFwI9AAEChCJBnE3I155L/tPP48dLtnFvWZZlnTAy0inHp1ISRUBqapTnECNUbJQgiiQmm84pztAQQpAKpRIhNACllEhJ4oQKzQyh2oBQDAwzwAwgIQjAkBIDaIBTRvHkadM/+sPG/Vtrs9NSggGASMZgmq/tMwYMoQQQCCPACDAyI8nN+/Xfjdpgb1mWZZ0YRpnxkckoEgCAiFJLKSUhhBDUGkWiGHcQEYXRCoAwyjg3YKI4fvFN9AYJac7I01or3dwPjzS306GIRhsKzRffnAye+Gn4/O5IEJAEJMCLm/8Zo4wxQJAAEsIQGCEckSPhCBzvnSfbplsvZVmWZVnHgdGEGD+XSzcaNd/z/JQPhCgwSmlOOWUuIDqMo9KABBl1OHc5YUQbA0aBUcQooxUYBdog0QQ0AUOJRqLAIFLHcZjrnDS74f7iF6EwEBuTGCMAkmafvQaiDBgDxBBGDCXQjPEOJQ4SB4HjvdWTc06iZVmW9QY31N9PTF1ppbSSWiVCACLnHAwRUhlCpFS5TB5d6nDkII2OBAiFCighlCJBYprD/Qybc/KREkJBE40UkTOgqMnJsxvuXFXHBBIDMUBsTGyMIQTAvHN9+vffXfzkBbkLl3vEpcRj4FJwEBwEjsTBkL0+4xdr16698cYbWxI3b968efNmANi+fXvz4Ni55ZZbLr744q1bt7ZmvK5uueWWhSqaNa5du/ass8665ZZbFsqMjo5efPHFmzZtAoAbb7xx06ZNzePXolwuH+sfyrIs6w3i0KGjfb196bRfqwWcM8aZ0kIrwxjXxigjlda5bB5BaaqBSuMj4waoVBBLKpQjtWfAM+hqwhLNhODaOBI8g1oqgoQw6qZSsRStNb85xWBiYyIwIZjQmIjAaacOfOlz7/rUVZ2/cUr6nSv9T7zN/+oF/jJfEZ+hz4jHiEvBoYS/bm36Rx55pFwuL3zcs2fPrl27msdXXHHFrbfe+i9FX2+jo6N33nnnj3/842uvvXb79u0vjfejo6NbtmzZvHnzxRdfvH379oX07du3b9q0afPmzc3HlNHR0bPOOqv5gPLlL3/5X10CoFwu33vvvddeey0AfPnLX7733nu//e1v79mz50c/+tH4+PjCg86tt976mc98Ztu2bdu3b69UKtu2bdu2bVvLpV5JoVC45JJLFj83WJZlnazCMJ6em/Z8zxBBHQoUGOeGkCSJjRYaTK1eS/tpJEqjARcZNQCxoFKlgRaZ1+akejL5gVx7l5tuQ6fLy+Y1SwvIaZphDkXKKDuZFtPHABGYCCA0JiAQGP0fPnj22zYMLi7T6ZLryJT++x9AvUZcSlxKXATndfsRLr/88vvuu2/h49atW6+44op/VeKYmZqaGhoaah6Pj4+3bK0MAAMDAzfffPOtt9763e9+94YbbmgmPvjggzt27Lj11ltvvfXWz3/+883rbNiwoZly/fXXt1zkvvvu+/CHP9x8ILjjjjtuvfXWgYGBZnj+/Oc//8gjj+zZswcAhoeHe3p6mneybt26lov8X1166aV33nlna6plWdZJx/OdWIixiXFpFDLUWje3sacUjNFxEgMBYwwao0FrkcQijBzKuoptKwYHT125euPqtacuX71qYElvvr03X1zS1tWTLbR7mSzhLlDU4DHucxf0STL5PDYmNBCCCcA0jKkDyJcbmUBCzKPPiBv+Qv3gfuJR4jLivD699wBw9dVXf+tb32oel8vlRx555Morr2x+fOKJJxY6pVua0c3W81lnnfXEE0+Uy+Ubb7zx4osvvvjii7ds2dLsIXjwwQebneRbtmxpXrmlzJ49e2666aZdu3Y1L3XnnXfeeeedr9QH/swzz5x33nnN47/6q7/asmVLoVBYXODUU09d/HGxH/3oR6eddlrzIueff37Lieeff/4zzzzz5S9/edeuXTfddNPmzZsX7qT5fZvFWr7+nj17ml0ImzZteuKJJ5rPDUNDQ6Ojo4svblmWdfJBpLHUju81I70BA4QYpUGDMUYZDUiV0qi0lkY5Lm/vbO/t627vaicOr6tkojQ3PD0xPjtZDmqG0UwhP7h0yfLVK/uGBgvZXNFPp6ljYqHlSbKHTAQQE2gY0zCmBqZi9Hz1ZR5iVIJdhd60l1V3/iT5vT/XDzwOr99+wAMDA0NDQ81wdd99911zzTWtJV6uGQ0AIyMjP//5z08//fSvfOUruVzuxz/+8Y9//OOzzz77v/23/wYAt91225//+Z/v2bPn5ptvBoCXllm7du3nPve5Zlv8+uuvv+aaa6655pqXDhZ8+ctf3rRp01/91V994hOfaKbs3r37u9/97qZNmxZ36T/yyCPNx4gHH3zwX50PMDw83GzEv2xjva+vr1qtXn/99Rs2bPjc5z536623LtzJ5z73uWaZl379L37xi5/97GebKR//+MebxU499dSWdztalmWdfJBxymk6nxUyTmTMHUYZQ4JCajCEMkYZ11phrJJESwVKalmrVSenp/ZPjR6YmxwPK2NhaSwozYjG0crMs8MHnx87Oh1UaNbv6+trz+ZRKpNIBq9b3/WJFYIJjA4AasZUjZnX+uf749ZCAAeens6lC93F/oGOZXSuLr5yp/fs/tZC/wYf+tCH7r77bgD41re+ddlll7VmAzzwwANXXXVVS2v4uuuuax5s3779d37nd5rHl1566T333NMMe1/72tcW4u7Llnktrr/++m3btn3lK1/5+Mc/vtBifsc73rFt27bvfve7N9544+jo6Omnn75t27Yf//jHX/3qVz/72c+2XGFkZKR50NfX9/zzz7fkjo+P53K5lsQWLV+/OZXhi1/84ubNm2+44YYNGzY00zOZzL86zbIs62REGU1l0hoMZSyMIu44BAnjDAwhwJVu7m5LkDDKHY6cKlCJUZEWNM0FVaFJGioJQZOUi2kvADldr+wbH903MlyuVXOpbHu+kASNOAxaa35zCg0EBhpG15sNejA/2Rf+0y/CxWX2PT5z6OlyyvVTrpfxMyt613QX+8LvtrZc/y0uvPDCRx55ZPv27eeff36z+duiUqm0Jr2CQqHQDJzXX3/9Jz7xie9///svncG+UOa1GxgY2LBhw0KL+fTTT29eZ3FicynBhg0bmv0TCwYHX5j3cNppp7VMP2x2BiyMC7ySl379fD7fbNA3teRalmWdxErz1aBei4Jy1vdUbBjzpQZDtaFKEJ0IobQkFJAQVFJJKSUY46AgxiTShCEK4RhArWWciESIRCVCSQXleuPo6NjY5DhQkstnTpbl9BCDCYxugKmDqRpTBjNr9H/5/vQf/q8nR2fqMtbP/GjmZ3eN+q6f9lKe43mO63DenutcMvc692pcc801N95448IIfYuLLrrotttua4mRC6644opvf/vbzePFE/pOP/30P/3TP929e/erlFmsXq+3pDQnATQn0+3atau7u7s5hbDZab9nz57h4eEVK1YslG+2tpvPAQsWhs8HBgY++MEP3nDDDc1rNqcOXH755S/7cLNYy9dfu3Zts5eipdjPfvaz5h1almWdzGKT4pRB7GhZm61xWlDoaRJqGicmolQrGSU6QYpUJkJrTRGVMQq01tq8uNu70UYqlSRSa62bm+UZEErX40QZYC5nr9Nq8hOOeiQiEAFpGKiBqRgzObl36rkdW+/d+b3bDv/zrXNHH6873PUc13Fc13Ud7jjc4Yz39LW1Xuvf5uqrr87n8y0xcsEVV1xxzjnnXH311Zs3b37pQPinP/3parXaHCbfs2fPpz/9aQBoTse75JJLmlPYXrbMYpdddtkdd9zRMiOvXq9fcsklmzdv/vSnP/3FL36xGZL/9E//9K677tq0adOnPvWpr371q4VCYc+ePVu2bNm0adMXv/jF2267bfEVAOCSSy555plnmsfXX39984usXbv26quv7uvre+lc/Zd66df/6le/+pd/+ZebNm3asmVLc3FduVxemBBgWZZ1Ekt5ftBI4kiDVFEQU8pdx/Udl3Puub7DOEcmE0WWvL2dapPPZn2HV2sVqRNKQBtNKBKCUmmptJIaGQVCCFLOuM8cRll7T1eQRGlS2Po//7G18jeh7zxS+/8eqUkAAdCoz1aGn1FJsLG9/zPr35EltBEHYRwFURCJKE6SRAqppFBSKXnu5cvP/3crWy9nvZzR0dFPf/rTr31x/K9m+/bt4+PjH/nIR1ozLMuy3sz++q//GgB+//d/fyHlM//jtw/UHpEykvNsZlKd8tZz5ypzsj6ZRDFlPkPWXminhGK5VJmdLlXmK3EigBClQRvQzRe1IgIhiAQo0cZoAG2MBqMpouci540khpPlDTf//vzse8/MVOuzUwf+ef7Ao52M/eV5H/jiOVd1uCkNhgBBQiiljHKHOZwyThmnfON5gzbMv3YDAwPvec97Xrotz+uoXC7fddddV199dWuGZVnWSSeKRL0WMurmcjmKWC9XGSAFlvGz+VQ246Q5MJCGrDq/j2idcjjjNIjqYRxyhxpjKGOUUm2MMkYpLaUkSAlSxhijTjqTLXa2j09PDOWWbP2bf2it/E3r0L7GYw+Uu6C4stAppEikiOI4EXEk4jhJYhElQiQiEUpku52zrxzsX5lvvYRlWZZlHQMvbdN/5E82HYp+7rukPh5Oj4vBZeu7enpmRvZOj82Vyg0tXIos5TNM4kRJDQakVADo+X7znexK6SQRyhiklCAipQYMQdLc9D6dz0ljhFTmpJmSBwAAy1enP/jR/rMvzhFPKqW1Us3X1oIBggQJIqKX5uf8u6H3f+ZUG+Yty7KsE0hIlUpn50t113ORYhQF+w/snRibTPvpJf3dq1Z0nLq+7y1vWYmAwDgSJECMMtoYorQBIIxxzh0woBbtjUMIAAEDxiAJ40hr3YyDJ5nMMtl7UZJdrjQYow0YQ4AQAES66uziv7t+9Zq3d7SeY1mWZVnHV5JIrUnfQK/QknGYnZ/2fW9gcNDzqCFGKBklcbVRR6UEvDDTXjcDOWhorrsDAAJgjGk220kz0oOhlBIwWklCAPF1XmP2BsHTpu88s/ZqbFuNBoB6pG3QPe8/dm+4pIN7J+dXtizLst5ckjiJYxHFcSafSbQmjGTzWaGkIlqj1qglCAkCAYwxqrmmDpFoLQlBJY0S2miDhFHCwLwwH40AQSCIhABorZSUJ9F7a1+GkyHLfsN5+ydz5/9e2+nXtOW7ndYSlmVZlnWCEKSpTKZcq0ojiIOREOgwwpkhAAhAjSJKE4VIieNyyogxWikthdDaUKQOdxjlRmutFAFCKaWUEmMIIYwiIjFKEa0JOanG6S3LsizrzQIpUs6Z60SJQAbSqEQLyhkw1KiBG8JRU41IgSCRWiZJbKQw2jBCGEUgoJRSUmmtTfNFeABaawCgjGktpUjIix37lmVZlmUdZxRptVTrbO8maBAVglBKIOGEMkMhUTJRQhmNlDEFOtbSgEFiOBihYqGFBiVUgowQBEO0SFQSS60ADTrcQeRCKM5cc1L33luWZVnWG5YSygS0MzukEp2hyJQJK/PpVJFiihLqUJcCNaq5773R0mhppNYawAAiQQIAzShujNEaCCGMMUopY8wAUVobYxDAaBvpLcuyLOsE0Or/z969x9lRXAfiP+dUVXffx9wZvYWQxNN4bKONbcVADDZJyECEyDo/ayXWYaP94bF3Y2KHSI6zWZyYFZuwZJ1YYZ2w3hVj9sfGIYjgNTGDA1o5yJFtgi1jI8BjY556oNe87txHd1fVOb8/ejSMLg+D0cMj1/dzGfetrtt14Q+fW1WnqgA5yVrYblhDsUawLlXaAnphZBYpdsETEURCAAFAQiRCJCIlIiJS7HXPLCJS/I/zXkCstcCCIN6fJOfTB0EQBMHMgqjYwd49+5wDo6skKs9yZaw2DADM7Jzz3hOIFFl1AuBAPLMIFGG++DHgRYrpeVKkIxPFkSYl7AEACDhE+iAIgiA4QdrZxOy55QWndMfaOIetZp7nudZKKUOkiTQzkCKliJAICFk4Z8fCIuK9d8IiiIBaa0BkEefYewEA8EzABHhS7pwTBEEQBD/9mJ2Ksna+b9Wavreee87cuXM1xXlbCHTRRS969qQAvfPsvffeOjc5Go/IIiJQvJhZAESgmKdXSOy9IkWAU88KgiAIguB48uzHJ8YnWofSdMK5tD7W8BYJ4zgukSIkQkREJK2o2D2HiKIoSpISAACRAIEgMwMCgxApRCIipRQRZGlLFY84ufa9D4IgCIKZwnsfm6jd5O8+8n0E7XJrXd5qNay1SmtAcOwFgYzSIoIsdPiwGmYGKQ61UYAIiIiqyMMnpUwUtdP00PDwgQMH0lYrbJwTBEEQBCcEKS1cSptx3yXvf/cFv1yrdQG50fH9SgEAFfP0AETeefHMznvn2DpvrdaaiIrEe4FiK3woBgAQUQSMUrExhOC9Ewmj90EQBEFwAiCCiBFXeuD+7Xdt/julQJhbE81iYXwRuwGARAQFigNsQAQEijDvvXfeMfNkyh0iIBZp+d77Uinp6emOItPZbBAEQRAExwlrbUQUe2inrTg2LvfiDTtFiMXyeGYmAhD2yEKAmpRRyjknIECTg/YiUnTlJ9faEea59d6z91mWhVV2QRAEQXBCkMI0nYhi9D6dM78mkJWiKE+1swqJEFCRRgDybL3LGCxqhaScICnjvENgo4EQEICElCgCIkRtiMUppdh5b31YZBcEQRAEJwSJQWeUU1mbRlvDOvIVn4BDaz0qE0UJONGoCYAFRVAExIsIKgFAEEQAYARRQsziHCOiihQg2zzz1h4e2A8peUEQBEFwAqBQhMa1bLuRn37O4tPPWCTtPDFUb46BQkFAAvFCzotHAFLes2UvIMyMREgoRcK9QiAUBFCkjRYEntpWT6Q42D4IgiAIguOsVIqca2dZc7w+kpQMi1URtvMJK5mKCQ2YkgHFZL33zE7YAVtmL8IgAICEgiCHe/eklSAwgvP+cJJekdT3M9qnz1vy/HfSb/9N/ZlvpJ33giAIguDYazTGhDNtpN1uxknU1V1G5U2MmW8x+WLq3bElBvFQLKiDyWn5yW3vJ7PzBcQLF+fcgcKcvYiwZ/a+2Hyns+WTV/0QP7ql/Y8D9b/9xMEvfPTgg381/sOt6bc+P77nkRDsgyAIguOtXCqZSANAHEf79x9ottsmUu3MZmmmSRtNCESAxIyTW+YQEhG8OCwPU2GcAax3QKCjqFhgX/wEgGJh3skra8nz38+/80D7nv829t+vOfD//d7Br3+h/qPt7dYwKwRVzGwAjPzAdn4yCIIgCI4xES6VyiDEor2nUxYuFsBK1TQbGTERK3CAnkirIlqRsIAIChTn1ohnVWyVw0JIxhhtDHvOrBURhURE4rycdPvepy35/rfTr/z1xO3/ZezPfuvAHTeNfvUL9We+k7uWaASFoBAVgALQiEpEIYw+GSJ9EARBcLw5ZiGVWtdO+cD+sRf2jgJEIojMtpGXVQUdKibKc4dACAQe0At6VoDEQALiWTyLCCIUW94jomdGQO+9cw4RizGAmW7kEG/7h9ad/7N+0+8evOHfH7jjv40//ED7+e9nGrGI6wSiAAhAISgQhUDACoAQFKBvhk0FgiAIguMtc5a0ImUEdO5Ud/f8OKpYJ+LRtRwxVqPyvFnzCFhQABiQRTwjC/Hh/fIOr78TFvasiATEWgsgRISIzJPz+zPa3f97YsO1B+/564kdX2vXhw9HdBANQCAEMjVQr2HyQgFoQAIpVWj+m83y3+7pfGgQBEEQHGOk0YFHpXPHaWoFlTGJCBjSaZoqUmNjY9975PukSKEAiSggg2QAxHtkQRbwXliAhYokeyQAZPbeeRFRJ8uRtdv+oTVt0l0IQAMqxMMRHQhAEypEQlAASRmXvjN5+we63vN7s1bcPO+C35tVWxJ2BQ6CIAiOt7bN0IBl51nynJuNljFRksSMcuDQgd17nvfizu5dTAQolsV6EtFIwlzsdCves/PAgjC5Ez4hgDB79sw+t3mWT+boz3Ar3tFTzLtPzb4TiAIpxuoJUSPU5uCyvtJ7+mvv/6/z/tVn51/4291v+pXyvN6o81lBEARBcLxEEQqxKWnr8nbWajQbAqIUofLWp7Pmzp63aD4bxrPe1e2cZWFUSpFi7wkYQAABgZAMgwKtMdLdc3pE+9GxkVIO0LY2t17kjMVvvedvvtrZ+IzitpSEhRmKlxy+YIaXKfew9wX2RbmAZ2CWuFvO7INT3/mGRjh6e3s/8IEPXH/99dML+/v7AWBgYGBwcPCLX/ziwMDA9LtH16ZNmzZv3vyhD33oyiuv7Lx3WFFn165dS5Ys+exnP9vb29vb2zs0NLR79+5f+ZVfGRoa6vzAK9i0aRMAfPjDH+68EQRBELyCv/zLvwSAj370o1Ml7/vwe8do/2g7dy2ulc1bzzqzPdp4etfzzVYmoHrfco7z+URznERyRBQkD5ATZoSevICIAAOJkAiCoCFSIq6diWWf5pJ58qiQCOiILzITCYhAsd1fcXH4JVPl024JHy6f/AhgawSf+NJRyEzcvn372NjY1NuhoaGdO3cW1ytXrjymYX737t2bN2/esmXLlVdeOTg4eOedd3bWANiwYcPevXvvuuuuoaGh2267bf/+/VO3Fi9e/NrDfBAEQXBUJIA1ldS6qhoY2uQz3z0ntu0WeUTHubWe2JMQetYiRkSxKBZd7I5HKERABESkEEUMKYOknRjHkjvwTqFoETXzR+8npyCODPZHRvfDL54sL3YTOFwoImBbnY/9CVx++eX333//1Ns777xz5cqVR9Q4Zvbv37906dLieu/evfV6vaPCjh07Hn300euvv76np6cI7RdffHFHnSAIguB46kqi1ngrgtiomD2mLV+rzMoz7x075nqjQZp0bKgrKlVMVDWmRDoBMAIKkAiJSBCZBDXqSFXK5QiJ2xmmuRKJIlOtlOfM6qlWyp0tzzQvxuzpPfXD4X/6L4BiSyERYJ6sORn65ejs/r969epbb721uB4bG9u+ffsVV1xRvN2xY0cxkg8Ag4ODq1at6u/v37BhQzHCv3HjxvPOO2/Hjh1jY2MbNmzo6+vr6+tbv359MUKwbdu2vr6+3t7e9evXF0/uqDM0NHTjjTfu3LmzeNTmzZs3b9481Vzha1/72po1a6aXdOjt7Z26GBwc7O/vP++88zZu3FgUDg0NFd951apVRcnevXvXr1/f19fX399ffM+NGzcWFaZKNm3atHHjxg0bNpx33nmbNm0qHtvX1zc4ODj136T41HnnnVcUBkEQ/Ox405lnphNNTQY9iVCjZYFiFC2CAtBKW4gKAEkypzzHqCpKV5XuMkYzRogKBJAFBBCVUVoTCCukBbPmnHHG6aefefppZ5x2xhmnz5kzp7PlmaY9UcTw6WG+iOsv/gjg6T8FAKbVP5ySeDRC/eLFi5cuXbpjxw4AuP/++182sm7btm3r1q0DAwMDAwNTk/q7du16+OGHly9ffvPNN9dqtS1btmzZsuX888+/4YYbAOD222+/6aabhoaGPvOZzwDAS+v09vZed911y5YtGxgYWLdu3Zo1a9asWdMxWfDYY4+dffbZ00te3cDAwAMPPHDfffft2LFj9+7dn/zkJ2+++eaBgYG77767qPDoo49+6lOf2rJlCwB8/etfB4B169YVFc4999ypsY3HHnvs+uuvf+CBBzZt2vTDH/5wYGDgtttuK37iAMDOnTtXrFgxMDBw++23b9iwYfrcRxAEwUlv+OA+FI5NxCy5QCNNx+pNE8WoNCid5zkSISLVKpVZXd2zqrVaqZRoHYF0aVPVcdlECalIK61Ja4riSBA8s4ojL368Mb7v0L49+/eO1Wf8/7e2GjC8T4b38fA+PrSPD+7jg/v4wD55+FH/8E7/z4/5h3YWL/eNx/w3HvdPH5SnD8rTB/mpg/z0AXnqgPzogPzowBtKx5uydu3ae++9FwBuvfXWFStWdN4GePDBB9/3vvcVQ+hTrrrqquJicHDw6quvLq4vu+yy++67DwDOPffcW265Zdu2ba9S58fq7u7+0Y9+1Fn6CopJh56enjVr1nznO9/53ve+d9FFFy1evHh6nV/91V8t/i0uuOCCvXv3Fj9i1q9f39/ff999901NH1xwwQXFo5YtW/be9763+D00dXfZsmXFWEJvb++yZcueeuqp6U0EQRCc3FLbAgKbZVqTR5+CH0/TpFIiAhFJUwsApBSddeZZb37zm9927lve+ra3nH32WWeefsaCnrkxKkjzmChRStjFsVFGtbJ22+dj7eaB8dGD4yOjjfqBsZF6q9HZ8kwjAsIv6bgXg/fTZ+UnNxOa/Dt18eJgwNFw8cUXb9++fXBw8KWhsTA+Pt5Z9Ap6enpqtVrRV77mmmvuueeeqZHzl9b5sS655JIHHnigs/THaTQaU39f3e7du//4j/94/fr1AwMDLzuY8WOFDn0QBD9rck51bK1tkRIw0OKsnjdVrFFhbnNrHSIJMz2/d8+Tzz79g2ee3rV/b9vlSbXypnPOedc7fv7nzl02b9bs2FApioxWqCC1mWj0JDk7T5Cxt+KPTk/2xJIjpup5cvYdjxy3L44FmKp8xID/5G+Co2TNmjUbNmyYmqHvcMkll9x+++2vFNVWrlx52223FdfTE/qWL1/+qU996vHHH3+VOtO9NDavXLmymOB/paanKyYgxsbG7rvvvhUrVlx44YV33HHH7t27O+tN02g0arXa4sWLx8bGHnrooc7br2Dnzp3F9xkaGqrX68uXL++sEQRBcPJadPqcM960aPTQ/nKiAL1oaLvMQe69jaMYxLearXKpTE2bjmfN4cbYC8MHn96z64fPPfPtnd/9/lM/dMCnLV1y+pKlc2pdsVJZs5lnKSkCwtRZL+y99yKoVGfLM81UD/5w2l0R0V9cSjf9xQDCIADMUHxkMmuv86k/udWrV3d3d79S0Fq5cuUFF1ywevXq/v7+qQH5Kddee229Xi+y7YaGhq699loAKNLxLr300mJ6+2XrTLdixYo77rijIyOvmHoHgEsvvbRYRl+siX9ZX/va11atWrV69erf/d3fXbx48eLFiz/96U9fffXV/f39r/Sp3t7eiy66qK+v7+Mf/3h3d3fn7VewZMmSj3/84/39/R/72Mc++9nPdt4OgiA4qVVmlQ8eHIsAY0CfZ5GJlDFxbJxzSogA03Y7MjGe++5ZQqiNYQAvjABicxSplEpzZ8/p7u4mrYdHRw+MDNdbTR3HQOSzTAHYPEfUZy9etvnzX+lsfEb5v/8letMcYC62wZm6kGf2S1FS7JNz+BqKbYInK8tkBWFY/zdHMdzPYMVeOp2lx8COHTtuueWWY7rNQBAEwU+Pl+6c81df/Lf/cN+9eaNWq/YMHTw0xi6J1aJSafzgRKvtPdl5p8497Yyl1PI2Q26zb7FretcU1wCXaRjLmk89/+yevXvBuVnValmZhHSiI2IhEfAenLg8t/mMP7D1+wf4S4/zl544/Po+f+n7/kvf5+8ckkcOySOH+LvD8siwfHekePF3D/H3huXRYfnesHz3EH/3EH/3kDxyKIT5IAiC4LhCBZGKFs9f1BoeT8TMKnfP7ZlbjcsRaUJkz43xCWAhj+K8d8IF7xxqkzpnEaNy2TIP1+sURXEpERYSYWvBs7AAIiHi0Ry3PjFeTKk7PCV/xAR8Rzre1Er66XcPD/sHQRAEwXHTTJvzF88dnWiaJC7pCDIHXsQjMyOhIpWlGXsmQiIkZI/ea+EIiByTKMIoE2h4sTqacG4sbWOsGRmQSSsW5GKSfuafTz+VUnfEhUzukjPt7YsJ+YeryfRddILC8Rm6L9IMw9B9EAQ/y5o+H+YsTXSWKEKMEb1re/aiVJudBUlzttYTCzN7dh5EFJImQgEEABbvGJQCrSaarXqrObUVrHe+OK82d9ax72x5pjkyzE/m2BeB+8h1d4c7/YeD/ZHZ+J2PDYIgCIKjSCkVRUecoRpHlXoDTZyccdaZJlIC3nrLiECIRT9cIGtnxMyeGRGNMVprYTFax9ogoohopZRS7TR13iutBICIJoftAYkU4Yw/4SZKXozWU7n3zCCC0yP6EaP6098CiMDchSHUB0EQBMdQqVTq2AFl93MHtfLDh/a10wYa8JI7zlWktNGKUAMiQLvVIkVKEYmIc46ZEVE8AwsJGGPiJCFSaZYCAAPkzrKIiHgvzIJIOPMj/cXv5+psEAEWeXH5HEy+fTGcTxvY7+jrl8qyam3nY4MgCILgKDr11FMXLFgwvSSKKrVaqdkc3btnj9IAGhDRCgMhCYAIMbSbTTztggoRoUzuBqNJiWdUColMksyaM6dcrjy/+zmbpVorZ3NNmDfzYszeg5y9+Ny//8LMPp8+CIIgCH76FRuHL1q0aKrkmj+7YiR9cvf3D82tzc887T50SIyumJrxODY8al1une3pqREAAKJSChGFxTlXjM5HcUyIhJRmqXNORIQZAcVPpumLCBGdBKP3QRAEQfDTb9GiRdPDPAAYHVcqURL7PG/nPiNNBMY7jKJyOYniKColkfdCUKShMSMiKVJKKaW8Z++9jkypUsmtzawloshEsdbsHXtGRCICmPGJ90EQBEEwQzVbze7u8qJTZon4UqXCIuCRMCbSXdWucrnUVevq6emiIsx77733RWc9t1ZppbRWxgBCmudKKa01gLDz6BiBiDSiKiawgyAIgiA4/tptV6lWjIa87dMsi6JYPBfhfLReHxkZHR0ZazabxeY3RwBCZbQQklY6ipCw6PXbdmrTDFmKDL5iGKCz2SAIgiAIjgub49h4O0lKBElSrnphQ6Q0CLEgC4oAW2tJihRzAKWU0ZqIlNE5e2V0Ui43Ws0XXtgHQCaKIhNppRUpkMmpeiIimvEn3ARBEATBTJTncOhA3bZ9nuZE2kSa2VmbijgkAhTnJc8zKpbGF7P13ntrLZFiFmbO89w5iwRZOxXn2QsAKKWV0lEUmcgUaXqdLQdBEARBcOwhRJzHiGXnuLtWSSINxYpxpHK5YiIjAkBA6B0BIzCI994iguRiRPnMl+LY5XmiaE53NVbaaJ2UypmIB2ARRpSTYNf7IAiCIJiZVOabB/0///MzXudp+wWtLMUV1lHuUShC0eVEu8wTAAgLACCi0lprzcxa6TiOxXuXpwiAAOLZW2cdAyqlNGlFiAxweJuZIAiCIAiOK/SeLfXMnpd5Wy4ro9CybbdSUtp7YZHcOqOQSCtShIiAKCJF5EZAE0cAkOc5AmCxI3yRhVfs/j45uR+W2QVBEATBicEiQNAzp+e0MxZlWXbqolMiBWBtuzEBwnFkEBAAiGUyJ08AhBCIkMgLx3FMpFzuELDYQY+IAKA420YhFUvvQkZeEARBEJwQ3rkst0m5FCeler05PjomNquVknIUKS0s7JwgIgEqVBpICaJncF5QKVQURRELW5srpQDBe1/04j1z0ZUv9tgJ6+yCIAiC4IRgAEaMkmS83kLQbD3brDE6Mj46bH0OCJHRjpEcs/OeRURAEWmlivX0xpg8zz2zIkWA7Dx7X2yCa7PcOSfeI0sxMhAEQRAEwXHmPU9MNIaHh8uleGx0XBElEc2bM6taTSqVChF5Zpt7Qir2tZ3cPoeZrffFCTetVktN3gMCnNruvmiAWUQkxPkgCIIgOCF0ZKz1E/V6s9UEoXKpPG/+7Cxve+8AGRFBlAAReEYWZAEWREQiJNRaO+estczFkfYwuVuO9yKCSITI7J1zxWB+EARBEATHGbM4x42JCfDgrWTtTMRpo1g8AEempFRkdFwcMI8ARfI9KkCllTY6t9bmFgAI0TvvvWfnhQWKfvxk/r3A4S5+EARBEATHk9JRpKJIxYqRPKVp7tiJBsfee09E3guAJgCcjNcCBIiISmlSKrO5Z4+ACDh5Ri1CcYQdIsDhHwgnq1v3ym88kV7yvcYvfu/Qxd87ePHOPb/8xI9+9YdP/MYz3//j/U8f9FnnB4IgCILg+Kp01bSKNWoSRFB5nlu2olBQmEGRRtQsSOw8iAALCCAgISkiAMizzHtPiMzimaf67sWmuey9THXrTy5fPECXPgJ/s4/3Zt6yZQFGK8DOa8d0yLp/bu3/yL6v/cHwPw1zq/PDQRAEQXD8iGd21oFQtdxVqXQl5bKKEw9oc6eUiqJIWAhIOQYWKHr2RBoIWFyepeAFgQTAexalPeDkubYgXsQ7RgbxJ9U8/W8+pv9qNzhhRleMWTB4APDiBZiFRdizEcHn3fDvjX3xW/nTnY8IgiAIguMijgUS1wRokdFJtOv5vRMTKZNCNL7tCQExUyojQQRERgSaHI8XFBHx3hGiAnTWoVKAWKyjn56oDyfXNP3ax/SenAWYwQl4BivAAODYi4AAs5AAAeS5jTwLof2f7X/8e/v1zgcFQRAEwbEXRwSKJTK5gE6SBafMnTN3vooNkGbPxuju7kp3T0Le+6kReAEAEUIUZpdbIiIi51yxNR7z5Hr6qWPpiQiJjmh2xlr7WLwnm8w1nPzFA96j9WCLHQdZJvcTzF0MAADkvALwD/qvfZd3dj4uCIIgCI6xnq5apLVW5B0770WkPjZK4LXCPM/TtJ1lWWOiRSDCnqXIqwcAxCSO2XtnLYggIiIhYtGJPzwxjwDCxSb4J0VW3t0H9O6smL4QBp+1W+1607YdAAtYAQcAIiiMwoLgNDW9Y01ZrMYQGl90d3U+MQiCIAiOsazV6orjZr2RttrOeWtdu91E8EReGc0gmbXWMyHS1BA8ImqtjY6EodgBXwSIiFmKznyRqF/0/lmEmUVOhnn6z+3WgpC10v1PPPvcgzv3PvzMgUf2Hnh4z4Gv7W0MNXwbAEAErI+dN8zgPAh7Z8Xm3jufycgD/v90PjQIgiAIjiWxeSXS3eUSArZbGSLFcaxIEMU6JyLamKSUHJ6cBwAApRRpRaiEQWtDqMQLMGRZbm2xTY5w0fUHOGm2x7t1j/ECh57a++xDQ/Vh65PZUJoNldnQNVfKc9MxM/rwSPOpJgAY1VCUIoIIaWoLW+8BANj5h903Op8bBEEQBMeUc2WjsnZTBLSOal09CNBq1uPIACEixnHsPZMwE2IxPs8iSAQiWbuNLOy99z7Pc5vlxWZ5xSQ9gzAIETEz4Iyfp7/7uWzfD54/+PyIJDUxZVCxqBgoFopBlyXphurs9AXferoOwiKocYJdWzgTzsXn7HMAqLv9nc99nXp7ezds2NBR2N/f39/fDwCDg4PFxbGzadOmvr6+O++8s/MGAADs2LGjd5odO3Z0VDjWXy8IgiDoUB8fSyLqrlZQAEA3mikRgeQgLjGRtb7Yt56K3e4AQBmtjEZE8MzOe+9BADyLZyIqTq4jIlQEiN4zM6MipWZ8pB8Zt4d2j4sqCRkBYkERLDYDZKBS1vp3b5/3H37xjGhE5y2DXAc/TuiZib0n8t6jcwLiO5/7+m3fvn1sbGzq7dDQ0M6dk7l+K1euHBgYeLHq0bZ79+7Nmzdv2bLlyiuvHBwcfNl4f+GFFw4dtnz58s7bQRAEwfEVGTW7p1KtlESoXm/lORsysVYEAiDeeYWKgAgBiqQ7FgEArTUzCwsKiPeHd78/PDlfbLEjUKTfF8MAnS3PNCMHG0KxADGDsEiRlMDA1prHv/XYvz/r95dXP3Ru7dsfehtNNBE8IhscFTemsJ1l4Kx4mzt7FCYzLr/88vvvv3/q7Z133rly5cojahwz+/fvX7p0aXG9d+/eer3eWSMIgiD4KdPTXemulomYPecOstQbbcpxKVKqlMRFWGIGQgBFRETAIgAmMs4VR9EjeykOqgUojqRHACyW4pEi0kpEJjP2Z7I8ZUEUQWFhAT4c7N2Of/qd95w6veY5pUThGHtv8xS5laUZ+DbbhnOKj8b+uKtXr7711luL67Gxse3bt19xxRXF2x07dkwNjw8ODq5ataq/v78Y7e/v79+4ceN55523Y8eOsbGxDRs29PX19fX1rV+/vhgh2LZtW19fX29v7/r164snd9QZGhq68cYbd+7cWTxq8+bNmzdvfi2j8cWAf39//+Dg4FThxo0bpwqnHrJp06ZVq1atWrXqpTMUQRAEwU9Ga8jyVq3apU0sHurjjbSdVZISAYpnEDFaExEhYjGAb7SOo4iI8jwX5qLLXiTkTy2gn3J4ud3JYGKsLcVuQcV6eQZm4V0/kmZdGzO95oVnErgJ5feRtLwX4Ay4IT4Tbla5Or3mT2bx4sVLly4tpsDvv//+NWvWdNYA2LZt29atWwcGBgYGBq6//vqicNeuXQ8//PDy5ctvvvnmWq22ZcuWLVu2nH/++TfccAMA3H777TfddNPQ0NBnPvMZAHhpnd7e3uuuu27ZsmUDAwPr1q1bs2bNmjVrXjpZ8PWvf31qnr74wfHQQw9t2bJlYGCg0WgUdQYHBx977LGOwm3btu3du/fuu+++++67a7Xay04NBEEQBK9XpVqxNhVwAuIZoriMTOJ8EkfVrqrWupSUjY6IEYQQFZHRcSkBwDzPp++lo7We3FSHEBBEBJAYCRCV0kqpzpZnGoFiHb0c/ivCILueRNJPvjAxveY/HPohcFs4R5kAYZSm+FRE2Nlfr35wes2f2Nq1a++9914AuPXWW1esWNF5G+DBBx983/ve19PTM73wqquuKi4GBwevvvrq4vqyyy677777AODcc8+95ZZbtm3b9ip1Xovp8/QAsHXr1rVr1xa3LrvssuLi29/+9ksL77nnnkcffbTILnzssceq1aPwqygIgiBYMGt2T4kODe+eO7cSa4yAtUIVlVo2P3ho38FDwxONcRAmIFJKkdZIpI0RkHa7zczAggDMrJUGAGEvwk68Z2e9EwbP4A9n881oCqgYoWAWZmAWGDuEzKDMfY/snaq2c2L/eL4XISdoeQ/Eh4ofCTbzF5R+6efL7znioT+piy++ePv27YODgxdddNHixYs7bwOMj493Fr2Cnp6eWq0GAOvWrbvmmmvuueeeVatWvVKdn8D0bzLVfX/++edfWggAH/zgB4txiIGBgeOWfBAEQXBy4zRX0mLVFkjFtbNWo9VsTOTOIfTM6arNSqLEoAKaGpk3kSFFWZ4rxEhphQgsyALMGlGTUkjlOKmWK0kUx5oihRpBvWRgf8ZZ3KWEi/kImOzQt+qABKTqLdv/l5ML5Zd1LfjAwrcnmDELcMYMwHlVun570TVXz7um86FvwJo1azZs2DA1Q9/hkksuuf3226en6E+3cuXK2267rbientC3fPnyT33qU48//vir1JluepB+JZdeeuk999xTXH/lK195lcJLLrnk85///Ct95yAIguAnM95KD4xNdM2pqTg25XJUrgiparUWRZEQeBDLThtNKCzApJAImH2atQlRnHNZpkQ0InhvkBQgsZBjdF4LaCKDFGFxWP3M9utvKRW74E4O4IuIICAhAAD+wyN7PnHbt4qaH1p84Zff+YmvLN9w7zv/6//5uc/+7VsH/vs5nz2/68KOB75Bq1ev7u7ufqVlbCtXrrzgggtWr17d398/NSA/5dprr63X60W23dDQ0LXXXgsARTrepZdeWmTDvWyd6VasWHHHHXe8NCNv+jz9jh07rrzyyiVLlvT19a1atWrRokVFnZctXLly5UUXXXTppZf29/evX79+9+7dRzw3CIIg+IkcHG8cyrJcQS6eklLbc+oYUVvHQGgi47w3UYRnLq96lLhcKlcrSaU8PjbO423JHbNPTGyttdYWk/FKKQ8CAB4ECUTQKHXG0nM3/3+TXbeZa/af7vIsiAgIiKgnDujnHiNtAE1xtt9p88qbf/+XT51T7vwkwJe/+dSv/cJZnaUBwI4dO2655ZaXZvYFQRAER8XHN6x6rv3QvizX/pS8HY/u31+J3ILTTq1P1JMobjXytJElOlGnndmlFUVKlyolY3R9fAwyW0mS7lrX7J7ZXZVKKUm00nEcVatVRRSZqNZViSMt7Nn5ntrcNe+fzMCaubpi+r9PpQCAxdbAyuiDz4NSiFSsLxxvZrfeP/SFrz75rR8eODjefuSpQ4/86OBNf/utT37+61/+xlNnL+p+85LZnQ/9mfdnf/Zn73jHO15pcCIIgiB4g+7bfvcI7euaOyudYOtVmqYEDpCRUJsoS22r2a4mZfyVFWc54Yx9qavCig7u2w+ZnT933uye2Y36BAIWZ9XqyFS7urxnUFQuxyyu0Wg89+yuUxecc+f/fnGzl5nrooF9j+7PsdhICCF+7ruqVUcygIACIFwcZgciANOuhd+0qHvrn63ufNzPsE2bNj300EPPP//85Zdfvm7dus7bQRAEwVHyO3/6Gz9sf+0t/+Itjz74jNCc3c+/UFG+Wo0wMoBKLI2P1GdXevDqD/0io4w1Gm2bNtrt0bExcK67WkuiuNlo5lkmLJ5BmKMkQaXiUlLtKhuj4jhpN1qze5b+j5v/trPxmenn/vveZ0ZdEezJZ8mPHiZAQIXwipH+tPnVf9r4MqvegyAIguBY+80/+rX95nvnnHnqcw+9wMmpTz27N3KtItJblsRUxw+OdZdrtPfA/naalUrlUrnKAtY6QfTIE2kzddl4s9GyuRV2KJZ95l0ry4bHxp7ds+fJp5/ee3B/K007W56xvveRRf9iQSQCIMIqzs5YzkggbupU3w5vO31OCPNBEATBidJqZeLQNZqxdZTbxEQkyqUOPdgsN0oZY0CE9hw89MKh4Uyk0lUzSckjWPFM7NHn7C2wQ8l8Zpkz8amzjbTdzDLrOfeceddO250tz2Tb+xfe1DdLIYKIj8rpm873pdrhYP9ivNeKrv8353/lT953xIeDIAiC4DjyVrrKpZ8765x3nv2WMkRdUZeW2OdIoJgZABSic44aPh9u1kcnxps2cyAqjlQS5cy5cNtmotAjo1FegWXvhB341OaiVMbOAsjMX2XX4Zp3dY38wZJ1v1A7o1shUXraz7XPfpedv9TOP50WLq2e9aZrrjj3mf/1m/2/+tbOTwZBEATBcRRFJZ/yc99/5j1vP69MpVJUFWskJwKtkIoXO49nXjwviuJarVatVA4eODg+NlapGJ/n3kmz0VDKMLPRMSpCRPbC4q33lWrFO6e1PvuUt9z1+de6nWoQBEEQBEfLBz7xa6727LKF83/lTZfc/Nf3NbG0/7nnBbLS/KSe1U+Zu7A+PJG1MnIAXiMbbGZZnvtYl8iiES05RxSjR2QiIYMaPSALAWgAn2bEAt5RscFMEARBEATHl5bUID7yo12P7N2DiS5FUIoVgzQbbUSd55k2BCjFAfWiFE2MjaWNlmYADza3Ns+984SklUYk9p69F2YCJCQBKM6CmTZ5HQRBEATB8eOY8lw3GumwHS73uN17dtazESfORHFXtYaAxhgQoFhFidJo/dih4eGDEwdeGPXes7BSSiklIuzZe4+IRAQAxXn1AiIggECKOlsOgiAIguDYQ1V2Lu6u9jx/8Kl5p6i46ucsrppS5BwTUZpZAWAUIgBDihCr5crCubX587uN0cWJ9cU5dUoRIvrDAJG0AgDA4jx37mw5CIIgCIJjz0vUmpAzTjtruF4XbMQxqJgbaZrljhmUViYyxmgSBB1F1lshIK201nI4fhMRgBSH3TEXo/VSLC5nRCBCPbl7bBAEQRAExxl6ydpu6amnJ1qItPdePMWmxCztVts5l6WpUkSgSMeRY7bWOWEB8N4pUsYYrbXWpjjeRkQQUSkFCN47IkREY0xkos6WgyAIgiA49ogd29RaVmns23FsqmVVi3TiveTWnv2mNwlIvdEkNCQI1jsGQYVC4L0vevDeewAgUsUMfTGYj1h08ievVTGSHwRBEATB8WWAkfN9LxyI8truZxpdpVMMl/LMJnFSr9f37HlBGTNrVo2UUrnL2lnKIIDi2RcRfeqvCBdBnZmZGQGN1uKdJiABRSEjLwiCIAhOAEI2JPv27e898y1KKqcsPFO86unpzl3W09PTbrWIsJ2lpJHYMzhPAOgFBYo+++EwP+mIRwsgAAGytyfdFnlBEARBMDMwAKIaG6kvWHSqiaLunm6PLi4TIrcmGlmWWedmzZpFRinFAp6NIgVELEXfveC9d25yMB8REbEY1TeoSMAYM/WzIAiCIAiC48kKeA9ps/WdJ767d+9z33r4a02eoIhNpEQkjmPvnFKKDCnOrM0yEiCWPE0RECZfk4qUe0RURMDCTjQpAKiWK3iKOZoAAP+rSURBVFqFefogCIIgOAG8EKMWkdHmGGO7UlWNdKTSVdZaGWXyLO+ePYe0JhFpt3ODETCiAlAoDMAIjMCAAuwciDdKa1IiAgwE5HJOokgr0jrM0wdBEATBCYG5BQ8QA2jGeT1dkbOYGmNLZNFm3jood/cQAIoAMAALC4twkXpfHHhXIEDnnHdOPDMzAGljTBTFkQ5j90EQBEFwQrg8b7XbExPt0eGRUjleuHDe0iVLWo20FJXAQZ7a+kSDRUgApva/K7xsIl4xVV9ce++K8XwiCnvkBUEQBMEJkecZkcQlTYZAkSecf8q80fGDcRJpo73342NjNrPknXeuiNwgDMVWeFNr6or8O2Yu9r3XWiuljImSOCYiRcY739lyEARBEATHXk9PV7Va0rFywt1zZz/2wydGG6OCPveZAJgo0ahRhCZ3swcgosnUeuHJo+oAAIvDbAAQGcSzFwBr7dSnnA99+qOjt7d3w4YNHYX9/f39/f0AMDg4WFwcO5s2berr67vzzjs7bxxWVOjt7e3v7x8bG+u8HQRBEBxfkVEiXkSssC4nqcta6UQrHW2266YUM3sC4NyR9x5EiJRSamrJHBIiISCS0kgKEFjYOWedY2GlSGujtQGE6dP5J4fbGvF793W9/eFXfL13X9dtjbjzY0fD9u3bp0fQoaGhnTt3FtcrV64cGBh4serRtnv37s2bN2/ZsuXKK68cHBx8abwfHBx86KGH7rrrrqGhoWuuueapp54CgI0bN+7YsaOjZhAEQXCciIh4HZmWyymJVMk02/UowWp3WRnj2BU1yFpHpJVSiMTMxfh88QRrLQA454q3WmutNSIqrUUEkZz1hCdb7v1tjQgARvdmr/Symfufh45JJuLll19+//33T7298847V65ceUSNY2b//v1Lly4trvfu3Vuv1zsq7N2799xzz+3p6QGA5cuXL1++HAAee+yxjmpBEATBcSPsDZFzuRew3jv2c+f39PSUHOQ5MhLmeZ61WlTk2Rc75DgnzJMb34oIETJ7IpzKxSv20gEA770iRUTF25NJ2sja9fS5X89f6VU/ODF+cKLzY0fD6tWrb7311uJ6bGxs+/btV1xxRfF2x44dU6P3g4ODq1at6u/vL0b7+/v7N27ceN555+3YsWNsbGzDhg19fX19fX3r168vRgi2bdtWjLqvX7++eHJHnaGhoRtvvHHnzp3FozZv3rx58+aOyYL3vOc999133/S+/saNG3fu3HnjjTdu3LhxqpX+/v6+vr7BwcGizvTvNjQ0VExGrFq1KowEBEEQvHHOOqMNgmLBequZlOJKOV4wvzvNUp1EZDQz51lO/vBE+1Q4t86xCBEppaxzUMzZF6n4U+fbiAAiALiTLiNv/EB9/GBnj3a68QP18QPHJNIvXrx46dKlRRS8//7716xZ01kDYNu2bVu3bh0YGBgYGLj++uuLwl27dj388MPLly+/+eaba7Xali1btmzZcv75599www0AcPvtt990001DQ0Of+cxnAOCldXp7e6+77rply5YNDAysW7duzZo1a9as6Zgs6O3t/exnP/vAAw/09fUV33DdunXLli277rrr1q1bt3v37k984hO33XbbwMDAXXfd9Rd/8RdDQ0Md3+3Tn/70Jz7xieKbf+QjH5n+8CAIguAnwJ610iLovaTttFROrG0ZzAEsaAWKBMA6S8wMxTb2gEVQB5FiSr5YgFeM1bNIEe8BkQi0VkqRyIu/D2auj25+eu5/+Od5v//N+Z/4+vzf+6fxgxPjByYWrvvqKb+75ZRrH1j0O1859WP3nfrRLy/+7b9ffM2Xlnzki/VDjYnhxmn/7m9P//DfnP6hvz6j//ZPDGzvfOhPau3atffeey8A3HrrrStWrOi8DfDggw++733vK0bRp1x11VXFxeDg4NVXX11cX3bZZffddx8AnHvuubfccsu2bdtepc5r0dvbOzAw8Id/+Icf+chHpgJ54etf//oHPvCBxYsXA0BPT8/ll1/+T//0T8Wt4rsVOQef/vSn+/v7P/7xjy9btmz6x4MgCIKfhAAAMYMIesc2y8ulaP68HlROx5GOIyKy1pFzjtmDyOG++ouRWynFjFrrKIqnTqkvoj4SiUiW5SfB6P2d3z6A7Kde+XPDdtcwskP2HX+JHbIzh0bNoRFkN/X64j8dEfbeiIsvvnj79u2Dg4MXXXRRETg7jI+Pdxa9gp6enlqtVnS+r7nmmnvuuWfVqlWvVOe1u/jiiz/wgQ9MBfKXVa1WX/rY7u7uokNf6LgbBEEQvG6C4AGYmTm3HpiRecGsHoWgIq2VFoA0S8kxCwOCR/AgDIBEBCCICAJGa2eL7XQIgBCVUkoAgEiUdgCWZ3yfviOix0/tSn703OHQ/uIvgKlX1xOP1R7fWVxPVeh86BuwZs2aDRs2TM3Qd7jkkktuv/32V1rktnLlyttuu624np7Qt3z58k996lOPP/74q9SZrtFodJRs27ZtanJ9165dixYtKq6LmhdeeOEdd9yxe/fuIg9g8+bNF1544fSP9/b2FsMJ0wuDIAiCN8YDZGSUB3JMyCWVlrCRJ9Yb9i711oEDIKW1MUZr0iSIk2FbJo+xYwQSRgBVHGRHhIhIWqFRHiHzwtMOwpmhJiO6OJz8O60fX7yVyd785Ev8i38PX3Q+9A1YvXp1d3d3kdz+UitXrrzgggtWr17d398/NSA/5dprr63X60W23dDQ0LXXXgsARTrepZdeWmTwvWyd6VasWHHHHXd0ZOQtWLDgxhtv7O3tPe+885YsWVL8Pli7du0nPvGJjRs3Ll68+NOf/vTVV1/d39+/evXqP/zDP3zpgMRnP/vZv/iLv1i1atX69es3bdrUcTcIgiB4vUpJQiTGaFTKeQSOy6onERMz+Ga7FJcRDSiDSy6cawQ1WHQ2Tb1zSArzPBMWIg1ASikgEGEAQQKjdVxOat01E8cTzeYps07/u033djY+oyxc91UUBmEULi4ga4Brg8i0cpmqgEqTjqduFX9/+IXf6XxuEARBEBxLH/n9f/XUvkchKdVtriO9qCc5e3Z1aVe05eHHd6elSnnec8/vNhGQeClOqGXmYiIegRAVooYi1R5xaoK+CPaIaAwRIcDJsG3O9Bn34gW2tcffvIf/2275y91wC7K/9qP/4dqP/cff+Z1PfuzaPwKbHu73v/jqfGgQBEEQHGOENJli55lAiv3pzzj7rLPOOsPZ1JBSQARIRKSV0qSJSGvSRnvPIIRIACQiRW4foiCiUmiM0gaiyCgFxdR9Z8szTceM+0sj90veTg3vu6k0vekVgiAIguD4iOMkTzOjtFiXNltOuHvunEqtApKB2GqpgqwIGcFjcZKNZ++9LbLulVJECpGKnwsszOJxcokdKV2k6gOeBPP0hyfjUfzk3yMjN8IRkZ7E49SLJy+mVwiCIAiC48A6n8Qxe0fCNsuss22XHxwbHZ8Y0cQuTwlArBAKCIt3TkSYWUCszYvtcZxzxSr6YohAaw0ARCqOkyQpZWkGAnQSRPoiWh/OwiN2eORRvJ2D84c79FT8PuDOXwZBEARBcBw0mhMsPoljts4oLYDW8Ui7/XM//3NKcRQBobRabTzj/FMiAJLUcZpZb62wA2MiERABIgQE5y0RkCJjqKur2j271lWr7XvhYLudnbagd/PAlzsbn1GW/tbfgQiKL/6iCLdGEYpsO5lK0yveFhcqrkwvR+HHvji5XV0QBEEQHB9XXXPZuN0zPtE8ONoi5eJYZtX06UvnzZvf/d3vDY0eKhs1q9HISFjYibXOewFBREVEzM77yQ69d14phagQEFEBqMgk4sFaz15QToo+/VRvvrgWN/KBjw3/xrXDV/3uoX+zHtkd+Ph/2f97f7r/E/91/+//2VQ/fvrfzof+NLn33nufeOKJztIgCIJghkMi1Gji6M3nnLF06WmLl542/5RTxUSifZIwgFSqMQBTpDUisQfnPDMAICIACgADMECx420RzhEAFZEIOOc1UqxjRZMH381cL066H37RkaP30DGYL0zTJ/XFHa15+s997nNbt24dHh7uKN+6deu1R/rc5z43dfdzn/tcx92tW7dO//ju3bu7u7unlwRBEAQnAS+OtOru7mq32xMTE41mK/U8XK9bsXEZSVkAByDY++6lnHuX1R3njMhCIK44zg5BIZIIAGGReB9Furu71jWrK8/z3c/uaTXTt5z5jsG/+2pn4zPKGf23dyyOl/bYwd/8xFSFBZ+/Yd9/2Dj19tQ/+YiOyofH7Ysxf/7el/90qsIb8Z3vfOfhhx/+rd/6rc4b03z9618fHR19pU30XuoP/uAPbrrpps7SIAiCYIZb/Vu/3MT9RsfNpvUiaLh7dqmVjpx5emluT/R/73u6p+us0RFL1razvJF56wmYgEkcc7GMvtgwDyfPswEkAAIvTArjUjxn3pxTl5xarVU7W55ppi+ue/lVdkd22Y9cfD+ZnTe9whvxzne+c3qYn953n/Lkk0++9a1v7Sx9BU8//XSxE20QBEFwkiE0IloAlQZjBIAjMtXyrLmz5/zyL797dk8EWiRCPPu87jyznpkJPDMigIdYx845rTU7DwhEICgmNnESl8tJz9zuVqs1crBBoJYuPPuugZm9mflZ/3ZTxx55YttgU4AiTa8Y3hcARmYUQSKlzORbYGBG4Ue+8hedz32dPve5z73pTW96+9vfPmfOnKJkz549X/7ylzv6961W68///M//6I/+qHi7devWv//7v59eoXDzzTcXF1u3bk2SpGMX+iAIguAk8K8/csWo26MNeM6cy5Fo9qw5RsdRZdeFv3Da5s/vSPWCTCoknoGZRIxAhKSLjDxkIRHxDF6AAUFrrUkZUlorbZC0KE2Cno/SFPUJ9NJ5eqW0jss6KumorKNERyUdJdokOkp0FCulJnfCF4fsijn7zoe+fmvXrp01a9Zdd901VfKNb3zjvPPOO6ISwDe/+c13v/vdU28vueSSmw8rAvzUdeHJJ588/fTTAeCJJ57omL8PgiAIZjQWsdYRKcece0tapdYyYtZmtqqrVm62mkYRgWclYASVB7KsPGtEBEEARCAio3UUmTiKImOMplIUaUIENoaA5CSI9H3vWDIt8b7zNbV33suea4fsQeQXf+FfdD709SuXy9OH7oeHh4eGhjoG3lut1pYtW0ZGRqYXvrpnn3321FNPBYDTTz/9G9/4RqvV6qwRBEEQzEzsvRcuVSpRFAsAA2bW6ihKU9i3t9FV687azSROSDFowQhViXSZTEWZSJMSKY6jRxYUAC8EolESrbpKpXJkCNFExsRGaepseab5w998Ty2hqRn3I46te5nX9MV4DADVSvKJ3+o89/2Nu+uuu1auXFkul6cXbt68+dd+7deGh4dfumqu1WrNnTu3o/Dpp5+eOhOvXC739vY+8sgjHXWCIAiCGYqUyjOXZbkgAmkvkjvfaKe51U8O7WGRLGUUJGFGD8ggzrNzYp3yrJhjhLKOKnHcVSqVtamQrpCqkOqOTElH6Ik9CCgi3dnyTHPq3No9N/3mryw/E6c2yyvW2h35dvJVHFN7eCTjF3/hX9x5y388ZcHszoe+Aa1W66677pozZ8473/nO6eV33XVXpVK58MILV69effvtt3f0zjtG9QtPPPHEWWedNfX23e9+91e/OrMXSgRBEARTEJDZi4hzTgCsc17AMRCW977QqFRnG2XYWexd1lUrVdg5Z23PrJ6kHI9NjDEIoa5PNJuNZhxHSWSqlbiSmDmza/Pmzckj9fjTz9dTBm0WzVq6+b/f09l48JP6zne+Mzg4+O53v/uSSy6ZKmy1Wps3b65UKqtXry5Ktm7d2m63pxbaff3rX//mN795zTXXdIwB/Nmf/dn73/9+AHjmmWdGRkaee+65Q4cOfexjHyvG84MgCIIZ7Td++9d/sPe7C0+dn9pms91IymXn0OjSrLJpjb3QPav67HOHsqykfv68c3q6u7uqXd3dtXnz582eO6sUJwsXzD914ak93T0L5s1bumTxrFpl/qzuWKNtT8yb3cOohidajk3muCvpvvLXPtDZePD67dmz5+abb65Wq+9///vf9ra3Tb/1hS984U1vetOv/uqvTpUsXLjwW9/61tvf/vYi6k9MTKxZs6YjzN97772HDh3atWsXEZ1yyinFE0qlUpZlp5xyyvSaQRAEwUx0x5dub2ajJjbM3hid506hMTqOtWm3Gs0sbzfzLGN8+7vmsWUAJkXGKG2Ut7lRRmuTWV8pl+fNnV3rKs3trtps3OetWq3ryRcOPLV/PFPlsXZ22tzT//62mb3KLgiCIAhmon/1oRUHms+ZkiYlXnzuHEGkdTKrVho+uFdisk03dqhNjJC6PPfOim/adCJtTjTb483WaLM53my8cPDAk8889eTTT+78/vee3/N8lNApi+YiemtTa1MvLDM+IS8IgiAIZigcG683602NGjyDE3He55YAS9VKXO4mNGNjGbWyjAm8QgtsUXJkMCpn384yB4KRLt6mLkMNTGxKykSE4LKslWXNjj3hgyAIgiA4PpxzNnd5lhttSBA8KyD0krZb7TxtZw5QV7uAABiNYpTM57lzaWozFiFERQLgxTnITIJKKSTqmT2LEknzNgsoXeTdF3vmBkEQBEFwXJVKSbVS1sYo1M1GSyvtrG01J0TAOpdmLRbWOiIWti5lsczMnjUZ5xyIV8IGINKURJKYtKqwpmvdXfOsyQ41mlYSVBrE44w/tDYIgiAIZiRG9iRZ7tppTmDSRrvVrDtOR0ZG5/bM766qWNsuYwhAiBAIiIgQEVAZJSDMDkSUoijWcRKVSqVKuVrr7kldbtkDKEW6WilFJupsOQiCIAiC4wDRMzvn0jQzpEtJqaenZ87snnnz5pYrZaXERNTTUyMgFAApMHjvBZABWYQUKKWICESBUJREpa5kotVOrVeKtFZaa0UhJS8IgiAITgBNxOzzPG80GlEUlUqlSqWilBJk69txSQs6L5aICBABEBGRCBAts2XnxQkAIiCSMREqFZUjFdPweMNaX5xbb61lDhl5QRAEQXACRFGklNZaRybSUdRqt9I0tc7mLs18q2dWFyoBcFTkzgsgICGiAGkdIaIAI6KJKIojzyhIcdmw8odGm6hirTUziwhh6NMHQRAEwQlgjImiKEkS550iKuIyizi2gqISdJJWaiViERFg5qKGCAgoL8IMIAwgwsKenIOkGovxzcwxKgbh4jdCCPRBEARBcCKQUsxsjCGi3FrrnGMvAAzifO7ZMfCcubMJEJ3z3nvPDIhAmOdeQLQCExlCEfbIyIxxybRto97MMuuteCEEVYz8B0EQBEFwvBmtkyTRWidJUkymF389+0ba7J49K0riqBQRIkZRjEoxS57bLM0EAASJwKCKtYpNrCgul0rlrlIzbTTbuQNyAB5BGS0S1tMHQRAEwQmgSZVLJRE5cOBAmrZNZJTSDAyEcaU83qjXerr3799P3vssz3LrmJkUKWWUiggRAQjRaJWYKIlLpaRaKsWNVr2ZOkblkTNvi7GAzpaDIAiCIDj2BISZiShJkihJTBR59iLADK123mylaZYfONQkASAipRQigaAIeC9EGEUUR1ohAnuFVKlUiGB0dLjVSoWUEIkAqjBLHwRBEAQnBnv2RUedSESYOctzAcicq1SqjWYrimOlLXnPeW597oQZAVSxQF5AWERAEWkgDWrOrNkmNo12ExiJiJRCJPFoXejTB0EQBMEJ4L0zRuV5pogiY+I4UUSAGJmoWW8i656e2SaOCUmBkCYT6URTpIjAZRojj+U2gHUSM1VYuueWG8qPpJYzgVzSZuraPoEun3Y2fJJpt+WJH/DX/9n94EnO8s67QRAEQXCieJeVE63Yo/fowUCkKUZPeT0tu0jGPXhKOSUi0koTKPaS53mepoTimZ1HBhJBl3uFUK4mmXcj4y30JN4LixaNHsWfzDvnjE/A//qb/Mv/YLc/5O+5L//C5nyiETIQgyAIgp8K7XZ73969aZpNjDWGDxwaGx3L0hSASlEJclaOykkltzkJM4iwZ2EWEUQUFus4szZ3LKAE0ES6UilnaT46Mo5IikgBaCIFqE7qVXZbt9l6Y/JaAA8Oy9e+4YrVBk893d78fw780zfH8zzE/iAIguAE0Fqf8+Y3zZ7dPXtOd7WrWq6Uich7m6Wp0ZG1dnxkZOHCBQQixcGzCjHSWilFWpFSIpKmWZoye1WuVHRM7Va7UbcalUIiAKVImOWk3g332Wc7/+2e2y3M8N1HG//508/e+w/Dm/7X3s/+z13eh2AfBEEQHG9ZlqFS7TR1zM46EHHeM3M5SYCZPYBQV7VGiEiImhARRDyzR0WkFSjlQdoZNzNb7iprjdYye9XV1V0plXq6umbVamxt2jqZJ+qROkM4AgPI4APDU79wdj7enGiEtMQgCILgeLPOZXne1V1DRZmzxWI6AkzbaX18ImulI8PDs2fNImGWYtt7hGJjXM/Oe88IZCJBZb2Uq2UH+aGRkb177N69+8ZHx7xzcRQXaf2dLc80f/LpH/77a7/776995MMfe+RDH33kQx/9zgev+c4Hr/nO1R/Z8b1HH3/iiceeeeZHUmz9C3DmaUopVOrFOQtVbD4QBEEQBMeXCBhjtDFI5L0DFARpNOtpmjIDM9frjTiKCABEhEEQUSmllEIQbVSx1M559Eylail1rWbanju/3N3Tg0qNjo/v2bt7otFgnvGR/rldrWIWQgREiotiXmLyLN9ms23zJqAsXkQXX6gB4F9ePidJEAAQ4fx3ddW6dOdDgyAIguCYw9zZNEsBgbTObd7d3d3T0zNv3rzZs+dUumq1nu7xiSYBogAUG+ILCiIQMrBXiMXRdiYu6Vjl3BweH80sxEmp0l2ZM292Ui5NtCdk5ndnmYszfuSM06s//865P//OOe9aPvddy+eetqRaxHtm+eWLkyt/Pf7X79dFgH/rmys3fPLMq9YsuPa3Fvf/5qKj0qfv7e3dsGFDR2F/f39/fz8ADA4OFhfHzqZNm/r6+u68887OGwDF15vuWH+ZIAiC4MfSRkdRXO3qYhEksNY5l1uboVLWCxKRikZGx3DJsoovdr8hQUSC4h8ExKhcTaTrnEVz/59/+c68e+xv/mHb4z8Y79E1EUGjS6by3DN7Tp931j9+6Wudjc8o/b/9SDEH8a//1Rk/d+6sRaeUrOMDB7OvP3Tg//z9c0XP/jc/cE4UV6c+IswHDh4UUQAIAOWSvvSSWdWKOuK5r1Nvb++SJUvuuuuunp6eomRoaGjt2rXLli0bGBjorH207d69++qrr96yZUvxq6LRaFx55ZWdlQA2bdoEAB/+8Ic7bwRBEATH3ep/d6mvNlvtbOzQWN7OYqNrs7oOjRyoVnuUijDmuKrnzO0h5x0QAuHkwbVYdO+hmH0WwK5aLSqZzLXrzQmdlJhQxcYjsKLU5X7mj94XQ/TM8jebn/oPn9rxgyfrDz186BOf/HYR5pmFmR/6dnPHd3nq9Z1H4ZsPN+/feuiBr44+8NXRLw0e/KdvjHU+9/W7/PLL77///qm3d95558qVK4+occzs379/6dKlxfXevXvr9XpnjSAIguCnDBF54VK5DIhKKS9irTPGAIAg6ihy7HJnJ+fpRYQBuDjWBlErKTbC10qXqxWPttVuNJpNRNXOU8teEL2Is256btoMdXiSXpjBexYQEfGei9fk75/OD4GIh2nZiEfloJ/Vq1ffeuutxfXY2Nj27duvuOKK4u2OHTumBswHBwdXrVrV399fjPb39/dv3LjxvPPO27Fjx9jY2IYNG/r6+vr6+tavXz82NgYA27Zt6+vr6+3tXb9+ffHkjjpDQ0M33njjzp07i0dt3rx58+bNP3Z8ftOmTatWrVq1atXUpEMx19DX17dx48aipLe3t5h36OvrGxoaWr9+ffHNX/aLBUEQBK+LZ8myrNpVjSKDiESEiIooiqJG2jo0MgKAKEjigVARKhKlUIFXHkqWgLRXkohIdV5pQjXHMo9iIiRNOneEoPO06TMPnQvOZ57DffrJkA+TeXnTHY0w/hosXrx46dKlO3bsAID7779/zZo1nTUAtm3btnXr1oGBgYGBgeuvv74o3LVr18MPP7x8+fKbb765Vqtt2bJly5Yt559//g033AAAt99++0033TQ0NPSZz3wGAF5ap7e397rrriumCdatW7dmzZo1a9a8+pTBtm3b9u7de/fdd9999921Wq2Y3S++1ZYtW7Zv3z40NFTUXLhw4cDAwJo1a9auXbt+/fq777576dKlxdBFxxcLgiAIXhdFpMAkKiZUAICABokc1CfqoKBUqmYtZ9s5AQsyCIuwgEdmtBw5YI+5EkME5TlRW7XHWzk7hc6LoHegVCTOKQac8YP3cESyPbMIiADzVIee2XOxudBxsHbt2nvvvRcAbr311hUrVnTeBnjwwQff9773Tc3lF6666qriYnBw8Oqrry6uL7vssvvuuw8Azj333FtuuWXbtm2vUuf1uueeex599NGiE//YY49Vq9ViuqEo2bVrV7PZLGouX74cAN75zncuW7Zs8eLFALBo0aJidqDjiwVBEASvizBkrQyEIh0rQHEeHIgTQohKxnsRR+K5czE4Igh4QlSgFGK1lNSqZXE8PjohRc+WBURiEyEAC8Bxi4HHTBHmi268Zy46+VyEec/smVleZvj+2Lj44ou3b98+ODh40UUXFXGxw/j4eGfRK+jp6anVagCwbt26a6655p577lm1atUr1fkJfPCDHyw68QMDAytXrhwcHPznf/7nP//zPx8YGFi2bFln7ZfzKl8sCIIg+PE852lmlHLOASIAOO/iOPEs7VaLnddap2lKSFjMzdMkBLaawJBC5p5aOTHa51wfa4lXyASgQDjSxNa7k+JstyLnbsqm24b+7ktP+yLMT4Z7/7KBfvpvnKP4e2fNmjUbNmyYmqHvcMkll9x+++3FPPdLrVy58rbbbiuupyf0LV++/FOf+tTjjz/+KnWmazQOb/f/Ci655JLPf/7z079Go9FYsmRJT0/P7t27d+7ceUTtVzb9iwVBEASvl0Y0WpdLMXtvnUvz3Dlm5zUp7xkACRV5Fu+99x4AWLz3TsCBZxByWTp3dpdCdqltj1u2mGceBEulRBt01hICdTY68xQD9d5Pdup/9PT487smDsd49p75Fc7rmx7+580+apvnrF69uru7uxj0fqmVK1decMEFq1ev7u/vf+m497XXXluv14tsu6GhoWuvvRYAiqy3Sy+9tEide9k6061YseKOO+549Yy8lStXXnTRRZdeeml/f//69et379592WWXPfbYY6tWrfrMZz6zZMmSzg+8nI4vFgRBELwuBOCt27tr96FDh3JnsywdHR1TRmutvXPeeXHsPeOCc+JiAB8JAQFAUKtIu6qJpJ1cfvl737p84Qsjz/zj1x5/dk8jyyiKS17ZWq1S3zfSHM7efHrv4N/9Y2fjM8of/eed3//BuAiIMEzbHY8n/5Eosu94xztK5dnTP/X0099vtQjJAMCsHn3jp86svLH19EEQBEHwuvzr/stGWrvjalkpvf/gQZvnmtTsWT0jjVGIlcuhq1ouV4lEUAAFARBEmIg0YqwitlgplRYvmoOc5a1sZHiCcxBGES6VE+vydjsr9s/tbHmm+c9/tOzv/vqiu79w0Rf/5r1fvOPiL935i3+18R0L5o8vmFdfuGBi0cLm6af1aJ0c8RmUZrMBSADQXVP//oOLQpgPgiAIjjPxvp02rc2SUgIgzN5aC4AgEClNgjb39XqTAIQP7/BezNbneZZlTlPUU+uulGOjgb3kLfYetTFEWC4n1WpXnkujmebWdrY88y0+tee973n34iXLT12y/NQly+fOO8eYIyL9ub10wyffvub/WXDNh079rzec/dY3V6bfDYIgCILjQCkFiHmeK6OMMQDovZ+YaAAD56xJo4C3TEpppRTR5IS7984Yoylih61G44c/fOzRR3ccPHDIexBRli0QoiKlVe4cC+LM79O/FCL8+hXzTzllfrUyv1KdF8VdRfe9MHcuXnJxdOYZ1V9bMe+Cd9VKpZMgVyEIgiCYebwwgzACERKRtTbLson6BAA0m01nXZZlzloCxMl5egQiAoWMonWsdWnBgoWLF5+yaMGCsbHxZjN1ziMhaESC3NrJnL6jcrrLT59aF/6bNfGb36SNejGQGwVveytdtSpK4iMqB0EQBMHx50Wsd87b3NooiUvlkjEmy3JFhABEZHPnHBPzZGI5AwARImqtiXSW2lKpVCqZONGAwh6lGCgAUVo1ms0st94h0UnYpy90VfF9l+sP/796ZZ++6AL9L1fo3+qPVvaZ5Mgp+yAIgiA4IYhQRDx7ATFGI2GpVJo9e3alVGFmrXWcJN3d3VRsiQsgyCzixHvvhT2ABxNJ6vN99eaug+OOEAgFBDWl1jbbLaMwiYgn99M5OSFCV5XOfau68Hz1lnNUuXSSjmAEQRAEMxA78FbYgXWeDIkiK5zaPHdWhAGdMkKGSCvShFqBUqgAREBIIZpY6ySBNuRjFg6lIFEiCpUiQfCgGBRbRm6ro7aMPAiCIAiC10EJlU25FJWd86AJFAgCaaUToxMC45ny1LaJgR17FgFEJKWM1saYODKx6pldA62t53buWRgP5+dbxza1hBBrjSfBETdBEARBMAOJgMudzXMRNlprrUiRiCAQACqlFUUIRCICgIiESCIgjIDA4piENTVarbFG03sREaUIERBJrOStTCMkSXKyZuQFQRAEwU85623ubJpl7LxRWiESIHjWylTL3d6DZ/GOSREWW+cgIAggAiEKcLW7jAYYMc28teycQwREEEFkzJuWHSDK4dV5QRAEQRAcX0RAyCKeWREh4GRn3TltoizNhcF5IA1EIgrQoDFoEorFsxdb7SlbzpvW1Rtt9oSetYIoMkpH7JBTpwSUJjmaZ7sEQRAEQfBaKa2AEAFARCtFiISgCL11pVKZvTCDQk1GJEaKkZTzZJ0W1AClWFeqCRkSwVbbgSeljFaKhQXQpo69CEJUMgwnc+59EARBEPzUIkWKKDLGudw7V+yjoxUZwlPmz48V2Sx3zhM7TwLIgCIoguzEWvEW0YOG3LmxsSYzJVEcaSXikVSW5s4KKvBglQnD90EQBEFwAiBiOUmSOPK5bdTHWxP1+tj4yMjoyMihcqQUCAlrRDrnzeecdfbZp5+xdMnSUxcsnFerVbviEljrXVspAKRWyyLoSGtFKMxewJgojrWJEAz4MHofBEEQBCeCQjRKEUOkdRxFpyxcOGf27J7uWq1SXrRgbhJphcLOEoOoWJe7KnPmz52/aMHCRQvn9MyqRJEBUYry3OeZi1SsSJECUSCAaZrWal2z5nZDhBSFPn0QBEEQnAAIiCxaKWBRSJVyGQDYM4FEGiINGpldTj/a9dwPn33qyeefeWbv83sO7jswegi8m93dNbunJt7Xx8a9Y0Vaa42TfXppp3mz1RpvNlKXmiRsnRMEQRAEJwABAotRSiN555gFEbTW3uXIbtEp8zUBghATWPEt2x5r1Mca9Vbaarfa5ZIxFbLO5mneU6p0lZOenp6kXBYR9Oxd7tiRAg+edOjTB0EQBMEJoDRZl7VaTRZmxwhklHHsG+0GkCyaNcemOSJRllsnIqiYFJNyjDYVXRE927fFHnphePj5/SP7nj00drDeykrlri4k5bzSCiPTbtmkEvr0QRAEQXACkFamnHhgz5KlVgkJi9LKx3rf8P5lC07vqc6lpItMZIhIRNh7ZhaRKIlKXZWu2TXSETDOnVM5ZeGcWq3KIiRIzpF4IixyASBk5AVBEATBicDM3julFbIAk0IdRZEyRhk1Nj5WLZUJUGlFRYAHAKWU0TqKIiLs6q5pkzRb7XpzgsVpLd3dXcZoRSTC4Fkm1+ZJnuadLQdBEARBcOxppRRLQoa8KBEBMXGEiEbriXozqVSdzRvj45Pn0yOiiHjv8yzTsSp3VXPLzXZqba4Nlcras7V5pgiBHQqXtEHPEelyqdTZchAEQRAEx563VnKvGcB5yZ23jog8CLOMj9clUt3d1Wq5RAzgvQfP4FkJaMLunpqIjNUbo2ON+kQax7TwlLnG0ER9/IU9e/bs2ttutW2eIovPbLvR7mw5CIIgCIJjz2gD3nOWg/Uuz22eoyIhRKBWqz0yUU9KiUEgpSaT5xEAAUW4VDWCXgSs5SiGOfN6TATO593d3WeecfbsOd2aqJwkJKiRqqVyZ8tBEARBEBx7eZYLi82tMDvr2DMBAoB37HJ3YGKkq1om9AQC3ntEVKTiKDJalUraGJXnLm3nSRLNmVcrVQyzdd4DkWcGZFRojC4liYTj6YMgCILgRIiiyCSxjowgemYAAEQAICREtfvQgblzutllBCKxNpqUQtKkYhMliUL0abud57ZcSWbNrgna1LYF0HnIrPcEOo6UVkRa/M9o7n3u4YdjnYVBEARBcNyQVvWJiXqz0c4z552AaKUNaXLgPRwYHY7iOG+2SQS01lprpZR4JpRyoggZAYG5VuuqVBPnc+etiRIh7Vm8QFSORWG73Xb+Z7FTP952f/wYfPop9T+fUj+jv3SCIAiCE420anvbcnnOPhOfWZvnucsym+bgYd/IQaWgEmsCEERURKUkIUXVSqVaSaJYd3d3R1E8Z/YspSTPWlmWgdKeIfcMCkijF6dNTKQ6Wz7Zjbfdnz5Bu1Jilm+NwaYQ7IMgCIITgZlFYQ7ccnkry5qtZtZu2zxPmzZL80a7zd7WamXSShMRomiFBFCtVCvVUqxpVq0rNqqrVvboU+9Ty559lmfes/eAiAzgwbH8bIW5sZa98VHYnSphYYYi2P+PJ+ln679CEARB8FPAs09KJRNHcTkxpdjEUalS6u7pnjt/Vq2nVqpUnHcojgiMNsTUZm4ZVLVoVq1SiSOVEFHaqnaLi6XuS1lKRAhg58+ae8aiRV061gBZnKKKOls+eY028z9+RKbC/FSw31HHv30WO2sHQRAEwbFkvdfaaDLM4MXn6CUhKCuOsZHleZsb6YRWQgLEIEoJokeGSrkS1RKOSWld0tRVUtblzbrVYNBLlrf3793fqE+IMDvBGKIo7mx5xmKBBx4ZeWEk7bwBUIT5Dd/mXalmAWbhI4P93lbo1QdBEATHFTOXSqXIxNoYYwyLMAprabkUFDWb2ax5cxecsoCY2TkHguyYvat2lbmifUmnwMxSNonOgZt5CTU6z9Y32q2ccw/iPCsNeLIEOBb4vc8/9dH/8dT7/8v3v//8eMfdkUb2Rw+53akRAWFgBjkc5oVlNrh/syTr+Mjr1dvbu2HDho7C/v7+/v5+ABgcHCwujp1Nmzb19fXdeeednTcAiq833Y/9MlM1zzvvvPXr1w8NDXXWCIIgCN6YLM+0NiLCzqNAnmfsOdYGAJTWhKRMREpNZdSRCGiCanfS9pnXanyi7pxDRtey7eEJsE6BIooq1XJSLTGJB+8ttJrNzpZnoCLM3/utEQAYnnAf/OzTTzz34hK6sZa9bnu+J42k6M17YRaWolsvs9CuOzudVzFHPPEnsn379rGxF9sdGhrauXNncb1y5cqBgYEXqx5tu3fv3rx585YtW6688srBwcGXxvuhoaGhoaGPf/zjH//4x4eGhl7Llyk+8vDDD59//vlr167dvXt3Z40gCILgDXDWIaJzDlgQCRi891GUaK3bWZqm6YFDwxgbEmBDmkRpjGrVyqxaOVKSaD0x3qhVKwJqbKKdCyKRNqbRaFubC4FoMRFUKuYk6NNPD/OF4QnX/5fPDD0/DgDjbfuJf2ztzRNmYC/CwCLCIF6YYTbmv3dOtrA7IZrcavCNuPzyy++///6pt3feeefKlSuPqHHM7N+/f+nSpcX13r176/V6Z4034Morr/zABz7wWn4cBEEQBK8dCxutQUQYgAW8ZM1UrBMWRCTSqePqnG5icSLCnhCwWoqrJVXKvWm59vB4pVJJvd83Wnc6ykiYVNrOjdYCXlA8g3Mubb/RUesT7i/u2T09zBeGJ9wH//Lpbz05vO6Bib1Zif3hKXkv7It5epiN2X881y+aVT4qYR4AVq9efeuttxbXY2Nj27dvv+KKK4q3O3bsmBowHxwcXLVqVX9/fzHa39/fv3HjxvPOO2/Hjh1jY2MbNmzo6+vr6+tbv359MUKwbdu2vr6+3t7e9evXF0/uqDM0NHTjjTfu3LmzeNTmzZs3b978Y8fni9H+VatWrVq16scOzr/3ve99/vnnX7b1zqpBEATBa0ZEihSIoKBGJV5IlNFRHJfSdrp774F62iIkAAD2kLWycilJ0JWyrJxLe7gxb84si3Cw3Rx1mY9Uy+Xeg1hHAN4776WrXNFqxq+nb7RtZxEAAIy0+A+24Z60wgwik5l3LJMhfxam1/0Lv6AWIx61rPvFixcvXbp0x44dAHD//fevWbOmswbAtm3btm7dOjAwMDAwcP311xeFu3btevjhh5cvX37zzTfXarUtW7Zs2bLl/PPPv+GGGwDg9ttvv+mmm4aGhj7zmc8AwEvr9Pb2XnfddcuWLRsYGFi3bt2aNWvWrFnz6l3wwcHBhx566K677rr77rv/5E/+ZO3atZ01XsFLW++sEQRBELw2iOSdLw6dF2YQMajYeSJyzhkVjYyOT6RNAhLLAkyxSUqRbtVHVNqWRmZbaXd3LWdminIgS+AYnAMCVERF2EOlPc/44fvfX7X0wjdXOgpJ0by3nY7l8uG5eWAWKfr0DD3S/I/L8lN6SkerNz9l7dq19957LwDceuutK1as6LwN8OCDD77vfe/r6emZXnjVVVcVF4ODg1dffXVxfdlll913330AcO65595yyy3btm17lTqv19atW9euXVt8jd7e3iVLlhQ/UH6so9J6EARBUHToAUEpRaCAwVufZ5YEIx0TKoUqy/1Yu0HGqMhEAEqcKJR2azzNGoeGDw0fGmH2w/sPtZu50YnWSljy3AIIO1ZAikAEszzvbHmmSSL133/7zdODPWma/ZalulKe7Mfz4TDPIgw90Pyjd/ql82pHPcwDwMUXX7x9+/bBwcGLLrpo8eLFnbcBxsc71wW8kp6enlqtBgDr1q275ppr7rnnnlWrVr1SnTeop6enUun8tTTdvffee+mll3YUHq3WgyAIfjYRkrOeiBBRIQmDtw49GFQERIzC1Gi1SCkiIo06NsmiRQuXnraoPLfmDEbVstHGZVZbKLGJhcCLd95EJtaGHbucoyg5ObbImx7sSWHPm5aoUoVZhIVZpEi2ZxGBHpj4T+/i0+Z3H4swX1izZs2GDRumZug7XHLJJbfffvsrTW+vXLnytttuK66nJ/QtX778U5/61OOPP/4qdaZrNBqdRUea/jWGhoaef/753t7ezkoAxcT8pk2bHn300SuvvPI1th4EQRC8NuKdM2TyLHPOo4B4ZufFgzhmJwLUzlPy3lpniZQxURInqc1G8/b+xrhXutFsZROpa2QJUCwE1otzSitEVEAEyCK5dZ3tzkxTwb66eAGVKp1deQEWmAWN//wLeIx681NWr17d3d29fPnyzhsARaS84IILVq9e3d/fPzUgP+Xaa6+t1+tFvtvQ0NC1114LAEU63qWXXlpk8L1snelWrFhxxx13vHpG3tTXWLVq1ac//enPfvaznTUOL6lfvXo1AEzN+v/Y1oMgCILXJY5jEBDvhYWdWGvZ+1gZTQoFnHX41vf0aCgpq+fVqn2/9I5TlkbtysSOJ5565smR3jN7f/DMsz98Zp82s0tx1KinT/9o9ylzupISlqvRyKHhngWza3TqA5u/1tnsjNVs52tve3YPLSJCRCBCUoCIRDBHN266mE5f0KNmfhJiEARBcBJ4/7/9leGRZ06Zu+DpHz0NAKhJJ3FcjkXx6PiYsNLIenabDJBGAhBTiaUUZaRzVR5vtzGG4XbWyrQT08qbqXfN9oQmjk0cGW3zXESpNMaXz1ufqcqJue3fLjkzemGqN1+sr+uB+n95L4YwHwRBEPz0aLezg4fGkzgWlshEhGS9FcCu7u5yrWqqcVWZbimRgCAiIJbL5SRJPHvx3G6ks7pn5WmW5xlb191VK5fLABLF5NkDILMo0ifHJP10iNhVTj535eIz4xdYpEi874axP/0lOmPhrBDmgyAIgp8epXISRZg7FydxmrXTPFWktCFEQERv2XnvWUgAmRlQokg7ttZl7HzWTJOonLfzxnizPj6xb8++RqOepjbPxTrLLIiEiK00o5Mu+E0G+zWLz4xeYC89MPqnv4RnnjI7hPkgCILgpwuCBTZxZJkZwXnfbDfyPGcWn3thZPGtdkZKKSBSSleqZSRWmtADMfrM23aWttKualetVm21WuVydPZZS5MkZhERFMFWK+WZv57+pYpgv+kDSz761t1/tTI6+9S5IcwHQRAEP20QkRBbWVruqjACKDJR5EEARCmlSANCZpG0NsweQErlRCnRCrNWVooqChSB9taXkiSK4/lz5jYazeHhg8y+VCoBEGktIt5xZ8snBUSslJLfeM85SxfONeYonF4TBEEQBEcbiUBm87gUo1GoEBBEGBGNMeBFgLVS1Gi0iFQcR5VqqVSJBT0IIahKUnGWiz13NBlmBmEkEXFZluXeeefb7fbJ2KV/EREd0wV1QRAEQfATI0VK6frERLlaISJjjNaamZ2zWiujlQjkOZNnZs+lcimOY+dyAD820RgdrX9v5+O7du9hAQAEgCzLADgyptjmHRFJFY7aru9BEARBELx24jwgNBpNZiZFpAgRgSXLMu89iGdAUpqYJfdWaVIarbe5t820PXv+wq6e2SyY5jmzEJH3HgA0ESIAiggjYXGGTmfLQRAEQRAce4SIglmWC4DWCqlYSycAoLUiJYJIGFMUxUSUlEqlJDaGiKBen3h+1+5DwyOolDaJjmJS6JzjIhOPWUAYWEC8P7lW0wdBEATBzBFpIyLFWHtkDAqgQKQUiDixICkzKFIkAoiYxCWlCVGct6P1ifFmw3rxAECglQYAm+fCUKSgO+fy3IowgBCF0fsgCIIgOAFEAIFEhJm11lopRaSRkJAIiUQE0tQRO0CmcpnQeIfOCo430yiqRVEpyx0SRdUSKe0zG6FOolgZY2IdRVprJSIiJ2fufRAEQRD8lCNScRxrpZlZKaW00loDILCQgFKxVjEikoKEGCtVbZJcDOeoDoxm1hn25JxnTVY8A+bNPAINHrxSQATMKKAQ4aTOvQ+CIAiCn1pKK+cciIAICLBn51w7y9H7GA3YiD0SMSFgHMelklGatNHW+mazBQA2tySARCySpVlmLSEyoiAAEinlnAOEYnogCIIgCILjjBCN0cXEehzHsYkMaY0EAlmWNZutdrtlbU5aqUo5rlZKRcieaDTZiUJKW21AjLTRWrF4ZxkVMDMSesco5JiZT76d74MgCIJgZshtnmbpRGOiXq8DCwAIs3dePMRxqVItx3GklCKtKY5VqRwhCCJNTDQQgFiyZooMCKCImL0AIGKaZ9Y665wAWsssWKy2D4IgCILgeCMslUtJKTZKK0KX5955Rcozi0icGKXRWkeRxlJikth4sda60dG6ISNCIqKJvHPOuSzNQMDEkSAICRKJoHPeGKPCevogCIIgOBFsbpWmKNbO5da5dju11oMH78R5jyhKEQJSKTIL5s82hhSpzPp6vemd2DwnQACIk0Qp1Wi0PYMwa0JCZOe9dz734hlDnz4IgiAITgwmQu+9AJfL5XKlYrTxgCLIwkgg4pCIDEElMc7mmbV5ZrOMc+tEhIiUUnEUKaVqtcrSJfMqlbJCUkREpJU2WoU+fRAEQRCcKALivXN53mq16uPjY2NjI6Pj9fFGq93OnSMCEQEWmtXdNWdWt1KY53a83h4ZayqlAdAzK6XKSSnSJkvTPGunrRY7z97bNMvbqcudyzNh39lyEARBEATHnrfeW8dMpBRpXap06STWcYykAZCUKAWIRJxnJMzOikCzmbbbTplYWAQASWtjoihiZpvlKKIICSmJ4lgbhczOQ9g5JwiCIAhOBEVYKZdr3Ume50hUrXVpY1ArkySIioWVQmMMLZgzNzIGALzjsfGG9QiIuffaGGW0tTbP8yxNjdYgkmeZmszU8ygQRxTObg+CIAiCEyLP89xm3ntSwMBRFJnIGJNoY4BQQKjIyIuriS5Hlrmd5uPjDXZSiksiLIQM4JkNkgYCxlazTYCaFAERIiIgKebQpw+CIAiCEwCRlCKllHhxWU5ESumc83aWiveKSABz68mWpaGycZ+Nt611pEErj94zGs0Kk7jUGm+SBfAggHnuOPMA5KxTAEwRUOjTB0EQBMEJ4MBblCQpgwPIKcGInWdkpY3kXjsEpbxBYoRm1sqstwKZ9ah03k69dZnNs9ym7Xa72QIRFtHalMoVrTUSALAAoALSYZVdEARBEJwIhKSNKSWolM2t94yI7F2Wtl3u2DGSKsbwxVvHzMzSaLec+DRNvXM2c3mat5qtsfExEQFCJEJFXhg1CjIACGQorrPhIAiCIAiOB/IiKo6t59SmDKyKpXXWO+dbrVae5ewZP/FHl1OJxdB45r75nUcbdRtbY3MnWusoTuJk7+49LrOx1gRcqVaFWBs9dvAAZwJl/Y5z3nXX/7q/s+kZhW793/j1fwYRYBHhyUOBWEBEJg8Imiw5/JaPuHvJe/Hjv9350CAIgiA4xv7lb/7yvvauBfPnP/X4D0vKLD7l1JGxsfGJhgBUSqYSAydJo2Wpy0Rl1GQhb2Yu9SKYtjOXOZdbFFBKA5DWCoAZgAyBosy5zAkiIALRjB+9x+0PAbN4FmZgARZgFi7eTr4O3y1ekxUm3z7wj51PDIIgCIJjTwSsE8tMcZS5NM3T4jQaceycy5w3yhil8D99cgUqGLfZgVbruz/4UZoBpei9OBQdJ0mpvPu558txzC5n5mpPFwszy8Sh8RgQyvjO3vPu/PwM79Ov/Yhjrt0xgOVS571XJc3WgV/+tQTpr5747hlve9sVD3y5s0YQBEEQHDO/9hu/tGvi2e7Z3Y3R+sSBkQVzZ7mMGxNtQSlVYpasp2dumqWUkKqVyrO7ZpUoKak4Ujq3lkWUiUgpZvbek1Ktlm2nVrwTEe+ZvfJOi4jwjD+3Vpit/QmzDdrOATMAjDzx/c57QRAEQXAsGUIS4NzVKrExgszC4px31jGzdR5ZSBA//u9+3iRVSUo/2rP3yd17MkbCyDpmAl0qI8De53d1VcrgLBHFJeNFrJWJg62KLsU99i2nL7vzf23pbHxGwd/4cOZc27kXZ+VfnJIXEAaBjgn7YpIeRRKkGPGWH+7sRlq7+0edjw6CIAiCY+Zf/cYvPXXoyWpXNTZ48IV9c3tmE8SHRiaszaISOfTzuuZ4l9N4Y+KFA8PDo+P1iQYRAYB11rIXJEBspakglOKk3W4rhCSOhZ11ubXsnBfw3v+EveGfIsxGoEqqi6iLqIpUJSquu0h1ka6i6kKaelWRqkhdSBUkAyJHae+g3t7eDRs2dBT29/f39/cDwODgYHFx7GzatKmvr+/OO+/svHFYf39/75F27NjRWek16HjIT/ycIAiCn3GRUmWls0aD0xRyzpota12W+yKXzJiYPRMArv/o+aLiDNRTu18YnmiMNFrWAaCiOE4q5bTZatTrc7q6xkeGuyolrVUrayOZ+nDaZcqluelZC9/6t7d9tbPxGQVXf9Czr33pr7FcnioUEWbmZrP+q2sUQvcDX8TKi3cn6zRbe999WYnoc0898cb79L29vUuWLLnrrrt6enqKkqGhobVr1y5btmxgYKCz9tG2e/fuq6++esuWLcWvikajceWVV3ZWOjbOO++8Bx54YOrfOgiCIHiN/t+rL9s38sxEu9ndlYweGjZREpfn7DvUQHFkuFQrl8UQOhpuNcbzrJ5mOTMjiDApQqWK4/CYfaWclCvldisVhjgpRZFhduwtC3uXWWs7W55phDn3fnqYL7ITvPc+ihx75/1LwzwAYKWcsj9afXoAuPzyy++//8X0xjvvvHPlypVH1Dhm9u/fv3Tp0uJ679699Xq9s8armt5B37RpU+ftVzY0NLRs2bIQ5oMgCH4C4myWtstR7NKsOEKeCJFIKSXWes+EWE5KNA60t21fqLccaFKalOQuI5BYaSvSnBgF18pcPVKEYlot65xL80xVIl0xHiOe+SfcCLP4yWj9Yow/DJiZGf7h/77sy3s+ijmJq1evvvXWW4vrsbGx7du3X3HFFcXbHTt2TI3eDw4Orlq1qr+/vxjt7+/v37hx43nnnbdjx46xsbENGzb09fX19fWtX79+bGwMALZt29bX19fb27t+/friyR11hoaGbrzxxp07dxaP2rx58+bNm1/XZMHQYR//+Mc7772qr3zlK+9///s7S4MgCILXwMSqkdUzzoGBTOSJHFhPqfUZOEgA8rxFhqiR+ybLeJoeGhubaEyIgDFGAREggJQiNbun5CHzll3urfXeOut87nLrHYPxUvyMmMmYQVhEitDunJse6SfXzb8iFjlqkX7x4sVLly4tJq3vv//+NWvWdNYA2LZt29atWwcGBgYGBq6//vqicNeuXQ8//PDy5ctvvvnmWq22ZcuWLVu2nH/++TfccAMA3H777TfddNPQ0NBnPvMZAHhpnd7e3uuuu66YJli3bt2aNWvWrFnzE08ZvPOd7ywupnf0X7a7PzY2dt9991144YXTC4MgCILXyDtrStFEu1lKyohqotUWTaQgTdtpmttmO7dpnmeUsxMAUhoQHLMgCiN7VGgSBbN6kvkLuhG8CCAyAIsXBBAHwBJpM+P3zSki/Uu68lOAWViyb37rZV/CcBRH7wFg7dq19957LwDceuutK1as6LwN8OCDD77vfe/rGO6+6qqriovBwcGrr766uL7sssvuu+8+ADj33HNvueWWbdu2vUqdo+X7339xteFUR3/Khz/84emV77rrrvHx8X379k0vDIIgCF4jYRGjU+8l95Wk1LacgS8lcRIZrcl6RwQMQp5BAJRWUSkxxngvCApAA2BZ0+KFcxaeMgvYK4IoVkiCgOgAPAszCeFR69CeMMV2eNOj+/RuvYiIMDjf+TEAcQ74aPbpAeDiiy/evn374ODgRRddtHjx4s7bAOPj451Fr6Cnp6dWqwHAunXrrrnmmnvuuWfVqlWvVOdoee1fb2hoaPPmzZ/+9Kc/+clPdt4LgiAIXgsRz9w9q4e9j6MICJz4SlfFxJGKTOacB0BC0nGsY4MIzMyAQASiiIwwlEgWnlLrqiXifRxhnERaoyaFQrGJNRIxKTgpRu9fuU8vLP8/e38edtlVF4i/3zXu8czv/L41Zk7IADGMdlBRRDABGZW+xo7hF6Svdmim5noTfBgupkFR2u4mBtK04ABBbSGCotBCaRgMxEBSqVQqNVe98xn3vMb7xwllcQgQIpVUhfV5zlPPPmuvs7/nrafqXfu7po0MHP/kZw5/4pOHb/+rQ7f/n4O3/+XBj//lgY/95aFPfNIH9D379h+LV77ylW9/+9tPjNBPeN7znveRj3xkPAD/nV70ohd9+MMfHh+fPKHv8ssvf9vb3rZ79+7vUedkaZpOFj1ql19++WTRd3jggQd+4zd+4w/+4A+e+9znXnLJJT/QJD7HcRxnjGGClPYZZ5xZZBmxRqnA54CAcGasNcZQxjAiFBOCEBovkxfKlqUAwISSCEPoYVFlZaaVAmO1UFIJaYSlmCALRmnQP8yM9olhDBijRsnJDfw4rTdJaq3BYEOEYoxijGOEa4BjQOMXhR/+LoGveMUrGo3Gd2svX/SiFz3zmc98xStecd11153okD/hhhtuGI1G49l2DzzwwA033AAA4+l4z3/+88cz+B6xzsl+7ud+7s/+7M8mZuR98IMfnBx1P//8888/f2I8/s477zz//PO/92y+L37xi+NmfvzxG2644fbbbz927NhkPcdxHOd7CjwPlSbvDxW2mJGAUj3MA06pxyhjgGwlBCCDrvh/Xeh7oUjKUW9QVmUptYciC0Gr7i9Eo6c8fWm5t/mP/7DX5nxqcX6QDvSgKitQxtTjIIyCrfM7P/5HfzsZ/Iyif+ZllVaZUtoYa8dr6R/eFQ9bqI+nMHzryXXf+hMe3jbPWrD2w+tH/u3r6X9EfP3rX/+f//N/vv3tbz95bOLjH//43Nzcc5/73G+r6jiO43xPv/6rzzuycv+wkjwK2532xsqKKkRr22J3mMvSCpFxDjPTHaw00gaUFEYrC4Aw0VoDRUobqo21Mskyo8FYIpWxyBpjxvkuJYABEJzxc/KQMdRCjHGdkDrBdTx+kQYiNUSIfXgg3xpj/5Wx9uFn3/3Qc/ont8svv/y2226bmILwqle9yjXzjuM4PzBtZmsNm0ljpOfRnQvzW5rNgGCKMcPE54wTDMZga8EYo5VE2oIBa62xAnMMGMWe53GaFpnRpBIoF0KDJgRjjIOAayMBAP1Q56M9MXZuI9YyC9yik17ALLDxlvf/2r5/q8k3D7f147ctQtsXXjB5WcdxHMc5lXyGp+q1Ti1gAKNuN+t2SVVxo+j4+SzGaqWKIkdPv+apFOGy26vSstC60oZihIKWD/i583T7s+f/9stf23tXZnVcX4izatNuiNHI1JrcY7bRaG+Z2fFnZ3jvveM4juOcid76muetLt9PovpDx9fn5xoNznyFoBUd2Mz6mdamQEh4nGJGKQCABYzxeLd3RgnGwBkNfF8KMeglRhNEmef72iilVRQTSnGtHo47ticjO47jOI5z6gWeV2/GUldNj8g010IibGPGIkJ1JUAbDEhKgRmxYAUoZXIBpUEaZKa9StVxFTaIzMqipy0yiBmAilmLASmlC1lVSGamIvaHvMbMcRzHcZxHI/R5jZIYQbsWKqmsAUyAiLSm8wZSyFoNnNA6xlgpmZZZnnWTrJeMBkneLwaHj8jeSr0TeIibFGMMxNMIJAcEgCihYcg01orZiPPJyI7jOI7jnHqtVk3012sUVUUBFmeVqGSVDbtTPpoPMdNSVVopjBFCCGFMSRTFtUa90WjU6/XFxYWtWxaiegNTr15nABYQYIwAEcDEKkIU5YCxNKo6859P7ziO4zhnIC1Fp9UYDbqE0HanVQlVKkv8WhDXGIK6QZ6oqCmxtlYoXSklQCuttVIIWYxtJasjx5b37H2oN5DSjBeWgbGAEKbEp+D5CnyNkDnjV9k5juM4zplofW29Vuftdjwa5mVReJ4nNaSpGqVFqxZubQWR0SBzjAADACIYKEEYU0wIAoRVXhUrG5vHV7vKAIBFyIIFY5C2YCwSlVSi9DF1w/SO4ziO84RAYPOijGJvfjYos1HN551GU2tTZgUGM1PzZ2MagsFKq/EwvkWAEPgUU2K5RzC1SZoPk5IwIAxTjBEQa5C2xnKw1BJCAz8c7yrnOI7jOM7jTBi71h1JWc3P1hamomI0qDHMQVFrVFliArOdMESAKeFWGmO0stpaA1IwZKKATk23CfOFoYRyglDge8gibQBTonCJfGPAamvP/C3yHMdxHOeMpABTTnu9lGNb9+xCmzKVzUSeh2y/n2wMBkHoxQxhJaRVCoFFYJGRVMlmGDQbUVFlFjNRgbVUSUMAUyBaGEAWiMLUIkolGEMmAzuO4ziO8zjQFhMeWguDzR5WoumTuVbIkZRFNT/TlkB6/cGOpSVMEcEWUQQYWYZRRHDkEUaBUjQapWlqCPY5Y5QgAKSk0koRZBAyGFPuU+7RyciO4ziO45x6iFALRClgCLdrccCwKEehT2oR2bFjW1TzMKGqElgKqYpClKWWlU9Qp1ZrRJHV4vix40KqKAy1AlmqMsurrDTSIgseIjXqY2WPHT/W7Y8mIzuO4ziOc+pZYxDCs7Mdo8AYyxjP8rwQZWuqvrpypEoTj3lpPkLP/qWLRsePlrlQSk/xcEejWZtudcvlXr5RqGg48Iylo9Hm3GxbSHT8WNciCAhZaPrNhj+w5WJ09sdv/8Jk8NMMpZQQgjGePOE4juM438EYo7VW6nTfMOa3fv1F/cNfC33CrNaybDaiSlbaQqPRKEulNGwMc2UsVrKSRlFC6kHQrtcaU01hTZJXg8RKCUJIo7RWxuPU5xAFqBXj+ekwqnFjBZGGn/ar7DzPY4y5Zt5xHMd5lDDGjDHP8yZPnGZCznyKPO4x7lUKaaA8iCxAkoysEYyjpaXZLNUYsFS28pCdixv1OFhPu0e6m6lmhUJSg5QVpQRjomRJbNIK7GK7JkVS2JEgOsZBeHqvsqOUujbecRzHeQwwxnT8ELjTFQbtEayqXFnEwzAtZa8/iqMooJxTNFRJJkYXn7sFW608DFNRsNRuySw9fOQYpqhS2gLDmBlQFiNEMALwwFx01szCbJtyYkhkSLMknHmndUtPiFsb4DiO4zxGp3kjkuc5JqjV6ozSXBvE/RATKqQO/cDHnixUniRpOsBMG6/Sc1FkspFVcmF+hng0ryRgj1GutC2NMoR5gJuETAf+xuZmqbCxodB8oG0QhZORTycuoXccx3Ees9O8ERFSe37QH4zyUgySdJCkeaVGSaqEbdU622ZnfYLyYoipVlM+a1MSEXTRhefXO61ClYT7U1PzCKiyABQLrYmULYpiClVZWsRAEwZIYc19NhnZcRzHcZxTjzAvywWinhf4QRxRz6u3mpiy4yu9tY3h4sz8lrnpZi3ARMjtMzPNgNWjQFq12u9rgjFnjPlZVihjqMcQMgHGvjFMGwuAEWG6rKkBLYdWlpORHcdxHMc59SjlZSW1tXGtjhCmlHc60812p7Skm+Z79z6ksuKis8/CU3FtvtPK08Hx9aP37NmdGissGiXJcDgkhIahD0b6WPtYzbTbBDGtdcAZV9nWUP7sZUsekpORHcdxHMc59bI8T9KqP+gnSYYpO3BofXWtaxCZ3TaXWVOUMhsVy0eO4LPm57N+19hqbnEOBWGusQJqtNVSaK3BWh+jGPR0PWq1Wivr3arQRuadAL3g6Rf+x5c+bWlaT0Z2HpPt27ffeOONE4XXXHPNNddcAwCf+tSnxgeP6MYbb7zlllvGx7fccsuVV175J3/yJ5OVfhi2f8uVV165Z8+eydOO4zjO44hgDFhPz8z4gQcYLyx1iqJQUhVabD1/J/OC/kBUucQyTfqD7tadW71alOYC05pUzGjlM0CUaGloJWsGzt4yrQjdfWgkNA4oQqrqrWzQwYHZ1um+3PDRs4/J5FX+DXbt2tXv90+83bNnzz333DM+vvrqqz/ykY/8a9Vv9653vevXfu3XAODIkSN/+qd/umvXrn//7//9ZKUfkkOHDh06dOh3f/d3X/WqV02e++F573vfe9ddd02WOo7jOCchFHseSZNRXAunpzqB72ttjIHN7ubBwwe5FzM/OLZRYJEmU+12o908dvxYlUuQDNnASK1Voa0mCAfa7mjSbYudbpZ1tfGDiCBAxDuymgTWthvBZOQz0N//wz++8Jdf/+wXv+YxvF74y6//+y/80+QVH5OrrrrqM5/5zIm3f/Inf3L11Vd/W43vZ21tbfv27ZOlp8AVV1yxbdu2U9cY33vvvZNFjuM4zrdrd1pR5PV6WVWWSglGaVWJTqddi6IyyQ4fOD7ItfYJ1nl14YUXDIfpyvERkoxK1u9mGOHQJ5gQa7AH4pLt06pMD66uVZQgxDlmlNeOdGWWIDBPht773/tff9EfJpOlj05/mPzebX8+WfqYvOpVr/rDP/zD8XG/39+1a9eLX/zi8du77rpr3Hs/PrjxxhuvuuqqK6+88siRI+Me+1tuuWXPnj3veMc77rnnnmuuuWbPnj179uy55pprxtXe+973jq9zzTXXvPe9773kkkvuuuuuPXv2XHXVVVddddWv//qvn8ih+/3++OJXXXXV9x0CiOP4lltuufHGG6+88srx8MF47GD88XH3/vgLj8vHX+yaa645+Stt3759PDZxySWXjAvf+9733nPPPe94xztO1HEcx3G+U6MWUYqjGElZrq2utlqNWhQkg+GFO7fWMWlEcVLakvg48GgYhrv3HuonIkvzbDSUpUSYlVKlufAATYfBbCvad+TwoZUkrUxRpGEUWxatJPbosRElfDLymcYY85ib+bH+MDHmh7At8NatW7dv3z5ucT/zmc+8+tWvnqwBAAD33HPP9ddff8cdd7z61a++9dZbT5RfcMEFb3vb2y677LKPfOQjF1xwwWtf+9prr732jjvu2LVr1+HDh08024cPH/7mN795xRVXvPa1r33b2952xx13vPOd77zjjjvGZz/0oQ89/elPv+OOO+64446Pfexj320wfvwlL7jggvGgwyc/+clf+7Vf+9SnPvWlL33pk5/85B133PGe97znRPf+Pffc86pXvWrXrl0A8Ja3vOUjH/nIrl277rjjjpMv/pGPfOSLX/ziHXfccdddd735zW++7LLL3va2t735zW/+15CO4zjOtxNKYUylsJSyWr2utRyMxGA0kFl26XnbwFovCjdGGe7M1iWFvkIpxcFcszGLMVTMa6yMoKzMjnq06PPKsOMq6hU2tNCqI4PVoBSFkhv9oajEZOQz2f/72lc06vFk6ePo2muv/eQnPwkAf/iHf/jCF75w8jQAAFx22WVbt24FgMsvv3yc03+nPXv2NBqNn/zJnxy/fdnLXvbZz352fPwrv/Ir4xH9RqNxxRVXAECr1brqqqvGZz/60Y/++Z//+XgmYKvV+tcrfst4Ot4nP/nJE/MGXv3qV49r/t3f/d211147Pr7gggtOdO9fdtll48JnP/vZL3rRi05cJ03T8fF4kKLVar361a/++te//q/BHMdxnO/u6PFVwD5CdHVlkCZpb9jfcd50UpZ51oNq1Gxjj4vtC7MYEXT/vn3dPPUbLcWwgBIhUSajOqahLjuhrTf840lxYGWgFDR81qxRMBUiORC53E/AfzKM048hhMpK3PKe/89Lfu4nKH1idkD8yZ/8yV27dn3qU5+68sorx835D0Ucx/V6/eSStbW1k98Oh8MTx+9617s+8i3jrP1khw4d2rVr17ve9a5HvA84WavViuMf7LYpSf5NnSuO4zg/UrSFrKiY5zWaNUzJYDDECLfasTFYA5WmbDb8Kh3izcHwyNoaDwPEmdRaW1OJkWfLOYYWArlta2Nki3sPHlvdTBmg7fPtqXrIsJRVb2beHt3INTvje+9PsNbe9qeffPPb3/+0i8//wM1vveKyCydrPC5e/epX33jjjSdG6B+bCy64YDgc/sM//MP47R/90R89//nPP7nCFVdccfjw4XH/+ZEjR8Zd6+P0+uQRgR/I85///A9/+MPj5QN79uw5dOjQd94oPKITUwTuuOOOEz0ZJzJ+x3Ec5xEZY5IkSYscEaK1lUItH1vJRvkok4NcTs8tTLUbAbO4UJLwwGKSFzlnhAJC1kbEBkacs9hZ2jp1aLO/liJG/flO5GORbm5iMHFUK4fo/HNjdFpvCfxvgyYLHh+vetWrms3muF/93+IP//APP/zhD49n5D3lKU/5zmn8H//4x1/72teemN83LnzjG9945MiR8ey571zf/71dffXVz372s1/84hdfddVVv/3bv31iduH39YUvfOGqq6568Ytf/KY3vWnck3HttdfecMMNbkae4zjO9xCHkRdEAESCrTeb01MzM53ZufZ8WqiNrNIID/vdeuijt7zmrJ7Sew6t9wvgYc2AXlvZvHBxbufULOAR8dTnv3i0M9XgjNWIiiEvKkXa7byksDm8+T/t2LTbnvVLH58MftoIgu8/uGCMec5L/p9x7/2v/tLVP33l0z/+yb//67//R6U0QpOt/XdbQH/nX33wNH8Qwvd2zTXX/MZv/Ma//fbiMdi+ffuhQ4cmSx3HcU4PRVFMFp023n7DSw7vvRNTUikhpYkDWvf8hanpw8eP8tibqkcyz0QpcS51v5cpaUPKQ0yna82nXrh1anZmU+i79h67b/8q95FPCTelLIaUo1pUAxuuriZbZ+dDj1j9xIxnnwrWWt/jv/aW3/6rv/mCUhoAPv3Hv3/i9dcf/b3JDzxZjLfoOfvssydPOI7jOKcxSojHWKPZxIRGkZdnUghbi+qVRu256ULoZFR11wX6Dy+bObyaVIaGjWarPYuNzfP1jaTKDF9bXV6aadCy2tGZKYbHaw2CEMpH/qb2KmF30Oqtr91yf3fx53/t9sngp40fKKf/Tk/unH7Pnj3/43/8j8OHDwPAe97znkc5pv5D53J6x3FOZ6dzTv9bv/7z+eYehVFWVkIIUVaeRRede26JShYTIogclkcPruLBII2C+szMXBxFsigOHDh0YN+xUZqCh8rK1GtTtaCOVdlg4FO0mRWDUimrtcwsiIpA+mQeqH+E/XEna5zJLrjggv/+3//7eOn8E9XMjyfzTxY5juM4j0JZFkpUyaDvMVKL42azWUn0zd0Pdjoto8Rmd2N2fml2fgZ3Wp2pqfmiFMvrqxvpYFSWhDNktc02F4K4Qb0qSSky7TgeDUQ/BeX7lioOVSvyLRoJ7Z5l5ziO4zhPAM4ZQpCnsixyjEFIGdZDy/37799b9yOPEY2FV/fwdGd2Y6N3dHVFIJ2B1B6zlBKozmmxH1sI8KBvlQBs86SUAmUC1su8PxqoTIZgAhjKwj2f3nEcx3GeAAghMKYeUUZIMhoxj2JOtp610Gl3Djy4v6qKQic01PjI0ePL6xsKIWDUElxahTx21mL7vNn6DBa+yuqxtzHob3SLJLPGMhYEjHg1zs5ZbM4EUH+Cdph5str5Sx8dH9z94AYA/MUX9//a737hzR/40okKf/HF/eO3b/7Al9jzPnDidXIdx3Ec50cBo9go4VFCEUKAtNJJlu198CDBvFWbNgiOrx9FnsaHN7uCMMKD2PMbDHWYna9FXJrNldVD3RH1/W43G2SKBq2hICSMm0DODuNnnT9db/dLSvJUTUZ2HpNxg310PR0fHFwZXfKrH9t9qHf9VRe993XPnqwNAAAfe9vz5edfJz//uo+97dt2xXEcx3F+FPicBx41StaiaLrVlnkZUhwQSzHr5WqjMMBrCvs4U1rKzMd6pt5sMq9GbNvHqKgI8nCbHusNlLV+RHJtMae1iNas3NZoNX3baKt6p8E9t5HZD8eBP/vlP3zjT8jPv+69r3v2gT/7ZQD42Su2vu1XrnjaudMn6rDnfeAX3/F3v//n32DP+wAA/OI7/m58W/CL7/i7b7uW4ziO8yMgL/J2sxHHIdJGVwK0tZUICIi89MO4VHbPA6u77z+IscWtQM+E2KZF0k08RlQ+iDH2abyeEvCbYVynjPA6xSA9le3c0q7Xo+GgXw8tN9nWRW8ysvOYbJmJP/f1YwDwz3vWt8w88nbx4/T99S+/VH7+dS6ndxzH+REXBL6xph5HBGFrjJYSA67XakWRegRqmDRD6rMA12v1pbnZZhB61kzF/mKnjkS+bX6h38sryiTxzjn3vHY9FCrxmDx3S8djcnP9OAa5OBNVg2HIz/iFZwghBP+mnwKB/c6V9z+Qv/jifva8D3ziCw+d+PMr96+Nc/fvMQzvcnrHcZwfZZySMs8G/V6SDMssDTzOKFFS9QfDfncttIC1EYXEURj3B3plrY+0iIkq11Yjn671Rv1CdPvlRq837K12IgKmmp6qhz5fWVkGPdy+EEYBDf0mxt9/a5rTHEIoDjg81sbeWhMH/N/Y0r/suWeNs/Nxvi4//7pnXjg7Pn7WRXPjLv3x3cDJvfcup3ccx/lRZoyJ4qDI5dLCvO95oedxgpE19WZkQdc8n1jcak3h4cZmv1/5fr1R54EtWj4uhdgosyPdilEi8rIVId8WdQYLC1OlAT+IFqfppRd04jrf7JcYP3I/85nlTdf/UshwlY8ewyvi5E2v/aXJK/6Axq04e94HTuTxRzfSZ144e3Kd8d3ATdf82Ct+4uxx773L6R3HcX6UYUKajQbnkIxGGIGoSt/zPEyHoyQtq6mpGcq9WqOJnvtUDtZbWpiq8dzkPWyhayBFwWa/NBW0QnLJtqiJe35z67GSLidFXOZXbtE/f2WbdnJpgj2bFz/tJX86Gfy08Wh2wz3hsW2B92/M5k/2jj+663NfP/YfXnD+r77wgjd/4EvPvHD2Zc8968r/9H92/bdfOFHn1373C0+/YHaUi9e//NLf//Nv1EP+v//2gZMrOI7jOD9Ep/NuuL/zX14iVv8ljupZLvJC9voDTihnZKOscq3PmV88srE+v2073jbTeMrW+tYWwaVIEjmSBoe1TNm43dzaDrY0WGhGWzuBKdL9+w8ZWVXD0cI0rTWsZaY+00DsybMbLnpMJq/yWP3+n38jyeUzLpgd5eIdf3TXZ+868vQLvi2nHy+yH+XyV1/48M61f/+1o5edPXXi1HgJvuM4jvMjohKi05nyPI9x7vk+oyzLSkpxp9WwBh042kMEKVniTkg800PZZuQHQVwzhI3SglNOlWwRqEPZ8czTLth+znnbfK6wGF201T97e4PGBFNfClXlp+/NzhnkL764/5/3rL/3dc8+vpm9/uWXXrS9vWUmnpiBf3Q9ff1//6c3veoyAHj9yy99xx/dtWU6PrEG756HNv/6y24DecdxnB8hQugorrc708MkAYA4DsOIFnkWEF7jQZ5VshTZsIvrHJVJUVWVH3IvCDBlDHCD0GJ10PTZVMg7AZtpN1rzrUYEs1Rc+ZROZ4pKQFJHVMVEs8nIzg/uZc89609v+hkAOLaRjpP1d/7qMyYrAdzwskuedu703Q9uXPKrH0tyecsbfwIALtzWYs/7wLs++rWff9b2yQ84juM4T17K2M3hyCCslJZaeYE3OzttEaLaTvlRu0kDShthgP6/Vzc2BmnQqEeNqFA6SYpBWlHjJWuDS87u1HAegb76xRf800D933/Y/fOXTT9zG+VTOl5arHSzBvXPfdU+67o/ngx+2viBxukdx3EcZ8LpPE7/tl9/EU4ePGfnzru+drfWplaLO81GVSS+jY8cWbNNxilYqzH3eDuOGEAuVDcTBzeStVFh8nJnLWwFpNCwngDhtafMdV7wjPpPXbml2cC1iIkiN5W6f/e+tfXeZGTHcRzHcU49DXiU6W4/4V6glATQ693N/ijLVG6YMkojbZFSOAwDj4iIWlFUR1Z6G6UuLbRi/6zZGsb5SBnSChiLdwbyZ66YHyQPHuuua6F98De7xUh4/fT0vdl5zNPpHcdxHGe8YH2y6HTCg4BHNUt9L/C4zywobUReVqTmK9+O0rzRCDnDGCEDGHuhXwu9bfPN+Tqb9mg9srRZbuq0q6tRiUOfxVFfpmuURkGHr25md//z+t99av/tf3a/75/W6+mVcg/gcRzHcR4jrfVk0WnFgjGqP+phThe3LmnA2iJrodcfYUTrNZ6VVZKVOC9yTUhvNDpydJPramvD294IuYX9y8O1EkoSSqON7CGdB8gXBWVRK+5MHzi8WgoUNxr1+sOrvE5PSqnT/I7McRzHOT0ZY073dNHIJB1iRoqqAkq9KDAWJalNRzmnvlR2s5doTLHnccT9wlhKNYiyQdRsRECZ3gBhL5LGDyKD60Kl1b33rCWDvN6YDeImCWlQ81bX1ldWTvc13FVVSSlde+84juM8SsYYKWVVVZMnTjNR6CPQns+jRm15Y80Anptf9COCEaPEj4J6GEZ5qdE7Xj2jvGh5bVPmZUShwSAmNktZv2J2rrU5HLz0p+ZfdiXRq/21QRbPzzSnWg/tPf7lr64ePO51+9WOi5792vd8ejK44ziO4zin2Dtef1W2eT/mbGp26vjxo7pSC7OL6SAb9Eb1WlMZVYpslGZ4dbPXH5VS0bIEVWJVmDRVcWwXZyNcdn/sovAFz7+g0hVqk/a2sNkGWxzn2EZRpLWMa55Wp/stj+M4juM8KcVhIKoqrtUoJmVeGQuHDx8tK2GMXV/b2FjfyPMyCD1ci1uykllWNOrNqdYMRkE99jyPgVm7/ALv2pc+a3B8OcuYNzXNGj5mCtsKBLIVbtZJuwUAYjKy4ziO4zinXp5nBMHG8urhAwe10KAhSfKNjV5cqzFOLFiMkVYW18M49nlAAVSVpSlClEDoE7Y4S15+9Taarv79J+4F3RCGa+xbQ00F/ZWyGEiKSgtFkbllbI7jOI7zBPD9QAmFlPEwn+l0PMqDIFDGSKMNKCEkBhT6HvYw7oR4ocWQSrqb/bxIPGLBZs9/wWUe7hcrA9EFHyNRIS+cNjo8drhcOZSHNGjXSMAs+eE94sVxHMdxnB+AgZD6s62OykpdSAIYIwwI5UVKGPJ9UhRlnhZYZoln8gZXjdA26jA943OWPP2ZnZk5sX50bbSx8tQLLTIb1gxklne7xeagCGpicbG84PzGTz13547trcnAjuM4juOcesPRqB7Vsn6CpEHaUCCMMqWsF3itdnN+YZpRMugWmFRJZCQyGjQszobPfNo5V/67pUsv3/LQQ0fv/0YltLj8Wec2OkGEq8HqsTyrtm0/6ydf8Kwrrrx0y5appDdYX+1PRnYcx3Ec59QTSidlyaPQIKuUWllbZ4wDMkaJZNRVSjYaoccRnorsbBRIxbOcYGkW6uy8ixbWNtSffbRfD/25s3d42xfAa+q+gEJ51EOm+bU7V77+j8f27+4e2Ts0brtZx3Ecx3kiBHGUaSEZLqytwGKPIGb9AFNqfI9jsEVRGQQ4qqPFxTpoPdUOy0yU2Ujo7kNH7n7FLy9d+ozZ+qy2dlAlo2MH9T13dVeX86/+08GvfGn/+vrGVGfKGt1o1CcjO47jOI5z6qVZNtVpNeox9z0hdVUBw15VmVIqTcyoSAdp6YUM19sz23burAWRzZNmTGYXfRrSc849N/CnBGLUt0m+39C1JB/W680H7l9+aF93bqpRD729+w4QHm3f4cbpHcdxHOcJgJDd2FgDgDiKPR4ooXu9hGPPD6N+lgMjhrIkt3iQyuMr3VYI8y2+dZE22iCUd8dfHv74R76hyhaOOpaUud7QtJyani0S0pmq+dxL+oOLLiYvunphbd2N0zuO4zjOE8Faa7XS0mhVr9fjOMxGGSZUSllr1EZ51ZmOO1MerrXY6toRI7vM6k491hr23T88dkS+7OW/0Jyf2vvNvc34HF22vaAxGBiR+8NhlQzWa3Vaa6AH9qwko9P7OT+O4ziO8ySFwHLG9+97KI5jj3uc0Xo98BmhCM/PTLca9SJJG/UYE6pUVUSe3ba4NNOZ27Pn0N9/7uB55y3tPDveXOsvbrnQlM3N5WAwsMeOrotCGK0WtsbP+vFtPo8ZaxXF6f2cH8dxHMd5kvK9qNFoE0KXV5b7gw2lC22qSqRGSWogogQbvbGyiQPGfuzSy5/5zIuTUVIWxdnnzmvlPf/5l2FmNkZQ78wePnjwgfuOWZRLNaBQ1Wps586lUX9UVLQzNxfVg8nIjuM4juOcelWl0rTy/BAQXlvvWlDcJ4D0oJf31zaxgcgLylzh9cObaS9ZWdnYf7CX5EkYxBdeMK9l+/Of+srOpbPBZFqunH8hu/jy8Lzzwpk23brdf2j/kWPLI2novkMHK1VMRnYcx3Ec59RT0hSlTIvKYswCWimDCKnVYk6R1cinQcD9hbkOtmUm85UkyRCDpDDHDvUPPzT81Mc/HXDwo/7ygW/s2L5ly/yU71Ni7Uy7A9YKk9c6zeX14v77B1mGJyM7juM4jnPqUUq8wB/lhQa0tikxYb4fcy/yQ3+zPyyE6I2SIA7xuVtmty1MeV4IDPrD/uZm1/NFWQzPP+uc1aObR/f1kGnako02vFEX2rW6EMNLnrqgwf7L3ZvHli3CT+be+16v94Y3vOHSSy+t1+tbt259wxvecOjQoclKjuM4jvNEMAg0mDiOLBDfZ2mmupvJaFQWlc4rizi3GPdGI1yW5NCR5X37us1G3JmpnXP+wnkX1iiXh48tf/5vjmTd9tE93eG6vOfLG6riw2z5/Is7YTvcf3TY28SdZrvdrk1GfrLo9Xq/8Au/0O/3//iP/3g0Gu3atQsArrzyStfYO47jOKcDrRXBOAgCYy1jpChNnkshUF6poB7kVaG0EVLiPhaHinLYV1zQHVu2xQud9eXeuU9pzZzrHT167Nih4+nKaHQ8DxSa2xJsv6LTnO988b7e3321nOlsv+zcNqjRZOQni3e9613tdvvDH/7wxRdfDADbt29/3/ve97znPe+//bf/NlnVcRzHcR5/2oA0HFOMLAKFEGhAGHFsSY37AfWm2s3ICzDQMGp2Om0P8DCIbH9zvd2JL7n0LAtVSEmz4W8/ayfn3vx80JnzvUbtrnu7//iVXilQ4GmOpCjKycBPFn/+53/+ute9bqLw+uuv/9CHPjRR6DiO4ziPP4xQnqZxFCGjozhsNHywphAFAKpK5XEfAUqSIX7Gjz3zsosuPuusqYuu2Da/da4Tz1946daD+/be84V7Ljnfm5nzSMhXhgK8IWH66LK44/Obec4aPjZ6WKUVp2Yy8pPFYDA499xzJwqf9axnAcC99947Ue44juM4jzOlTVEU6XBklcYWoij0fA4YGcAbvWR9o2usmV+Yw4cf2vO1r3w1z0aG2ONHi/u/ujEc9nds3z5Xa7UjtnXH4v5jhzUrOgsxcO++fYNBySiBxSlGTLV6fDX0n8wz8ur1R35+T632pJ2d4DiO45wpKKFgcVWUnDJrDAKgjEijjMWE+pU0G/1+XhX4ni/dt35sE2i146zpw4ce2rfn/nrogbCrx4btem1hdnFjfXDJFU/NFP/cnQd3fXUjKe38TOesbbXt2+m554eNJpmM/GTRbDa/9rWvTRR++ctfHo/ZT5Q7juM4zuNMKuN7wfFjiRKKI0IwtgiEEsqiqrJC2aheAwT4xy65aNuW2rlPademWvlw5HOcd7M99x1RyiBcO3DfsSoJkWYPHbabI96Zmw5DumPL1PlnLVz6tLMAi2H/STsj7+Uvf/kHPvCBicJbb731Na95zUSh4ziO4zz+rAFRKUpJEES1ej2OYwRIa2MtwtQrKqkVACWYk2THzqlaO/qXL/7L5vGs29N77j426iWDHO7fs/K1rz74lHN3Hj64/sV/6h08htJcdGqozu2R/UfTYXX+ec+g+JH7t58Ebrzxxl6vd+21145H5Q8dOnTttdd+/vOfv/HGGyerOo7jOM7jDlEqtFnaOl0JudntSikRAEEgKglAhTSb3WG/l+A9DxxeW0/ThO2/t9+q0X/3U0sUY98Lozo6eny4f79+cN+Bb37zwePLsLosiZXPe9Y5WOg9u/ur61lvmEmTTkZ+smi32//n//yfVqv1ohe9qF6vX3nlla1W65577mm325NVHcdxHOdxpw3SCJdKV1pZivu9PrKWEaaVGiWJkjoIPCEEDjvNhe0LeTffuaN+6eVLtSkMFEupZWW372z/9M+fNZLDpNKgccPzzl+croFZPbwa16JGe/ozn/26UnQy8pNIu91+3/ved+TIkdFodOTIkfe9732umXccx3FOE4WocqlW+91RmWuwPPCQsQEmVhlrDOdcKwiDCC+e3UmynhwU09N+e44eWt7wagxjpErYvr1Rm8K1uRiHvBbip5679BOXP8WmsszKsOYfWz0+vRgg7E1GdhzHcRzn1DMAiLNCm7jVNADGaGTN0vxCI46NtZSyXq/AhuD1QXbfN48PVqsgiHg9CDj082owzLYt+AT1B8Xy3NnzAlgjRqjqH913f3d9gIiOGkwjO7PE4gaajOw4juM4zqknSp0VpdI4K0qljRCSYJynKSXgeRwANeqB0gbXOKmFlga23mgmq/rwA8WgyymFi85vznb8pdkpAmw0KrWRqxuDr/7LwcP9pNDh/PRZHCipWJ5lk5Edx3Ecxzn1KAaoUEhYlWhTYaQpIdRiFYSEU5CySlLRH2U4prbTrCWpuPsrDx24b22m3vGARD6jvPKCyED84N7eYKQ7MzM8rEWNaeIzZc2xo8c3jq7FpFkVajKy4ziO4zinHgIL2spMqEIjha1FymhCkedRoypOsLWgLcJlVSYjtb6Glo+rbi/P8hFUxVPOneLUO3RouO9w8k9fP5oK6KdCK0lUoUZJp6k9v6SIY0Tq9SfzjDzHcRzHOW1xDxOqLFiMjbFSqrISpVQVxogzwiitxzzwA1xV5dz8TGcmbEzxztSWjXVvMDAb3e7moEwrv9E8S5YGAxRZwTmh2FIwU9Mm8It8JA8fPNCeejLvhus4juM4py3fZ74PfgB+QCxSRksAK6WUVdVsNIxRvudbYzHYYGOtwohNz9T7SU9o8eM/0wmn/EySfk+sH1lvcH+hEU23fIwFUDu30NmxYzaOURx6YWAwiMnIjuM4juOceoTgIPQsAMYYI4IJxZhYg7Q2UeBjhI1WRgH+2l2b3/zGyspq79DRI5not+fY0jkLQae971j/oUPr9/3LnoVmbWsnnmp4cUSysuwl2XA0rIoRwtnMnG+tG6d3HMdxnCeAkMLzPLBgLVDCMKJKWiGMlKYoSinEaJRyhvBP/OT8y199ztOfPV8UNk311GwUhCCkOrpiljdtLq1WlRKFKNIsH4rK9NfKjeVhVaLtOzs7z5oixK2ndxzHcZwngqVpoqIozDMxGmVgqVYghdHWlrLS2nBGjTY4jgGzVKqCc3vJZVufcskcqkbU4LxAJOYo5P2i6ibVKCuajeBFP3PhC358x/a5uaddccnOc9oABiF/MrDjOI7jOKdeUQglRb3WDMMYY64UIMQQMCWNsdYPPM/zlDJ4br4tc1kLOzvPWtq5c16JtOylqkDnXnhWolCvrCQigLkf1SjWS7PRU86Zm2k3ZD7aWD2eDOWD969PRnYcx3Ec59SjFGFMp6amKaWexwGsksZYhAgRQggpMaXWWpwmhdW1ZFRMT9esVccOp4cO5Pd8Y+POrxxZ26iCgLeaQZUX2ahsNTvDUfLNe+7fff+DGsnS0Pt3dz0eTkZ2HMdxHOfUY4yFIV9dXUbIIGwRMpUopCiN0UAwEFwKkRUFHvSrI4eXjx1bqcdBVeqv3zW8/4Hivr15byA8D3Yu1blKUK7EQPS6/c1+sTEs/RpROkt6IwpT6ZP2UXaO4ziOc1pjjNbqMSYQ1yKtBYChFIxVSVYVVUUoYZx7gYeH/YSh+o4t0xjlMh+es71+ySXnXHLR4vaFeMtcCwxt1GYbcXD21tmFTofYatuOzs6dHa0rjElvuGlBT0Z2HMdxHOfUU0pvbm7meUEJlkKBtYHvM8p8j/g8TkdVkYvQj3EcRrOdLSGLjUiUGDRrNIqqVl1ELB9uDHpDsT5UQb093emYPNXpRhRVUQiiLONaLW4yIeVkZMdxHMdxHheUcFHJleMrWpqqlAQRz/MZ8ikwJciwV3LOMej6ffceHo3SLMtHwz4iWWXXECtm5qa0gt7mcGPzeGeusrApRV5kuhaS3kZSpawRzaQjobWZDOs4juM4zqmntR4MEiGEFJpQigm1mFLuE06tVVHkJ5nRusL3f/PIvr3dXm+oJNYKV6IKwmBmrtXtJ9YiURnPAwsDKfpgVKMWc4+kIy2K4NBDG/1VHUWTgR3HcRzHeRxQQghGHmOMMQMgjR2maZqVBixmNozRzCzp9Qe4nxTMA8IkY0EYtJKR7vfAomBxqRVGtNWIm42wTI3HfQJofn5eSTscVGsr5bFDCbLAKZmM7DiO4zjOqWe09jgPQ99awz1PKiWlTYsySXMhq+Eo63RiSi2OG17UgLmleJSkeQ4Y6vfvTh7c21/YssQDfzjMZEGIaQVsqt2eBQvDoSgq1O+Xg66RJXDmnmXnOI7jOE8AQrDvsSIT2lglFSWcMCY1WES5H2ll8rys1+tYS69e86TkR4+k+x9M7r13lBUmyao0UcakF1+ydW5mhlivLFQch812jZJwZmGm1mwjFG7f1pGVe8KN4ziO4zwBskxQShjDtTjCGFsAQpnn+xYhY2i90ahKnWcVZpxvWTo/S/H+h/SeBysvDM65cK7Viv/5K9/0WWuqHRw8uH9lZb3bXS7K0eFjhw4cXbWcrifDWqNz0UUXhJF7aq3jOI7jPAEYQ/1BJpUMQt8YY8EWRSGUTZNiY7OPsRfHzV63xOeefdbR4yv37131anbLTi+soUYbpE4R8OlOe2am9dyfOOd5z9+5sNTsDXNpLGL0yFp3ZUNsjsrdex9Qbu79D88HP/jBn/mZnzn//POf/vSnf/CDH5w8/f2c/y1Pf/rT3/CGNzzwwAOTNQA+/elPX3fddZOljuM4zhmI+75WKstkOkq2bd3SajbLUudpqjSSEspKcuYFQYA17kZNseVs+rNXnXfWhQ2/DkEYVoXkxI76Q2QJsoozaDTi884/G5NamsuVjSpTkIl17geUsMnIzmPyla98pdFo/MVf/MUDDzywa9euc88994tf/OJkpe/p13/91x944IEHHnjgn//5n6+77rp//Md/HI1GE3Ve9KIX3XbbbROFjuM4zplIax1GLI7p2lre6/ZnZ2eiKDIGgoBjQgaDoVSyVgvR536j1Wj6lcm3nbV0550P5Wm4fUfroYNHMkGHQ71z6/xME6t03cNEa6KQktQc7opeX8dgL9m5mE2fd/n/878mgzuO4ziOc4r9l1/7hXx9b7NeX18d5EU5PTMDhPZH+SjNEMZIq+lOU6kc/cWvxKvrqRcCD2GtSzqNbRzLTPaRh7Rmi9OLebcr0o0dC9PDJGsvTucmffDQRrszK5JROcjtlqe+4v/395PBHcdxHMc5xV77qp8aHL2vXosA8KHD/VqN1ut1qU1aVhpwVRahRz2GcCbM6gYgGgT1KfC99SLdd/AYAo7AF1JZVOVFf2muHfnM90HrqtsrIms7RDTCcGph/tiamozsOI7jOM6phy3CwDa7ObAAc6aNzUejmIBHkNCiFEYbRKmHg5pPPNi6fSoIsDSiVEOL8PadO46t9ASiDxw6vtwvVgfZ8ma/FOLggeNJf+RRKoUNYkojDW7jHMdxHMd5IhhjjbFFJYfD0dx8I66Fvs+xtUbrWqMeRZ6xRmmLvYCde2Fz6/bF/mAopcqSKgpgfb2bFEYCHUpbYHJwI1XMD+ttsDA/3Wy3Z5SlhdTH1zaZPxnYcRzHcZzHAUaIUBqGXpbmnDFKKQBUQuSltMZEUeD7XAqBDx3ZKMty7wOHRCG2zEcBB6XtgUPHo1q43isGuaoA93JIhegnqR9ysGiz3x3lxfJqsnevonwysOM4juM4jwdMqkpwxowxo2RUVVVRlpVUYE1ZSWstJbysKiyV1x+KI4dGZ+24aKq+UIsawrCoOV1rtj3GWnHYiNlUCyOCEMaYeJvdZJQUlZK9fh6FOPTczjmO4ziO8wSglClpOWMEo6oQUqpSGECUMFbkeVVJzhkChNPcDAaYs+bmWnH31w6tLI9GlVWYM8KwTKd8WGx4O+drC1M1RFAhVDeRSQZVoTrN8IJzp5VEk5Edx3Ecxzn1lBSiklVRMkoBkJBGAxhCESZKg6iEUrrebOGNnhBG9frJfbsPzM/PLCwtQRAqRKzSNYyWmv5ijTc9VCZDY0ypoTIYU7x1y9LO7UuDbm9zPZ+M7DiO4zjOqUcpIQgopZ7na7B5qZTFGghiHrJWCLOxMcAI4c6sF9SoQGUYe55HMRVhzNNsmA775UipTIBQZVqtrg8PHx2s9zLm+0EcSKX271/OUkuIy+kdx3Ec5wkghGi3QopQMspkZQATS9jmKC9KqZTVGm9u6n5/iAuphIYgZl4QJNkIIeFzC6rcXE/r9bDdmd3oi4cOFaMC/JhPTTXCkBtk1rrd/qCI4zYmeDKy4ziO4zinHiM4CkKjFQAIZYSyyhJpMeW+73Hfx4SAUhrnmRmOVG+QV8JkabW+3k9Hmx7Tl1561tTs7IMHN49tZH4nmtu+FNRqUgtR5gjzUiEW+kmRIree3nEcx3GeCIzhqiqCICAYGwMGSKmh0lZp6/s+58z3MQDBSWo9LwzCCFOf8gAhxIm3dctiUZb7Dhx9YP/GoGJ+c8HQeG0zzZKiHgW60oNhaWy5OchL4Z5l5ziO4zhPACmVNlpIGUahVHaUytEwtxZrYzzOMMaEGIwQnl0IGy1Sa9SFKXv9biOOGq35I8eSL33p6GAo5ubjpYUZBKzfFdkIVAllUhVp6lN71o7FPAGwLql3HMdxnCcA4kFu6FAWhgL3wGPgE+wTapQcjXoUZD1EHtGYEVIWojfoD9OEB5yQ2vr6aP/BzbPPnzrvwiU/4hvdjWNHDh89dBSDopRLZRlDCwvcWrW4EFqX0juO4zjOEyFJqyQ3AFhKyTlFFqw2ohJGa8aolFIJixBgrJkshJQl8wEx79hKd/l495KLd1xw8YUbw9FKt6etQFBxImeman7AM6UAAefRYDDwfIzchDzHcRzHeSJgZKsiJ4ADLwBtfY64R4uq0gYxL0KEY4qFthh02azFjVqb0EahsEJ2+/ZGvR7+y7279x4ervWAct6oBYtzcbMeIEoqgyzlWiJCqbHC85/8q+y01mVZJknS7/fX19fX19cHg0GSJFVVaa0nazuO4zjO46LZbDBCq7yQufCYJ5XVFjBnmZBJWmHq+2GEMME+t0HAtMajpDKYRs0apWTfQ4cOHeumAnoppEVJsfUwpMlAWasQ7/XFcJQDQBBxSp+0ST1CqCzLcbsuhEAIcc7r9Xq9XmeMIYSqqhoMBpubm0VRTH7YcRzHcU4xKXWz5gXMM0LFQYQxFkoz35caDUdFJUwlNOU+9v0AIVTJnHio1m4qjCqhklGFMQEMfogIZR7zQOvRsNAGC40KYY0hpZCcUSmfnEltVVXr6+tVVdVqtSiKOOeUUkIenn5ICKGUcs6jKArDUAixubkphJi8iuM4juOcMlrrMIyUkFab0WgU+Bwh0BYY40pjIXWSV1pbnCQyKwRQFXX48fWVlfUh82pRLeaeH3hsdqrWiJuMeoAoRjTLiiwvLEAltbW2rKRSajLyGc5aOxwO8zyPosjzPIS+z/AExtjzvDAM0zQdjUaTpx3HcRzn1MAEA0JAqDRQFFIIBRaKLNdKF4UpSsEYLYXAhmDmR0JDUcrjq7lBeJSWeV5VZREy0qnHURgMkxzzcGp2WkqJrA0Czj3ue2FRVlU5GfiMZq3t9XoY4yAIMP4BBiYwxmEYAkCv15s85ziO4zinQFEKZTT1OMKQFaYsNWecIqyl4hzSVFgAKSXeetZOhfDqulhfK1ot3pmOjyx3j6+mVWrqAan7eNTvH18ZSAsGU61t7OMwIHmZjZKsLIy1k4HPXONm3vM8xtjJ5Xv37r355pv7/f7Jhd1u9+abb963b9/JhZxzxphr7B3HcZzHQV6ItKqAEGE1wshawAh5hGOE4lrg+zjwOQLAK+v9lfUhIG6Bz0xPU8qkBamgVYfFTiDSjXSUcB+AMWEkIRB5lmDFPZpnosgNfRI94SZJEsYYpXSi/Oyzzx4MBu9///uNeXj3AGPM7//+7ydJctZZZ01UHl8hSZKJcsdxHMf54SoKWyrJ40gjjDlIactMEEAeZZziKORKCYQAf/O+Y1kOgAETIyuVjYQBmFvwti1NgS5UVS3MhYtLUwZZbXUco4CB7xHKGKYsCCLG+GTkM9N4yRznj/DjEEJe8pKXHDhwYHNzc1yysbFx+PDhF7/4xY/Yw885l1JWVTV5wnEcx3F+iDBYsIARopgyTClQQkBrzigCRAgaDSuMACtAgKiRYKWVRVkkCcOoEYbJMCmyIgpJ4AGG3KiRqTIswFYkL+D4ZiYN8gPie5Nxz1Cj0cj3/cnSb3nqU5/aaDQ++tGPGmOMMf/7f//vVqt12WWXTdb7Ft/3XVrvOI5zOrj99ttvv/32ydInhU6bMwLpaOBxJpUJQ4KIrmQhpfQ5FxVUAgBhcs6U1lXFCI2j2BolRDndbtQD31S5T6zHDKUgZEUIQsCrEg2HsptKzD3P94yueHPx8p/995PBzzTjBfHf2W9/8ODBW265ZdeuXV/60peEEA8++OB99933hS984f777282m3ffffc//uM/3nnnnVu3bm02myd/ECFkjEEIfec1HcdxnMfTV77yFSHE0572tMkTZ74vfvYvZd7bWB+12nGelxaAezzJFEaWUowtElJSinEjiijGlCCfISVEwIjPbFkM4pjXaoHWSBlLg0iRYKTwZqlXEtMbQjasBptZmQn8/RahnRHSNH3EfvuPf/zjR44cCYIgCIKFhQXP844fP95oNH7sx35sYWFhXH7o0KFHvFvknLu03nEc5wlx2223veAFL5gsBXjBC15w2223TZaesYqi1NpQCgghzkleAOeMc+T71BqgHrMWFaXGWgoMBqTQoop92mnFZTHq90opMyEKKa1SWCgyKNDRjez4UJQMN9t1inxsiEd5nueTkc80WmtCyCOumzfG7Ny58w1veMMb3vCGN77xjf/xP/7Hsixf8pKXjEvGtm3bdmKm3skwxuPMfvLEo/CmN73pEf8tXnSSZz3rWbfddtuJt4/4b/ruu+8+cZ33v//9Jw727t37bfUAbrvttrvvvnui0HEc50z0zne+87Of/ezHPvaxyRMAH/vYxz772c++853vnDxxZhqlZSWUMZAkKaOEM2uMqdVCC5CXpVIKEWQRwlYrRhCnYEQOWsqysBY6U2xpaT6uxZQgKW0pcL9frHdlWoDBWCnJCXAOSgpz5m+RJ6V8lH3sV1xxxdatWz/3uc9NnvguGGNSysnS7+czn/nMli1blpeXv7Ppfc5znrN79+43vOENu3fvfs1rXnPdddfdeeedu3fv/q3f+q1f/dVfnag8IY7ju+++ezAYHD169Lzzzps4+9WvfnXnzp0ThY7jOGecXbt23XvvvbfeeuvEoOpYs9m89dZb77333l27dk2eOwPFUVhVcm6uI4XyuB/XPKUUIGusVVpVlfQ8ihDgwCftRlQLPQzGKmm1whgCn1kLVSkJ4UHQCHg9T6oiA04hYKjTCrZvm45DRLDtdILJyGcaIcSJbW6/rze+8Y2veMUrJku/C4zxD7pF7m233fb1r3/9hhtuuOmmmz796U9PjAvceeedF1100fve976LLrroq1/9KgD8wR/8wTvf+c69e/e+8pWvPLnmuGPg5ptv/sQnPvGmN73p/e9//2c/+9mbb775+uuvv++++66//vqT0/q77777zjvvfM5znjPuHvjOjN9xHOdM8e53v/utb33rIzbzY81m861vfeu73/3uyRNnIG0sYDxMUkaIlFIJIaUQovR9H2GalwoTTCjBYcDBSE5RIw5rcagUYKBh2Fhe6Y5SYQDHcXNzrSszW2MwE9PtM/WpNlFm0Gqy6VmqzQ+cs55ulFKP2HX/iHq93qPfGAch9Oh3C7777rvf9KY3zc/P33TTTeOS8cErX/nKz3zmM+OSk3P6ZzzjGSfqPPe5z/22awEAwO/8zu/cfvvt7373uy+44IIbbrjh9ttvf+tb3/qzP/uzf/u3f3vrrbeenNbfcsstn/3sZ3fv3r179+7nPOc535nxO47jnBH27t1br9cnJt/VarVarXZyydOe9rR6vf4kyGqGo0JrsBZbiyhlRWmsRRhjYw2mVIO2iPphhLXUo2GltSaMCiG0MlEQpkne7Qo/CJvtqaLSaS59jrbOBVtm6q0AkE4D3/g+Dnz26LPh05ZS6hGXxU/Isuytb33r2972tptuuuk3f/M3H80EBYzxo3ys7a5duz796U+//vWv/6u/+qt/HYq/6KLPfe5zt95668rKyrixPzmn/9CHPnT99ddfdNFFH/vYx173utdddNFFj9gZdcstt7zsZS/bu3fv9ddfP07xr7/++uuvv/5Ehfe///0//dM/vbS0dKLX69s+7ziOc+b4xje+8ZznPGei8JWvfOV39no+5znP+cY3vjFReMbhnjcYVvVaQwhpjfF9wjnz/aA/TAFhQllvkCltsdZVGAL3mQWLKKk3QgKoSNJ6DDxgSVkcWl5e2xTCQKMeNWOPo8qjxmgJAFFYf3QN2ZPB3/zN32xsbLznPe/5r//1v66srDz60fpH48orr7zpppuWlpZuvfXWcdb+0Y9+dPfu3eOhpuuuu+6FL3whAIzT7nFO/+Uvf3lceZzo/9zP/dwll1wycdl3vvOdg8EAAM4777xbb731rW996yte8Ypbb7311ltvHVf4zGc+MxqNTvwf+OM//uNf/MVf/M75AY7jOGeEJEniOJ4sfSRxHD8JlkeFYSiFXVtbb7fbxhjGCGCjtdQWKqW4x421RSkwQhDXfIQRZpRw3huWq4eHIUWRzwbD/rHNzeVeZX3SWZzlcZQWSZqmRkMUNhkJjxzpD/pn/E5wlNJHM0P+4MGD27ZtW1xcXFpaWlpaOnjw4GSN72CMefR9HidPpH/f+973y7/8yyfevulNbxrXOXF2fHDis7fffvvVV189MS41nlz6nOc85y1vecu4vf9Oz372s08MFuzatesZz3jGy172sk9/+tOT9RzHcc4EtVotTdPJ0kfyKKud5sqyajSCJDFKKc/zrDVB4Od5aQwkiVDaBoGXJCVmnAZRyDiljBmw1podW6NW7GkpZ+c7XsxIhKe3NCyj66NBYaQfee2puWPHeoeP9GRFPC+cjHymoZTaR/Ggnuc973l79+79+Mc//md/9mf79+//iZ/4icka38Fa+yhn9QPAeCL9X/7lX56c03/0ox+98847f+d3fmdc5+Scfvfu3Sc++8pXvvLKK6/812sBDAaD5z73uS960YviOL711lvf8pa3TPTejxfdnbg52Lt37x//8R+/7GUvG3fjPwmGrxzH+RF06aWX3nnnnZOlj+TOO+/88R//8cnSM01eFoBACEjTyg8ChLDHPcYIxoApaKODIKCU4JB7FBiyPE2KMssXF+L6NNNUeFEwNbUt5J1Oa2p5ZXjwyDGtbavZQdzf89DyRqIkxSMtLH2EDWfOLJzz7zuabox56KGHAOBTn/rUX//1X2OM9+3b9317Aowxj7ghz/dwIsMeu/nmm09+O26D9+zZc9ttt11//fXfLVMfN+Ent/3jHvuTe+9vuOGGE2f37t17ww03vPGNbxw3/Ndee+1NN930PS7uOI5zejrvvPNGo9H3HYK8++67R6PRk2D2cSVBGVRvYoRNmecUoarMAg/FEfE4FkIqrTyP4elmpCtdFVYWliBMqKlQimIetGYOH8uOHEoH68IDvDjdnO40RmlxfHm4MZQjZRMjU6vXeqPJyGcaxtj3nSH/pS996Y477njpS186biavvvrqT37yk+N1bt+DlHLiAbjfW7PZ/Nmf/dkT+fSuXbte/vKXn5x2v/KVr/zgBz94wQUXPPWpT33Pe94zPvVvbJJvv/323/3d333/+99/4h/90tLSf/gP/+EP/uAPJqs6juOc9n7zN3/z5ptv/h6/GAeDwc033/ybv/mbkyfOQNbatBKlNoBJnuVx4DNkQ58RZAmlxhglpc8w7ve7xgopyyzPpNBWmSoxoqAHjyV/9fcPLI9S8PTlT13aOhturKzue6i/Ooi7faIEAaCVgKz4Pnnt6Y8QorX+3h34n/70py+++OKXvvSlcRzHcfyKV7ziwgsvvOOOOybrncQYY619NLP6x06Mwb/0pS8dj9O/7nWve/vb335iSP688867/fbbf+d3fue666572tOeNt54/+TR+sfgne98Z5Ik73nPeybubV/4whfW6/VHnMzvOI5zOrvyyisvvvji79brORgMrr/++osvvnhixPMMRQhSWlPKtAUptNZgNFIKlDaNWoQBqrKy1qC3/jvOGCqVDCOP8sAYXCTlZi/ff9SwkF186dz8QiNL1tPRKB/hMmdV5RFcLm6pKVNs9PrB4jPe9b8eXu195irLsqoqz5t8MN+73/1uxtgb3vCG3/u937v66qvPPffcE6fuv//+z372s69//et/+7d/mxDyX/7Lf/m2TwKUZRkEwXde03EcxznVbrvttg996EOvec1rfvzHf3ycyezdu/ef/umfxoXXXXfd5AfOTFe/4Kf2P3BP7DFOMEdIaW0BSiktwZR7ZSFFqTklGIApEEFsGlMUMGxuikMruTA88OGnfvz82U57z56Du768/i8PlkNJK0NEWVAE68trK8s9ymJMfrBx6NOT7/tCiO+W1hNC3vSmN53czAPAhRde+J//83/+blvuGPPwTMjJE47jOM6pd911133iE59I0/Smm24a94zedNNNaZp+4hOfeNI08wCAwFKMlTJlIRHiRaWFRnkJGKOqKBhBBIGoFPZDr9GIOtPhRjc5dKTXG2U04CSgT7v83P37j919177jx8qiQv0RrPfzQT4UNvF8hZH2fe4HkfkuTd0Zp16vl2U5WfpYlWVZr9cnSx3HcZzHy9LS0nh70PFipdtvv/2GG24YLy960iAEIYS0sYBIXgpjsLao3owJxnFErVEY40oC+t1XNuqtqDcodj/QHyQwPePXIkZYtPeh7mBkKfERgO9BVaWdmagUhbV2oU5EpkhIZrecs6bb7/3wX08GPzONRqPxVPwTJTfffPOBAwe2bdv2bfW+3aFDh84999w3v/nNJ0qEEAihic0XHcdxHOeH6yUv+Kl9999rpeaMcsqUUszzEMNxhJVMRwOlNZESsB+gUZru258MEtSZqfm1OMur48fXS6WCWq1UqqwqTnEj5KospTRB5BEPEQYW8EZvsyh+sCe4nM5qtZqU8uR5+K9+9asvvPDC8XPov5uLLrroF3/xF098ZHwF18w7juM4p5rSFiOoFAAga43SShuttTZGx1Hk+xysjeMY/f4vtvcf6a9uQNxuY99f3dwQmYiCQBtrNYySCiFUr3n1elRVWa9ftNu4GZjQx8IG+47m0dIl//tT/zAZ/Ixlre31epzzH2h13AlCCKVUu92ePOE4juM4P2yvePELHrzv3iIrPIJ9TqVS3GfKGoz0VDtKU9XvF1FcxyvHiipH84tTytqDx1ZXu2IoeC+RIKuZJpmqIwyGBQQHvgJoxKjlU48iL4iyTA/6lj7azV7PDAih8e7BRVF8341xTmaMGT/zxjXzjuM4zuODUmqtiSLfgrXWUgwIG0JRWZnBMLFgGcNSC8wobzTnigKOr/WV5QAMlMIANAgEwkLbwIeAWlwluigadd8LPR6ESSJWVytKgXtPrqYeACHUaDSiKMqyrKqq7zYh/wRjTFVVeZ5HUeRm4TmO4ziPmyQrtLHGGM6JNRLAGKUCD3kc5QVYBHEjxgSw4f6R1fWDRzfyylIWMEZrEV1cmjOErffzQlmCIADlm3xpihMQvWFSKVNKTXzbaAWEPJZe7tMf53xmZoZzniRJlmXjbvkTm+ZqrZVSQogsy/I89zxvamrKralzHMdxHk9CGACbpgIhbAEwRQAWADBGWoGQmhCCMOB7DmyuCzMCSCpIsrwoZSYhrUSS5UJoUDDXCafqtUbgx5yB0AHFUulM6miqxpt1qX6ALu4zi7U2CIKZmZlmszluxYUQo9FoNBpJKQHA87xmszk1NeX7/uSHHcdxHOcU44CMQO12Q1mtMGiwBhDFAUZMCtDClKWQlcaWhn7cDKIQEFSFDHw+1QgZ0lUmqxSmO4EfBJWUCJMkk9SnPPCPHBXWktAPrEhlKScjP+kQQjzPi+O41WrNzMyM2/44jj3Pe/QPpXUcx3GcHy6LETDSHSaAyXikmWBbZkOtRBghAIusDjyCpSV5ZrQiGMDz8MJMK8A67/WwglqEfI/2+8NeP8mFSUuJmSckGSXg83ojiB+8N/MevrjjOI7jOI8rjWxlVaYMZr4XRMoAxYgRSzEghJS2WmsLFg9HZbeb9nuZrIAS8LiOGOrU/B1bw4X52FiDGQ1qNSGNUhYAEFLbtgRWqkMPHp6uwdyMm2ruOI7jOE8ATJDQGiikQjE/IoRaC0YDAiSNtQgpg4S2mHAvCGuMeIQAI1pWiVJVGHmY0EKIUmnApJIyzdM4pBQBAdtusii07SZ/ydXPiSI329xxHMdxngDGmEoYY3FSFGlVkNCzhCPiYx5UylpEKqG0wVgbBcggDEYDJghTMIhtDqvDy6NRKqXSWuskLYsMEBikRM3HjYDOtGrzc/P7j6weXd6cjOw4juM4zqmHFPiY+pQRikqZCyVKpZMSjOUYI2OhEMZYgrUWWhVKllEI01ONKIp7uVjrF8McCOdAsVJGliYOwSMWjGrW4oXZuSis7X3o+P0PHShO2jvWcRzHcZzHzXQjanqU2QpJUxZ6lEhtUVHpsioJsgRpxoBgjK1WWgtK7exskzN/o5tt9IUmjHBUKc0JiSLebGCf43qjcdZZ5yEa7Nu/cd/9y72RqLeagB9eYu44juM4zuOJmKLGqqUO27nAt0zROgeGpedJSkufAkGGWACdo8vnIA44Y6RRr49G2epaShimjATcBhwtTofz7brKs1oUd6ZnDi8v379vfZAoY4FQ3Jmu+XM7/sfH/u9kcMdxHMdxTrE3/MrPVP0DhDEgLK+qXn+AMHg+pwSJosgKk6ZQlIA7rTr3MIBJ0ywdlVaDVnY0lBiBz5FVIh32a7Wo2ensP7z84JH1zNqRhc0SqMemm8FUPdLadeA7juM4zuOqyJK5Wd5p51N10fYNLbOZiJyzNTp/J9u5BOftiJ5ydv3S82s7FgmuyqosK85ZWcos0xT7nOBOg0zVoxqnASOiKrr93oP7Dxxd22BhA3uxojhu8S1bpnyCQBTH9u+djO84juM4zql05MBuq4cUVT4pZTbUeRlT1AxUM0hbflnjIsTFbBOdt62O06xq1D2fclDISAQKfKynIrNztrG13QgwEAYbo3zv8aEkaNBPoFTbW/Xt002RFkUp03Swf999k/Edx3EcxzmVDjz0QD7MdIWKwgqNhLYGAbXYl6iOSKTNlAcNVE77BQbAgT+lNcmS0uM4jtXCnLc4W2dYl3nGqI9JbXNoqY8azdbiwnSnHlRJuXp0XepqmOWbG8n9/3L3ZHzHcRzHcU6lb9z99dGglMLXOkgKM6pgmMsshSLDeWKlsFIYJaXHMVmqBx4LklE2HArmm7PPiRZm2kqUR470CbZ+rX7oWC9sNBqt6TiuS1Ec2L8xGqpakwURH45SW0mZi/lt22a37Jj8Fo7jOI7jnAKf/tRf3fGJj5e9Fc7DrLBAg81hUZSGEERJKCSqpJIGCQkWU7JU45yRIkuiCM471+u0g+OHk+FmbgydXgi9OJIYklykme13B1WatOpcYcPDWFeYA/hITMfSyuTsy59LuXukm+M4juOcWsvLy+/6rZsOPLAvT4W2pFSoULg7KgYJlEKXlR0/XF5bWkpIc0XOmw2sHnaa+Nyz2mBFfzOJeNRqe7PzUWXQ7r1roxSEDHr9qsjSVhPXGiCRPxypEKuYVGct+k99ypYjh1f+5q/+dmZxcXZp++Q3chzHcRznh+SvP33HjTfedOzIwSLNitxmhZIGZUpbAgYZbYg2Xl7IpNCVMklustySp58dz3RYLQZkJSgIeaBEHkbeIM1GpdgcamVpVlhkrRCy1UBhTI6vFaUw22eD7XPes6546r6HjvzN3x21MDx2aO/xA/ervK9k1Zian/x2juM4juM8Jv/85S/9wz/839v+120f+/jHDhzYlwyH2GKwuFImLVUqpSVYKCMUMtYHjKmHLeZCAfE89J9+boFjpaSociFKK0uLLEIMunkBHq6UzUukBR71VKdNO22aZ6UlfH52aqZBYoYICQ8eXb3n/sFZ59HQN9Othen6Yi9XQw1aq7rPFqZqjJbDxKyntkSwMbBEA9VisUMNhlSg5Z6qAPwwUFpWmSIGZjqeFyjLouXlkVIIgBrQmBiEASFrNGgNlFBste9TqbQxVmkLgLjPMELWakygyBVlCGNqDWitjTbEAqOIYIQorpSpjNUaMFgEgBDyPQ8jrJXQSoFFjXpYFlVeKMypH3hlUYpKM0YBLIBV2hCCjbWAEAbrUQIACCEpJSGYc6a0EMISguv1wBhlrbEGlLZKQRRxQDbwWFkUlBCj9DCRYYSVBs8nM53GVCtoxSzgBoMkCAuptUJSKGORlEZpVEmbFiIrZSFUXkptwCJcFVqUFjPwIlYplBTKGFuL6Ox0VCQjoy0lnjFWKhGGzIIiGGNMB4OqFgVFWXHmKSXiiPger8e1fn+AERijACPP53lZcS8sKyEroRVUlcEEY4qCkHLOlbDJMItCv1bzB8MRIhQAELKe5/V6w+npppSiKktAxON8mBQWcBAQShEGUuZm0CvimIUB9jhmjJVlVZSKcqqkiEIvDMMkGUltKPMx48urQ+5ha3QYcIxwVZYIocDnDKMo8EeDQRTG9Rpd3hwSL6jKMg4DgklRVFKbuF6L4xCBVqKYnW6167WiKpO86o2K3qDq9oo0k5yjuEY6nYBzFXEO2kql/SDM89L3/EoIa8Dj3AIUZW4RQhjnRUEpI4RYaxmljFLP8zACihGmzBjQxhCMjDaAQEuJEAAAZdQagzEGMIwyqRTGWCvDuSeExJgQQpVU2mhOiTZaGQ0A3PcwxoAQACilGKWUEK0MAFBKLQJrjDaGMQYA2mhCCABorY212hhCCMIYIwSAx9tgUMasMcZYnzNjtDVgARBCgEBrDQgTQoy1jFKtjTaaUoox1kYzSpVWGGEAsNZijLXSnDIhpdaaUAIIE4KttYAxAtDWWG0JwgBWSUkwRhgbrbUxhDBASGuDMZLq4b8fAMAYW2O1MVprQghCYI3VxmKEGaNgjNY6jqO8KIzR2lpEQElFAGGLECLWWkBIKe15njZaW4MQGGMooUJKqSTnHCOMAGFCKikwJtZaACSlQBZjhLTWlFKlFAJAAACIEBwEYX/QBwSUEABAAGVVYoQYY1opayxYAwgMQBjHa2tdqQzjXlmVAFYbVZaCYNxoNKtKIGwJwVIIJcX83Fyv3zNa+WFICAWASolSiLKsMCZWUyl0o9GUQnd7faUt5zzNCop5XKuVIqtUqaRFAAxBLWKzU3EzZoEH3CPSoLW19PhySijlflCpinGSpgWjpCw0tuD5VGvFGBNCSmXi2DfGWmu10phQKUU95gSj4bBCyHJOtTJCGM4ZAG42a6MkK8oKIUsoQ8giAgA2DIKiKJRSPvcoJkIKKZQXIE6D9Y280fQIwUpBWVT1hl9WwhqkAAshMFijII6YlCoMfItwWYk8k9wngUeV1FWp4hqrCs054QGWCoQQUlsAQsHUQp4VshKm2a6NkjQIQ4JxnmXWWgRACCsqaY2NIk6w1VIKAYHvASGjJA9Cxn1fazsYpASjICAEY6OVEMajgBGKa7XhIC+MYpx6lJR5ZQGMAc/nUhspFWPI57SspDHge5xTlmY5wVgpjQimjFdSWAvW2MjjQghrQRtLKdbGEkYBoBISY4wxYABKsDJQVQpjygiphBBFJo3ojpLNQR+sDRhBGiOFAFlCTSE1ZqANEAuc8Ng3UWBBa86pxwh6y0u2HHjwmCytNYAQnu5EYUizsljpl14cD0al1hQp0KLiPliwi4vBzi2LPg0eeOhoLxE88JSt1pbz7Us0pigkEFDSHQranFlZWQ0r+LFzgulpJG1NeK1/+Mahh5YFVmRrS1+wrT7I7LE+vvfwMJ6Jo4a3trJhMuQjfM6OKG6Vy0Oy/0BhDCKYI6SDEBiHslRGA8GUEmJNFfhca1DGVkJ5nk8YVaoKfG6s6vfKeoMT4kup8qwwysYeroUeo9iv1Q6trGcSCGMgKyuAMswo11IQYsFa36eh7w8GKcI0qNUrrfI0VZUJAs4ZS5JMW2AcKW0BAUOYEsIooQTlRREEHFljrEoSmJ8JavV4NBoSRo2x2iBrLfdolqeL81ODXq9Rq1WlyEb54tZIS3HWtrMuueD8iBlmRj4pZNVTWqZ5UUkkZCgrNkxVmqleWq0OkqSoMqn6KRQCEANdArNQb0LU4LmkR9crKfTCDN++4A82RpiANZgTXqv5mGghC4xJGMQPPdQNPGyMiaLAWjHfCeZmZ4pcpElmrcYMCyWCKBxmeRDUK6mS/lBUIBVCmHg+rjd5FEaDbtnvJ1Od5sxs7fjyilKmLMtmq0EpXVvbPO+cbVKJzY0uY8xaJDUixEdY+AG2hqZDffRwL47I3GzY7oSqlP1hWgrDPc9oOdVuNuJg74NHp2YaG91Ra3b+q/9yfGHe4wwxYhllRZqKyrbqvsdQFPA8Hc7NzFpTbCSFwpHRChvZqIWVEFIbP46N1cjKWuTPtBpPOfeCUtt7Hzz80NHN3ftX680ZJVQc6OkWnHd2O+sfn51ZTLMSE44QTdOy3mwfOXI0SdJWowHWALLc95dXV+YWFur1er83MMZyzuM49D3Po5RgZDHRxkgpCSYIrLHGao0AOOWEEoyw1jIIOca4qoS1VkkTRnGW5Zx7GNOyLK0xkc+NMXlZaGN4GHCPE0KqqqrX64yxIs0IoQiB1tpaCxghjBnjgIBgrI2pqgpjbDFWUjLGCCHGGK0tAMIYG60xxpQxWRWMMa01xpRQqrUGAIQJWKCcSaUY5+MWlzGmlKSUSSnGTQJCiFIKxoIxGGMzblApBYQIo4CQlNJaCwCqUkIIz2OUIC0kY7ysKso8zv00zxECISqlFMa4KArOOT3xTRBCCCmlalGtrCopRD2KizLP87zZbFoAi0yW5xqsjwkB4Ny3FoyxQj68r1en01nvbgCAUDKq14ajEaeMEmoMQhgppaTUlDEA5PlBPhgSTKSUBND4Zxm399ZaznmW50Aevh0hCBljjDGcEqP0+G/DGN0dDSqlklGJMG+1p4bDQV7klSzKsjAaMebX67WgHmBrjx87SjGqx/FoNFpcnN9x1tlrG+uHDx9tNBtZlShltm3bse+Bgxj4Q/t6rXZgAPf6I+5xodTc1NbRKMlFX2ElJSAAEIgYu2UhPmdHY3aGNOpsempGKu9LX7p/dS33w2ZelVKr7iCdn59aXdkwRsehzxjDGA+HI4QgCMJ2qyOEGAwGYRgtH+9u2xpzSnq9obXQaNSKXHX7RatRF6qcm5tNsyxNyrIqPd9H2DCOiyKfmZkqijwZ5YHHsbUIIW0k48B548F9g6UtEaW4KFSWFjMzYZFXQoJARFSKYoMNNGJPCemHPvWC0Sjr9kvm4XqNFqmwBtpNP0uk55NGiynDB8ORsAaD52PbqQf9UTHKqkar3h2M6vV6GEXHj69wgjnFnheMsqosxFTHDwOSjfI8t1HE40YzSdJClJ2ZKUL9QwePam3rNVILQ1kVUiqKEEVobmZ2eWXQFwUJvFbNV2Va5FpIqNVrpTBpljEG8zP1bn+kNUS+H/pBlqYYk0pUGoi2VkhtMQp9L8DIGFVVChBgQoTSlDFAOM1LhDDnllpoNcL+qKyEBYs4xVUhMQEWeVlVVQbAQOhTSlhVaq1UvRkMR5nnQSVASMAIAgKhD8jA+D6VdCBLR8ZYpAzUGpHGaHNzaJHVgAF73W5JQTdiUq+Rej3cun1xamYxH+V33fXgaq/MrTaMDpM89JEHFEkEWjNmDcLMr6+sJ0RjCqrSppcbRb1CK4UipMXWac/zIa3okc2ywiScqg2HadKXRANDdmG+xn2y71CaleDxQGtpQTNuKKYYcYJ5FAbtdtSIfbBWGy21MgY458YarZTWxmhNiaGMVUIjhEUpjIHIZ3HgAwbK+cpmIoBwzkwpCcGBF+ZZpZTxfUop8n1eCgGYUOr1kxRhwAi0NgghACukJgQwxsZaiwATrLQGhLSFSmjfZ4xSJWWz6deiaDQaUsow4wjzJC3TvOKMUAaB7w2GGeck8IPLLr3waZedzQkwjEPGGVhitMjTIsuKUg6yKhNofWBW+tWx9XS5Wy53i9VevjkyqYJKQyEBM2yAAjKtJm42A6F0mitkoV1jMw2vzAtMWbPdtkrGUaC1NMYEPEBAq6pE1jKKPB8FHmnX/DLNR6NRbyNb2rJACMmLjBCqtKmkwIhaa4QwCDglmAfE2hIAG23StPB9HsXecDhKkjKueb7HMIGqqkKf5nnhcY8RQjARpWScU2rD0FfKIOSVZUkZtiA4J9yjQmplMfO45zGKwBo9GmatTh0TIrQaDIrp2XrgeUZJDKCl1ALarZARhMAC6NnZ6eFwmFWw3s0ZBYo0I6rdrnFOMDHNRjzVbsqqfGjfcR42e6ncve/ogaO9UaoZt1Ntrx6ZqQajqhR5oS3SBq2tb66udYWG4TCpKlGr1Xzfs8ZYsFILhJDv+4xSa22j0ajV4katRhCiBBOCpJQWAWOcEIwJQQAYEMGYMS6rihJqjVFaCiG0McYYKRUgZKyllFZSSK3iODJSepxjjDEhYC0gUFr7vh8EQVEUCIBzTgjR4zab0nEKiwCqqkIYG2OEEAQTAPA9j2AipbAGwFoMIJUCAEqIkoJzbq0lhHLGjLUYY0qZMQYBwpQopU5EGXdfYfxwc0cptdaO2zzGmDHWWKOUCoLAaCOEkEoRQjDGxigAA2ApJdroqqoYo4BRJQVC2BhDCDHaMEalVJxzhFBVVYwxsBD4vrVWCAFgpZCMESllWZaMMQuAEaGMMu5bowFZjLGxYAEY5/hbdwnGGgCw1iBGMUKYYAQILDBMpBAEE2ut1ppibLSmGGOMtZKAEIBVSmGMrDFSiDiOLbIWLCVUKUUotdZijMZXGHf1GauzoiCYJWmWJlmWpqPhoNVqNpuNVrMNFlVSJHlmwTRqdY97nLIoikajdHl5Y7PbG40yADvTabYbdWSwLNXG2lBUwhpNKFFGej6N4lAIORgOGccIaUIQJb6owFhUClWIEjHkB4HP/bIs5manmvWwKtP1tb7RkmCiDU7yklAcBH5VltoYAEAIS6E8z5NSVlVFKZWyrNdqnNOqKpWyjJGiEEoDZYxzHsdBWSZa6zy33KPGKM/nWivOmRAlZwQBKgsVxyEiWFttgfUGVVz3CIGirKS0fmCVMnlhLAGEEB3/spWaEjDWUEql1gq0sRZTKyrr+zSKfSUUWBtFjGBWlIJSpBVwiqOIF0JXUlkEUluLcJqVeabCkIAxhHNtoCoVIcbzsDVGK6s0whg1m41RmgipMKZFUVhrEQKPEbAWjDUSY8Aep1kuMmWA4MDnHsVCSKWA8UADFqLCAPV6MByWFgAjYIRorcuiYpwBgNIGEJLKEoJ8jwa+l+WlRaCMsQYwwRYhaw3CKPC4kapWq6VZTgjFCBAgawzC4HGqNGgDdNw1SJE2WijjcWKtIZgYbQCAMkwwwgDKgFBQlUCmieUeVdZij1qGVjdyj6IoqktN01RUlapHMDuFF+abMzNzSvHdD6wcPNTNS1soW2/5COE8rUAjrRCyCFnNOaGUJZlY6VXzMzEj1njRQNDdD21UxmrMA1s0PGmQHlT0WDfzW81Ky421hFpgBkIP2u0wy8XyhpAaEcqkEoRCECBGfax9WWmjBcalHzClZCVklo+zCqK0ppRKoYw1BFEhlbagjalKTQk0a6HHqDa6UrI7EJZgRAELMzvTUtJUZQUAWpswZoxTYxFjQZaVUmsLVhnNKKYUl5U0FjhHmGCELGEEE1IpbYwthUIIwsBDCMBYTok1xhqLKU+LSmmb5cKAxRRZqyohtTYzs1Oddue8884lWK8cW87TgmICRiAtpShHadHP9dpAbo7g6EAc3UyPrKerfdFN5Ki0lQaLgXnYIosxRYRLKWsBajV4Wcok1RSTduyBTKOQMr9mLQZVegwjhGSpKPaiMDbaKCEajQhjKYVanKmP+v0kUUbB3NwMxrg36GNAFqM8LzgPjFZFIcHgIOKNVmiRKstSSkOZJ6oCEUsZ5LmYm2tZqyjBFKE4CquyaLdaYMHj3rA/xJgEAY3jsCgqzuIkKeI4UEYQZhqNelEJi3ElBYDxGDFGVVXp+Xx+YX6z1zMgKcMMIy0kwdgqpZWd6sSc0qospqbacT3eWFuTlgxT4zHVavjNhm9NpWS5ZWlhy7Yt83NzjTjuJ9n9R7oPHll/6GA3L/X8fFSP7M4tDQ/yqVpgKtVpz/WTrNJGKKM05l7IuI8JGfdvz0xPhWFgwXY6nWQ0JJRNdTqe53HOKCVGawQAxkglAWNCiDEaYxwHoRACIQwWrDKcMUapNhoRRCkFwJxzoaS2ljKqrQUElFGkDaNMCEEosQg8z1NajdvvqqpqUQwAJ9pgYwwCEEoihNI09X2fc660Hvf2g304E8UYj7umPc+jlHqcW2swxlqbcZpuvvV731prrQ2DUGklpAyCgHNeVVUQBEqp8aUIIUopa824TTVaU0KU1g+3r9oggseDCJRRRokUJcEYIeT5njbaAhBCSymklFYbjDDnHCNkrSUYU0LQeLjCQlVWGCOEDAbw/cBoDRb8wPd8vygKQDiMYkAgZAUIEMKAsOf7SkjGWJZlvu8ZrY21YnznAQAGwBhQpsyKMAiJxYwyignGYLUGsEIKSglCQAmhlCCALE3DMMjLQirNGSvKkjGGAAB96y8XASWUMJLmOSBCCSuLSkpBCI7DsCgKa8DjvlJKYxvF4dLSUjJMZCXA2CzNut1hnpfaAMaoyEZbF5fiqJ4Ms421vucRQqkfhNpqL/C01aPRkFIgFAlpEFDGwlGS+0EojRllwhDiMc8KMd4EfaoTRj5dWVnX0mSl4X5kEM6LMgy4sdZYixDilFtrlVIIYULI+JZOCskpq6rCGMAESWmsJRZQEPmY2N5ggBDW2nKPCik4J8YopRUl2BjDKKMUlFbSmLI0xqJhooKAcI9WQmKE4xpjjGijDSGUUo8Rgiyy1veZ1ooyJpQChIQyUeQpqQAgCHiWVKLSjRbFiAkpEcZlLhDSQeAlWVWURgOyFrJCG20RMoRgpU0cRYCQFBVGNgwIowTAEIwJJdZaQslwVAghtDIIAUGIYMQpRdaANaKEViNWBnXTkjCCQDFshVBCAqWcEF5WFUY2jliaCkCAEfI5IwSXpVTKGGMAI0SptlYp7XHk+0GSFQiBRQ93WY2HzsACJdQoxTy/rKTFCGE0TjUZA0yoVNpaxCm12iJsgSBtDEbAsGcN0tIgjCgFjxFKiNYaISQ1kB3NIK7FiAP1aVqWQUSmWiHBpD/Ms0JMtfy5mWhpoeN57PDR1XvuPbYxrILWFA5CCqrGPKggHVaUI4MR8ylowwwlQNa62TCHZs0fjPKKxt0KHVzO8kppK9ueno5AUeimZigsCvhmd2AkDohPQc3PxoSg5dWkUEQo5HHOqAkCE3BGEUtHuiql0TIrdVWUSikLkBfAKKaUaWMxIlopCxD4oTZWSFUWGgCikDJCsiRTVmVllRaAKEIIah5hiIhSWm04pdzDQcgqKQBhIXSaCeZTpTUhiFE67iDFGLjH8MNjftggUkqtNZQVBD6p1SJCEBiDkAULlOCyEkVlpVKY4LLSGEG7U6vFvNWKoiiuKrG+vs5pkGdlvVavxV5VDfNimKSjXlpsjMzR9erIulwrxOpQDFIoFVIWWwSEAeNQq0UEgTUAllqtAmYaNYIAD0eaMxZznA+qeo0mhcoL4WPtcxoFYZEXUVhjxKuKEpDtdBpKV/OzNSOKZq3R28wbLX9xaXFjczMvSgCLME5SUavVlBRVpaTQlOEo9qoyAwQYaOCHZZlzD4ehX2RFrRFSDFpJynAcRWCR1kaUFVhblrISyvcp93iWFZzH3d6g1qxZUISoIPCV0nlVYYzLouCMgDXWKu4zztnq+gahgDEGC1pK3/MwIFEqijWlxBi9ZctSUWQWQa3eUVo26mEtYlFEEajp2fYll11cVWL1+IoxKKnsXftWjq8XxsL8XLxlvjnTIJ0mHaxtMIJDv1FvzGiMNro97sWl1J2pmUrIshRhGDBCKKNZmmitEDJ+ENZqdULo+FekNRYQIhjBuH+c4qoqKaNhEFhjZSUZZVrrwAsZYwghoRQhFCGste7MTFdSKK0IoVqrcdNIAVGCpRTc49ZazpkBQwimlGCMOKNSKkqplHI8VwAhpIymlD7chT4eSNcWASIYA4A1xhoYt8ecMykkxlgIoZQcj7hjjMc/i1LaWssYY5yXVc48zhkzxkopjTEIIa21MYYSorQhGHucV1U1HpsHgPGwAsYYMEIIWWu11RaMsQZjxCiljAGABUswsQgQAoIpfrjDACulPM9DCIqijKKwLEvOOSZgrQ58DwBEVYVBaKwxxkqlKPUIoQjbUuaUUMKYEFIIqbQCa33ft9YgC0maUo9zSpEBbEBLyTD1GUeAjLZWayGqKP7/t/fm8ZZd1X3nWns80733jVWlqlJpQCNQIECIoY0ZbGNhQQjIJICMTXeEMek2VujE2I2HdtIJYBuDnbRpt2gPncZ0EisxNvlYoQ0JhligCaEBJBAqqaSa3qs33OFMe1ir/zivnkpPUlGlEgRU9/u5n/s5d59zd7336t7z22vcWdu23LnltY6RXNsG59M0JaI0TRrnW++FxBCjtQkgAkNd11IKJvbeB4p104zHYyY8cvhIDJGIjNH9Xs87j4BJnqdFFnycjCZ1VfbyXjkp0yTrDfqIIs3ywcyMr8vxcKKkqcZVnmVLSxNGOGvntl6/WF1bsYkyViVZEkJQygYPTKJ1zlgTOVaeKhdC5S1wliiBTWJjlsqzd501GrVHlusky12E1jmrsftNYyQfu89dtNYCQJ7nVVmVY58X1nknNQohiIRrY5LmiBTZheC0SozSQkKM0RgdukASQPBBSlRSNo2XShFFZlFWUVs0iWlbp6TMC2mMdp58BEBUgByDNdIa7Vywie2W/gRsU+MdT8Zx0DeuDURc5MLaLEb20VcVCYBeL2ka5zxJpSJh63l2Nq+rNk2URJBKKaWcqwVC0bMCMPjIAErr0Xic5UnTOhSSGZhZIFCMM4NecEEK4MhaSynV0rjWRjO1SsOGBwd0lvWqqoqRikIzEQN4R0pAYq33rfegtJBa+UhKa+eiklT0cue9kEJKGTgGIiKSUjGjkhIAiZEQfAhSSQZwntJUMYjaRRSaAzMzIwsFxIwMgpVAzcTAUSjUQggUzIBSRyJ59oyc37ZARG07yazop3qg02pcts7Nz5lnPWvXYHZ2VMav3XPwwJGm8oBK9Ab94H2mtB9VrmytFkUvsYkGIglghfIy23+0kQp3b++vrJVrbVgahzaQFiBjnMt1XthIYnm9DWDqlkbrPldKx2Al7to9P66a5WEbWUkpBonVGIxkibKugo/RxWhSCUBCCAJMrKEQtcYYo7Gms5WlklZriiHGSBFSq7RSMdDq0IPisoUAIKQAEsbY1jkBETn2+2pxcSZyLGvnAjRtDMRdpoeSEogpMgIm1gqQIRBHZAJQsuVABESQJqLIs7puQtvmaaaUaJu2dYEFRmKEuGPRXPSsub2X7Nqza6B1LOvxsBo/uP+oUXo8rGd6PQHtaH258XFpzR9YCwfW49IYVibq8HrtAnqPKMAotFooxMyaQZFojM3EKwOOgtRypp+kRk/WWxARmIQga7j1XgpIDM8UidHAvjZG93rFpKnW1qsQ/dqa00YoqZOsf3hpvd/PiiJbWTkymCm0EW3rqypqIQAloKidA8GoIAQ3OxhwjALBeSeV7Rcz5WikJSmpEGVVlXneX12dBI8u1ozUMi+VbTYzwyico35vsLx8tChSJk8xzvR6aWLWRyOtJDOAUG3rpBJWK9dUrnWDotc2HgAJmIgEMsWYpbLfL5QUw7X1unIxROQYQzO/bSafKTzGbTvnn/Psi4xW5agZj+L+h0cHj7ojwyaGmBpzzq65UA9zjakSRgojNQK2vgUja9dOJrU1udG5FpmUBkEygpKy8S0iWpPkRc9ojQDGambWWglEBojEyhhiRiGlVMxQt43Sulsv5mkSgg8hAIKUigGEVmmaEXPbthtpO3kefbBKSika57SxgIgoXPBaqsRaiqFX5ADIBN6HNMmUUsRc1w0RGWurskbEGKnIC5RSKmUS0+WMtcEJKYVUMRIKlEJJlFIoZlBKR6IQgkA0WmstAChGb5OEgb33KBCFlErGEKUQUiAFnxhTtzUxtc4ppZk50saDmFEIIUWMwXuvlaYYg49N1XR/GaIu5461VCgwBC8QYoxaCymwbZo0NcG3SolOMq21zjlENIlljsCspLKplQgSkF2QqCSIalwKgRIlMEgpfQhaa9M5XoSM3ofQCgAA1lrFEJij0QqAm7oCJiUlCuySGZVWkVhJpbQuJ00g0laHELVSTVURBQlAFCRgjNSlMYKSbetskvQG/bxfJEnivRdCBReQoClrJTUHWllaoYit84CCALwPzLx92yICSYl5nt/7jfuFUAwoNfT6WX+QKUmrK2t7zl4o+oO69jFEATp6Ih8QkSkysBKCWfgmRE+IwiY2eo9MMzMzIFgYKJu29gG1MIlmiEKyRPCOrE18pCzJ67Ls5bptyjrA3OJC01TAmNqMWfhA/X5G6KXgPNMQGRlCpNYHEJIRJaAx2mjJkaxNJ1U7uzDXto0QejwJWos0tXXdaolAUaMCBhcAGAVC8JCklkH4ELVN6+CFVkrLzFoKXLdBKUBUrQt5nmqVTKq28dEzo4AsM633dWCllKDoAy7OF+24MokOkQBIG8UxRqI8t8AQKRKTtSbEGLxP01yglELEGL0HZVSWZSF4qzVDDN7ZVK0NW5so4KCVEFIQkRSQZ9lkPG49J6lNsqSumujAGDZW+hC8h8QaFMgQEESMMU2VkhKYJWAk9oECQ0QAwCxNQ6QQgxQCEbz3SggEdG00RgWGSIyIostQhS4Mj0QgVZdG2gKyVqgFC44IICWGwPKKC3tS8HC0qhDTxPRs4stYjeo9581s31646NZH/tY7Hn7wADUeWEFWJMyhWl+nplXMQvJgkKFGgdS6RkRSUjldHJnUCcdeGhsX0tn59YaltIXVonW9wgghJpMGdRZFdvjwhCMUibAizPXT+cWZBw8eaSNYmxupNMTQNFYKIVRdOZ1aF7yQUkotpBQoE2vYO6OQiSLApPTaKqslxQAchcA8S4w2QopJVUeANFcuEgIoYTgio0hTheAF0MxAZ3k6qZuyDrWjNhBKmWUGQTjng2cpOj8KMoN3gRmV0CyxiUEAdkG/4J1vXVFkUgAjMftJzc5zUcAF5y8+99Kzz9lZFDYkyi/O97aftU0ZvT5a+/o9R9uq2bNzB3K7srK0OvIHl+PSCA4N66WRWxtTJDI6gSi0YKvZapGqJFGyX2itYj3yynAVWdtkdpAmkttxozPpCfLEFhmhgC7dNE+lBGrKWinuDXpV69ZHJQoMxEmShRhWVodtG5NEtU3D4LUWzjsl9XjstNZ50Y/MtWsCkzHSGqWFJN/G6KUybRvHw8lk3WUFIwotjZCcpcWRI2MAVQxUr18cHU2WW8oGfSAxGU4k4tLSKE1lYpPVlXH0tUCQwFXZLGzb0bTx8FKFQP3CCITgvFGWQEpja9fGGPIiNRq0QoHY1pUUwlqDIJeX17IMdpx9lgO/a8/Oc8/dFV0lWB45tPbAvrUja3TvviXUSkDopeq8s7dtm+mN19ck8/zcjJKY5zbvp6OynFQVgExsLlB7FxObRopVNQZBIXgp5Pz8gjXWOSclUgyJNYiCgQXKSKSNDYEQZYzkfAABWmsmZiYtZNs23rcskAGEUj7EUTnxzrfOJdbKLlGegaInis57ENLYJIRIDMCcpSkTCQQpdYycJIkQYjyeaGPG43GXxKa19jFsOCSFEFJWddU4J7QKMaZZBigixbpqFUpEIYRkJgQkilmWSinatk7ThChKKQA4hqC0rpvWhxCJKERrDAK1dcMIIYaiVwghlTI+RCGk0lp0aa4IiBCCV0IZY4CBiZEhS9LO0tJKKSUpUucGMNZ0tz4BoJUUAkJwIfhe0ZdSeh8AwGgTKbrWCYFSohQYg/e1U6iM1L71wNzv9Zq6EUKsra3NzMzkeT4ZTyhwcA4RtNYAHMkLAcqozuFRl5XSAoAJCBFbH1rnANGahAiCj1JKT9EkSQjeGh1jCN6lqUFmHzwwuLapWle1baAIiIG8SZK6qZUyWZKRo8SmWZK2dVuVlZI6K/pN087MzjoXugKKshxprXbu3L18dH356ERqVTeu1++95CWXe1cfOfKw0XF+tr971/mjcTMajsfjKrWJAOr1sixJOIbOIRwDD0eurCrng1Yyz/L1tZW6rZNES4NtUzWty3spcAAmwZBm2geODMzRt2HHQk7kVus4mJ8dDYdaaKNNUzUoUWoRYg3giyQJTUshBBZl7UEKBEFMVsngXVuHNC8mVaUT41qntRkPXZbLfr/nXKu0MMIYpauyItSJTWOMwbMxGlCWVUtIEZgBKMbcmhhgNPJCiaIoJuPaGFVWVeuctCZQlBKzVDd1O/FslYEQA8H22dSVFWgMMTKQUspa49p2drYXYyQmQJJKSilDoMQmjMzMznnvIbESgcuyDaFVkluP/YEejRxKlgLRSGIySgggKXgybn0EQpGksm1aZDAa00yioKpkqRRFh4KlUBQoMGmBApBiZGJH5AkiQXCsjeJIgCwEG63a2idGC8SmjVorlCoQIQNCFAhdeYsQSMRSYQitj4wCcqskUKKYiCVCjCT/uz3atUMGUta2Xq+PokTcdfb2ucW5tUl16Mj44UPrkwqIgRiUEXk/aUNonM8Sm6ZJiGHStMrKxrd1xQAw6Gegk+X1SWFIyyCNCMKsT1olYMd8oaCxGsZl00aMKhs2cW3iGDlLVGoxtTIwLB2tVGImpZOCkXz38UWUtfMmSeum9YGYKPggJUuk6MlaxSDqNvgASWIEUwheSaTIWZJIISnGSeXTXOR50bQeAIxOgo9EIU2097XVIs+tC3FtVE9q9hFigCyxApAixUjIgAIYgJicDy4AA0vNIFVTe2RZpIk1imPMEisl2NS44Bof+jPZRReefdGF5+45e1s/U5LbuZ6F4FOtILKrXdPSoSNNCHJ+dq5t6uFwdGSlPXzUj+qwXnLrIRBri0YbjqwlWItGSwEKIfR6FiG2zhGAj9ArskEuEgnBBQcQCef6g7mBrRonBPo2Kgn9oijHpbVJVvTWx1VV13Pzs0aLIktc2yopY/TIEKOXCrM8K6uaWLQuKJMAYNXUzByJrE1Sq6NzAkX01DTReQIiJbnXN1IqIWSMHlE1lUdAqaM2tmz8WukFUW7tZDxUQkop27bJ0mQ4LK1RvV4WYyxLDyicc0xBIlgtpABAKZRllhEghGC0StOknrRKQq/ICVgo1Rv0kzRpQxsgbN+xsPushUuftSfXylXu8MHVA0fG39x/9FsPrx4dOSFivxCJjgZ9opl8pRUyRx8dIPgQDywvJ1kvRK7LCgGJQ1WNhWRtEIBCdMiQJIlSyvm2+74ZY5hBCIEoELEz0KVSiEhEaZZQiBt6KWRXuOVCEFKGGISUgChQJMZKFApFDFFLIYVgZiElMUipxpNJ0Sus0YPBwFoTg/cxutYLISaTSYixS6az1o7HY601A+dZLoVkYKKIiFIZqRUzKynH44lEsbi44NpGSCEEElHk0CXHISIjdRZ5jIGIhZQopJRaG2OMiSHEzm/GoLQyRuNxdXdCSKGkkMjMAlFJSUxKKooREQWKLjDUlSfEGDuZ7CIR0XmmqJXqkgmccxJRoEhtBszBh8TaGIJrHQIAc5dg7J2PMUqpYoxEnCQJMYcQiqIAAKVM07RdIgJ3LlomgaiUblpHgZ3zAIgotFE+BiaSStvEaq0QRdu0TV0RxSIrIrIQgokAmImkEGliiYhil9PAgaOyGgCZuSiKLim13+vNDAZ1Wbm2NdYQcKRokqSqK6W11IqYGEBI6ZxHkExibXW4sDAXIx05Mrnk4vMPHT7Ytk3dNMZYY5Jx2ex/5BAzKcFpauq6ZQStZetdiNGFSF0hMELwLninJCJjkqSDon/u7l25kZKdhOjrmJm0bVjZggXYzDjfaA0SyLd8dBhjdK7y1srYBmJWxlR1ba0xWgMHZJRCORJV47VVSWK9a42STeNcA0JA64LWkgJbbYfrDSArLXzwDIBM1uq6bj2hUroqS47UNi6xqm48ExmtlBDIHIMrirSqGhdEL9dKRA6xqT0gFnlW1Y0SIkttOWmaAKm1EIMjWJhJJ6MKtBQIFEgKzBJbls3MIJ9MKmZigLr2zOgDC61RIFN0LoYAVqOUQmv0Ls4MkhDi3Fx/OK4DsVAoFVKIvTyJnvIs88E3LUWifs8wt0CgJKapllLGgIgihIASpdTOk/Ocp1JJGUMMkVhgIEYEigAck8QIYIpxdnZ2PCyTRAFA20ZjhFDSOwcMyCwQpVIhdg4n0loFH7vQmdWaKRSZ9p5gw5YQWE+iZBVaWlmZpL2sNzcHJnngkeWv3r2875F6VHPVAEsBEpRRKNgFhxJZyso7mZmsnwit8l4xmDWooYpuOBkRxSQDm6jBIEdBTdMOh5UQsLg4oxPdBGCZNiSPjsoILDS46EGAzdK19ZHQMCldpCglKC2lAgKomsYFrhvPDF3dTYyAAhAhsaiVjDFIhCI3QNTVZRqlssRSjFKKsqyMgcQYZqZAiUn6eZ4ajRDbpkKA2dlCJ8l4XJU1eQ9E0CX0Bk/MaG1qs5RBuMiMHAhQgc5AWTTGAEsgyNN8UPSSxBirhcZRNVSJeNbFey68YPfZO+cXZ/NEMnDMjOYQ2Ll2NBkvrYTRxI1LT9CwPDoMjxyZHF5pV9Z5bQLjkiNBmgqtZFdDzUQUAxMF57xvAAgFAwatAZlTAzP9HnAACogwGQciklpleZ7lSSQWAqqyjRGIhTZWKGW0SlLd7/XyLKUYUAAqBQAucCAGFEW/D4x10yqtlDZSKu9C28aqAgA5OzufJFkIUSrd7w+kVCh0fyaPMVLkTioAgDgigpGaXJAoU63aqlYCrDZZlszM5cur3kXfG2ibyNFoaJRpa0AQUsjoIM8TY5OyrgExSZPatT6ExJrBoKelKksPArU1ICGQ99EV/XxucS4gzQ+y7UVaHTlcLa2P15ojK/Wd33r44eXxKPjZRT3fh15CVpJWPjFw4YXn9QdZ3ssuuvjiNM33PfhICCClVVJLLct2xOgYW4Y2hJY4GKXyPJNSWmtnZmastb1eDwCUkl10XAghhbTWIgAKkEo0VS2FVFIRUdM0XQg8cqjbyvlWCGGUlkLkWdrW9Wg0cm3b1k1T13Vdd5VmMUYmGo1GTdOsr6/XdQ2AXQr6aDSq61prTURJknQ/VSexZVmG4GL0MUQpNvIJusy8NE2d9845Ioox+o2bkUyShIiElEXRk1J2WXjMBABVVXWVb1VVoUBjTJIkOrGdfIYQtDadmS6EiKHL2fQxhhB8lqQb10ilpbTGCtxwJgB2VX8UnY/OK6X6vV5XdBBDCN4jYnC+y23M8zzPcwDoKgO7hQIzW2uTJI2R2tYxgI+hrmtr0nJS94uBtZaI0jRVSg0GgzzPYyQiYEZmRCntMXwMUso0TaVEH3zXiqAz/qy1y6tLaWIohi4azUxpagFAKiWk6MoBKFJZls43UuLa2lpVjsvJeDRcr+syzZMkS6xVRS/XiU6zxFq7Z8+5RLCyOlxaOlo3zgcOEUbD0poMWIQQLr7k7G8/8C3vnTEmBvHIw6OjS+uPPLzf1bXVgIKSREUCLdn5mjkIAcyQ5onK0pbEwWX6xgPNN761vF5S8GilzGU8a0a95Dm7z99RKB+acYWsJ5O2bPy4rTzGvEgBxPzcdq1ACMxyLVC0wbsYELGqglJSKenaoJRSVikjhQBE1qpboEqtdZKpGAFA1pULLiJDlgJHVkLbJDXWSqWklASklaDQArE2OgQQAEaAYBDAVsrMaq0EcbAJJBaIAjBrBYuLRWYxsyrR0igDjN5D6MwwgRJZSOiKp7K0q/NgLaU1QimFyGUZgdFaK6SOjGtrY9e2Vqs8M1p2PSl8r8itQUCymoJvrDVMzAwcIQaWQjKRAOjlmUQgYuKopNrIiWFwzud53rniEYEIAEB2hQZSWWspshRCazRGpqmkSEoIKcA7yhJjFApAJUS37DBSKIkALAUAQqTADFKILidMCFAStEIiCgGEkForAai1kbszH0hG1s6FbYv9zIpJVa+OJl+7Z23cQH8uD6RqD9ZmSW7TTKHEpm2NUUbKqqoRudfLpZZNUzWV9x56fU2oXYgKyAggIcYODi+76CFTvpdpoQShcJgfWB6PqqBTLSUoJRYXBtYmS8tDAhmIlRZaS4EETEqrQBCIQ2QU0ge2RmkNM7NZkSVKiqYJ4wn1+pmSum1ddKwlFEVqjPQ++BBGo2As9nq9GON46AAouFiWVWRuG0oMzgx6MdLqsGwdBAJgUAIVSiExdpFGZh9iJCCCyGAMKiWFlIyqaXyS6ixVMTSurWNoswx37ljYdfZZi4tzc/28nyqFQQmSENt6Qj4gY9vyeOyHE//I4fLwBK3tMYgjS8t1G3VSjKpAApWFLE9d65NEp0lCkbQmqxGIJYBWMDObWivqxjEzEczOzxvRYAzlJLBGH9FqpdFVdb0+cnlqmXl2MFPVZWTykdfGk/G46RWZa6q6LlHg0lKZZlprCUAzM31j9PLKqtLJ6nqbpCkCNHXTVYMYI3p5QcFRCKtrJTFoa4FoZpABhkCglZEaDxw46r032gD6pnWtA0/oG9/LUu/qPMuEUIcPD3fummWKaWZ7RSaIm6YN0Sllej3T6yVC8WTSRKa06Ndt8L4Nzud5igx1XSWpKvJseXmY9+zS8ijNdG8mvfiis885a5GqcrI6HI/Dw4fGd91/5FsHyrGDmYX03D3zF5+30LNi+0Jv144FJVkir66se+/SvKgbd3h53Wa9lbUhIu7cdRZzkIoRKctN01ZFnkspsywb9PtM5FwrUATvumYviMJ1iWkASskYCbBzQQvoLElmJSQi2CTxHFFg54juVM0a41snEBNjESD4IITofO8hRiFEkqVKqbquvXdaaWbsbGitdaRorK2qqizLzt8wMzOjtDbaCCmZYX04UsYopbwPiDgzMwPcpY5KBvDBE8UQAnZF9t6XVZmmSYgxxGCtVVobkyipEJGJkIEoAjAA2NR2NXKROMaIKKxNUCAzM1H3G3QrP6OUVtq3rquaEyg20o8Bss5/G0JiE2N0XddSCO99lmaJNaKrBSBgprquvfddyxqttTGaiEIITMAMKARDt+zQMXZ1BDgcrnddj6SU3jvvQ4zUvburK0MEIRUzGKu7fP9IUQhprZVCdpZ9l4ohhWxdSxQBuiTzCMzHMhnJGNt6xxJ88EqqvMiIQArRtq133mgJDJ6jNkZpBQDjsjQ2GU8mWZ73ij4iSiGHw1HbOK1Mr5cvLMwdOnR4fr6f50mSWK10r5dUld//cJnmgMAxYpLocuKzTDsfWkdKS23k7NxcIOhi/Aw8KiPFqLVOE1ON1w3S2Tu3zc8Mji4dmYyjSfM2suPICmOI0YVe2o+el4eTopelVlMIxpim9RGIkZTqijMlUXA+EgsXHAMbq51rKQSKjKgAtbUZRaekMMo0bRMDFIOiamtAyJJUazUaVnnRY+amdVJKBTFNE+8dRciM7JpEMRAAti5qiUiMyCLGbQtzrm26YjwABBDlpHUEWoAS5D3N9mw5ajxDmgiEzoYnRMzzhCgyRyEUoyxbh0LVTdCC0jRBZOe8loAAiZFSkGAyBozSdUOtI0TQWgBTopUACN4lSeJiQ8RKAQIHx8ycpoooUlRV1UglhETnCAEicZ5qYEAA35XfITKAkjK6KJGzTNe1n5/rVeVYgEAA74IULARS9DEAIsiNxQgrJZhIKclMAGitiT5I5MSgNrarD5fPPqdXOs6K3jl7di3O5UeXl5fXqmHlRjWDApCmdjAuvY+BOAJEpTH4IEEAUdvEJEkuuvC80Wg0Xi+DAyWhV9iqJecZQ+zlOkQYVrx8NMz2QFJUIoKQTZSrJSytV9poABISrRFZYtfXhy6Qi1S1IAQjRq2RIwMKF6OL3HiWStcu5lYliewVqRTo27ZtvDFaa1s2bfBBIFgF/V5eTkpAUVYtSjBGp2nina9rL5GBUSkJSADQK4S1elxWkzoGBh8BGBJjtBSRovceABgxMjELEMJa3UUimSACtNEVuUZ0wTWp5j27ZvbsXty+bXZu0OvnxkpKIAB559qmdcGHpg1lFdZGfnXkHz5cPbzkJyx8FMH5tq2FBJvMrE5qpZVOMMu1a9sYSQqMPmoJiUVkRmAfaGGhmJ3rlZNaoCzLODs/mOsryZEIgpCjcewX1khX1W1dQ56n1aQxRhBFY1NlEheo9W5u0A/eB++YsXWwsNCn4BF4cds2FDielDYtllYqJWWXNw4gQgy+9VIgMgOg0YYRQwQGylLtfc2glEpcaOq6lUISgbVC68Q5Fspy8IMiA45ZlvoYDy9NFhaz8Wjk2xbIL8z1iIIyRird7+eRHIBXEl2kyFw2PjgvUMzPzaytriBEa1WSmKZt0swcPFT1+uLFL3rurm0DN173VTsauuUh3/Pg6h3fWhl56A/MZXvPWTl4cMdACfKDIlUSrNJzc/Nnn7MHhD54ZLlqXVm3VRuszZxvB/3irLMWd+7a8ZznXNQfFMaoEHzwcW5mziiFAF01tlYSGIKPSspOO733zrkkMQDQNq2UXc2r6LoLtI1DhCCgyPPxeATA2xa3ra+skg9G68RYChS8JwpKKedCiOS8ZwBttJEaEbva97ppu7pzY4yxpnWus26ttXVd122jpAzBE3Pn/1fGeh+0Np3uet9aowGYgWIMUkoG6HrsxBhRYF4U3nttdFeA3jZtJPLOG607bQMEQPTBt22jjQFGIpZSOeeUlAjgXSOFtMY475QQiMJ7z511A6D1hqwys3e+KApmDt4nie2CCNWkNFo75wAghGiMBmDn2iLP27ZJEquU7PpXKim1sShE51NJkkRKmWXHrP8Q0yQdj8c2SdI0sdZ2vYCklJ0NYKwVQjjXSiWI2ForlOpKEtq2BQQpsW3rhfmF1bW1nbt29QfF+upqUeQbNYRKRaIkSUMIhGRTiwDOtV3kIk0SrZSUmGcpIIboQ/QxUpblxtrOld3r9bbv2B58kEL2ej0OnFozPz+oq3GS6LYdL8zPFXlutGbisiyTVBe9NE2Ts7YvIsKePTuPHF4yNnEuSKmIGVCORiNiJpDEQii9slaXdelcW1ZVkSfeu+jbuqoHczMra6MmejS6cp6jhAjb57bXVSusnJR1nprRsERkZUzTBqFE0cslshCspIyRQsRAQUo1Pz8/XFsHYqUMEcaIeZHH2BZpBozrwxoFZL0scGCgpq6BIiIWeaG0XlsrmaO1Ms/ypm4oiEE/mYwba1AaFYnWRzHPtNEGgpeMg17qnAOBIcamjcEH7wi1Nlr0EhEpzvbSumwCcJbrridp23TNJQGYWxcioU0SIkyyfDxurWZrVGeLSwFSYIxtmhiBjExpaseT4AIAkk2MEKCk1FIEF4w16+u1VICIUgAFAOCiMNamk7GrKm+sIICyjEJiIJjt51VZh+ABhScCxBiiEiJ4AqLFbYNy3PSLpG2arrjfOVKKhcCu+ZX3kGRdq8GIiEJA52wIAYzWZeUTA0ZCmhWtc0Qk9+5J8kGy59yzYnD79x88eKAWiRDGuBiqFpU1hKpuvNTSWm0TFT25xifaBO8R2FohkMarq77lPMMd2wcCRd3G0cjliVQSkqI3LEXdtP1cF1ZtX9zuGQ8cHR1db0EZQgYgJVFLHo8qAGg9e+7SdKnXMxI4Rg4hEojIggAZUCIjEwgajysmL1BMJkEorBoXueuXBUWumULrfFnFpoHWQVEkSZqsro2yVCqBQkgtpbIwN5+1tacY1tadJ6gdCMQ8TaRAKbDuEqEBUKCUFqViQGLRVq2WymoT0LdESRJSC7t3Di6+4Kw9uxbnB7nG2M+sEQJDS66qqrpq3KisGwfrY7de0tJ6+/ByfWTk11uqmRFVU5bGMCErm7Z1IEHaxsXFQVM631CRJRAZMWSpyFKRpz2tOHKTZfahB9fnZvtLy3XRT4oEIPqqaj1g3QQR40xPCKlCCEoZim4w6Akp0zQDIV2IvV7RVBUyjUfN3OKgqqrti/O+bYTANE1CcHXdlqUr6wBMVuumbUDI9aFPrOj186qsZmf6dV1XTRtidG2b5SaE0DpAocp6DAKqhojj/PxAiXR5ZazTtC6rfi/TSqIUDDg3n1RVJQGkACVAS56UXmrMirT1jZRMsQ0UbGo9sY8ito6CXlgYrK6upJlVWhqjx+MmywwQveqVLzl/z2IoVyThZBwOrbRf/ebSrfcdJWvTXL36FZe54YFd80IBXHLRhWtHV1zjhuNybX34zfv3VY23aQ+EsUmhk9ykibGmqSej0ToiD0frk/HYu8DMFFkwSiGMMZ3lWhS59z6E2PntQwhKSkQ02o5HI+9cnmVEFGLsrGGjTd3UzrsQw8xgJrPJ+uqqREE+dlFna02kWBRZ65zWpj8zMze/oLSZlGW/KBAxxtDUtdJmo5oOABDomMyvrq72+/3FbYvD0ci51jkvhYyRpNYAIrFJCJ45CoFtWwspUKBNrLFGCFRKegp5kSNK57zWen19TaBI01RrQ5G00lmadh5+oWTTtkoppWSMUSsFIIi401HvvbXGByeVdG3bdeVrm8Zonec5dikXSrdtC4jdUrJpGmLq2uJqrW1iQwwoMIYglDLWMrBUKstzpVWXfFw3dZbn3ntjkslkorVO00RKGUJsmlobpbQUKKuqSpLE+7bzjsQYu+jDeDLJi6Jp2zRNpZJpkhDHJE1QCBe8kMImNk2SLE3yPEsSS8xVWVKMSWIBOMtT77tKHYiRABGQtZGzM7MxhCxJjNYxOCDKsyzGIBXmeba+Ppqdn5tMSqlV0zitTV1XvSwfjUYUqalrq1TTlkLy2voqCp/lejAopJTOt6ura9qoxNo0zYosN1pXk0lvMLO8vMKAXbvcNM2PHl0HpsQmdeM8odDppHYu0PqwsYkBZYxJ1lZWzzvvvLN2b7O5Wh+uNy72e3P1pJnrzdeTuppMpNUh+H6Rj0blYNBrXOtCbFqamek1VdnUMUsNKOUjsUCUUiA2dS1AMTOgCJGLIp1MyrmZftv4SdXkhUWtUKLWshzXQGgMBg/eRyJPkbVWvV5vOCwTi2lqg2+VFJ5DmqXAYVJynmnfNtFxYiVxsEniI49GbVGkwQXQ2ihRJHpSufmZtCkbloDASkhmiJF6vdRa27QtM/hAVeOFEKNJmWdKCQi+nZ0dNE1AiEqiVCAFF1lSlT5NkrVRPa5IaUjzRAkRg09NEmNMs2x1WCeZBIgzMzPVpFUKBQIxVxPHjADMSM4BEdpEIkeJ6FoPCELI2kWtpRRSArBnoWLwwRgZPAORQIwESWqMUQjsfYwEIFBrySEgcGI1E2mphIAQYldbm+cqSRIhVVM38g0v3iklrI9G39p36MFH2qiAEGKE4YRQapNmZe0iUYxeSDZGucaRIyQKgZQWWgjykZy3Gvt5qpRSRqPKhmsN+RADpVmxMmwBGGPcNjNQWh1aXmtYNKTGkzZNVGJUNfZZpmIkZVIXuGt3k2fKKBGDjxGERJTKBSYABAHMWgoGSjINDHXtpRSRoPEEiCGwtaKXm6ZtUUkhRCDWBrMilVqlqUkTU00qZLapYaCZQd8mum1diOQJWXRrACmAJBJKBsECJUhBxF2HEGYSwEAskJSlJONd23u7dvR3bx8UViSSc6swBgqxrVpXN65tV4eT5dVybexWx+3E4cqwPbhcHl5zKyVVAWymrTIUWo5ABErGxgXAWPTN7KCYDCshKEvTumokcpZBnlhggUiti2mmXNsakx5drZURZ20vyDVNE9DYpiH24byzZ5WUo0ltk5SZ8zxzvu0N+rULddsiYFs3HCIyaSuHQ79r57yWMkuTpq2kEIGiUqasGq2Nq+um9srookiEEosLc+PRuN8rXAghEEhFTMbq1jtEq4z1oe718xAjgsiKdDRqWwcmSSaTyfxcj4JrfQsAq2tDBLUwN+ObaqbIvS/7/UzbbFJXIYQ0tTG4xCYMuD6qjEn6eWE1JKltmkpKARyEEEyOY3jtj7780osvbCZrq4cPrKyWqxP+5v61ux9aG3lQxr7ohZfMZ7RzXp+zYz7RedO4GAmEahoXQaCyIaILNLewzWa5TVOlJAEVRYECV1ZWxuPJcH0YPeVZLqXWUmmlukZv1pqqqoioS3rvaqW6bvAAXNUVMUkhY+yS1UEJtdEjVrLVyjsXXRCIxxbQifOucS0DU6AYok0SQCQGKUSaZa7t+leDFIIIlFJd1ZlNkiRNu6B712MuxEhE1hghpJBKShUJjLWdRx2AtVJSiqZpiIiBoev3rjUDdO3etNEohBRCKYUbCaqMAJEoEqFAIUXXcUcpIaTwPnRrnS6KjQjd/V9KoZXq+u5HH7TSdZfu0TXnJwJEgRIQGFgb0y8K533XxscFF7zvTHzAzgvLXY3+ZDIBgDTLhBB1XRlriFgbFWOkGJk5SWxXoG+NFog20dYaaywzEVPXIyjP87ptUGD3TzvXdrkIXUAWAI0xFCMRCUQC6hobaC1DcMQUgs/znJkBWBubppmQgjgiQ2YTa42Wsl8UQqAQQCGG6Nu2IQajzbicAHNdN4gghfDOee+EQKYAHPqDYjIZpaldW1vr94uVlZVyUlpr6qa11kzK2rVuefmotcZ7v/+hw13ZVdbLq6q1aVaOSyQApBAZhY6EIJAAmpY9xwha29y5kOTJcLJGXFP0TelG640C7Zo2hlC3bZIlMfoiTym2SZrETsAVZFnqmiZLpFSSQbSOxpPWWJ3aJHoHzFKqEHhctSjBGpYSmZjYN01QRgopUQCy7+eJUUpr2zrXFYWGSHNzc2vrY9fGXj9FIE9BGcWMkXgy9rMzPeQITEVhu4y2SOyCt8YmiW4icPSLs9nBw/VcXyl0bcCZQS/N8rpxw2FIM5kXmXNhPKmLItPKjMuqS+FECiGyTSwzBR+UljFyao0xKkQnUNYOqpaUBQBAhKp0UmAIsT8zOyrLCGwT3SsGTeW88wDRu8CkutWzUBgDIjIKVEogIMUolXY+SC2MMRSCYJDINtUhhl6vcD5456VW3pNSKAQqLY2RPgRttLW2bVrvwGiQUnadOQAxRkamxIKSG4ks+PnPf37DGpgyZcqUKVOmPOPA1dXVrWNTpkyZMmXKlGcKYuvAlClTpkyZMuUZxFTpp0yZMmXKlGcyZ5z3vtuTo0vD+a7S7RTSZRtNmTJlypQp/604s5S+2++rq7Ldeu7ppisWijFqrbeemzJlypQpU75XnEHe+661RZ7n3wOZ72qHun+rK9eZMmXKlClT/ptwZil9t+ny95Kuf/jW0SlTpkyZMuV7xRnkvW/bdjAYdB1Av2cw83A4PKUVRtf3u/MEHNuJZMqUUwARO8eVlFJrLcQZtKCfMmXK4zmzlH5mZmbr6Hef9fX1k1T6tm27Zl7GmDRNu1ag09v0lFOFiLoGfE3TtG3bbZp3kh/CKVOmPPOYKv13nZNReudc27ZJkhRFMc3gm/L04pybTCbOOWvt9NM1ZcoZyNRe/G8MM9d1zcwLCwuzs7PTG/GUpx1jzNzc3NzcXAihaZqtp6dMmfJMZ2rTf9c5gU1PRHVdW2v/m/xgU85A1tbWnHNZln2PE1aedhiAGOQJf4lILMUJr3imsK+GOyv+7Kr7Vh29cAwRRUDhNYSzTHz9fP+5SXqeySw+o0y7z3zmM+vr690xb2wkuFHo1L18Qqy1r3nNa3bs2LH1xDOaqdIDAPzfy+qv1kTjuUAyCEAciYmYIjEBEX/qCvmW+yxtDDIRxcgUORJTJMH8E9vFP7rwib9FT6b0zFyWZVEURVFsPTdlyneN8XhcVVWe51tPnCJZlnUf7O6uysfRXbBlZGOX96eDbsc2AGgZHW8cb5xiEAp8RYUGpZAZnt4lTTj6pXbfHyNsLZ2VxQX24n8M4gm+6d9VVjz+v8vqi6thJfooPEMgCIAeMKKIQnglvNWTVLcvzvM35rsv1LP4mD/Y08OfVOmfVMlo/9bxTfp74Gey5meyeuuJ0+BTn/rUu9/97rpuiWLseqLFGGKkGLtP39Y3ADDz/v37hRCXXnrp1nPPaKZKDwDw9+4zPnC3dTETx7gh80TAxJHoC6/UV3/DbMo8RSaCGGnzMiT6z682W+cFOIHSV1VlrR0MBltPTJnyXWZtbS2E0GV9PmVmZ2efUM6PH9w87g6qqlJKbZ3oFOlkngB+e5/5ryMZInQ7yzIAR0AFo9tXVm7cnyTy1/7BtqtfPXh6Lfvxf7qEm6WtowAotDrnZ5Ln/nMU37sA3JLDf/6QvLch4kgYGCJDG9EBEACh8FJ6Jb2SjdVVKoeDJP73vUuuUBdsnei0ec3RWQB46MtPupLb+QIJzF/cPdl64jT41Kc+9a53vevFf/+PBMK22VRLSYiZTV71kot/+o0XffXeZvuCOm+XUsclNR88ePDBBx+cKv0zmRMo/Zu/rjvlPl7mmYEiRyKO8Dev0W+6R1N3iogixE7vIxEBRSLiL/3oE8j5kyl9Z9zMz89vGZ8y5XvDysoKIhrzxMvTk2FmZuYJ5fzxYr/5sqqq089EIQaB8L7bxeeXBBEzMzAwAzODQBq79f/nW4o5LbTR+NnfPXfngure8rQw+vTc1qFjsJlNL/0VUVy49cQmvPEkzKwcPGfr2VNkyeEH99tvVEQQGQKhYwgEjjaUngGjEFFJl5iJUVVqhomZZGr1mvSVL5YXS3g6G4i9/MGMiW86/0lN9uffAcx85wuepv8GgE2l3/vmP0TghZksSeygSM/aNveci3YP8rxs/KCXX/HcbPc25TykBgHgwIED+/btOwOV/okdzmcaJ5b5SAQAG677x8v8xvgTeIqeDGZ2zp2kNR9jvP/+b91zz91VVW09N2XKU6Xf7zvnto6eCptaTkRb1L3bWmJzcPPlEzpUT4lAIBA+s58+/c22GdbVsCzXqnK9qtaraq2qy6a8eznhOJjX/YE0A/vFb7Tdl3frRE+VSODCEz9MOpvXn89Wrs+O/kG2/Pv50r/Kl34vP/LR/MhH8sO/mR36UHboX2QH/1l+4H+V9/+TrfOeIiseP/iQvbcS0Hk4MAIwQWQMDEQQCYgYIokQZYiCGYgEgmOEv6TP7YeDW2c8PYZLo+HyaOvocQyXRsOl8dbRpwOlNUsFUgWG3WctXnTurnu+vYRSEIAjXhnR7d90S+tboy1nGlObHgDgDV+TmzLPx4LxmzJPxDe9NnnDHfJRmSfmeLyTnynyl1/3xL7Qx9v0bdtqrfv9/vGDj+fo0aP/8vd+96abbqqbOoQYQ9z7vL2/+Ivvv/jii7de+p2466676rq+4oorNkc+9rGP/eRP/uTu3bsfc91jufHGG3ft2rV3796tJ6Y8I1hfXz+dxpG9Xm+Lyb6p5U9m33f5p1snOnV+/DPNN1ajBKKNIDwjMACjYvG5tbyMdkZzJr02P/yc9F++oxfChgP/9DPS7v2jubKBLSuW3sziBc975dy23YJLYAdMwBGYAbqD2GUQbhwzM8X18//tY6Y4RX7/oPnLFcXchRx9U44BA2NUPY7QAjzal1NKn5mR1ROryyI5kugyNSt79dlvw7cZeOoenV+44aF/c/tRZEImYBKvuISJ8W/uRo7AjByRGTaeCZmGL7scAGa/9Lfd9ch09cvO+9A7X7Z13lOhs+l/9OduaJpoE70wk7/keRcMJ81Dh1Zn+709uxZ2LM7tPT/t59zvicVCnck2/VTpAQBe/1UR4zGNf6zMMzERfPnK5KrbkWjT0D92WSfzxBT55quyrfMCPKHSj8fj7du3n7glzle/evs/+6e/MR5PfuzHXnvxJRcXRXHXXXd/+tN/vra29ku/9Mtvfetbt77hhNx///3333//lVde2b2866677rzzzuXl5Wuvvfb4fMAbb7zxhhtuePRtj+Pqq6/enGTKDzpEtLS09NQSQomoW6puEfjHK/3mYJebkiTJ1rlOmsggEb582P3U59c0EwlCJAERkRBIqAij4P4/k6Ya+qbOzCjTmIobfzrfu3Dsu7aZy/dUMQc+nPcGAAwcgQkgAgfgCLECvwocAAiYoIsoPHq8+UzADMBr5/3Z1qlPmgdr8YFvJ0cdTVZXVvftb1bXUWkhEIAEhHRXLzkrUYONRHslW6vHRlWZWS2SJauGqR5ZNX6P+h/PxvO3Tn3SnPW/3NoJdqfc/twdAGy//fCmkG85KC++GIB7X7/7+PH7PvHOrfOeCp3Sv+l9n7HGrpWNQBkYXeA8NWctzjz3wp1zM/1XPL/YMYeJEhKhdDxaOfTQsTj9aH09TVP9dCw9v/+ZKj0AwE/chsdi8I/KPPGjYfibr8p+4laMj5V5omNKH5mIb33DEyczb1H6rtPtiSP0k8nk5979LiHUr/7ar11wwaPpM8vLy+973/tuv/32G2644ZTWpMcr/WQy+djHPnbdddft27fvpptuevvb3/5k9/obb7zxggsuOP4HmPIMY3l52RhzMns+/fEf/eGNN/5Vp9lEFEL87Y/8DvNGYIu5S4nbiJd3Hv3Z2dk9e/Ycr/p1XZ9OGmCXW/fBrz5yw75lKSIwC4wIhEjIpNJQfj3bOzrnuXuTkGof5HgfBWn7Gf7UpXrWoJ7n4pzT3YRiduU3IJbAnWB3z11OYKfxx+T8eKXvDrYo/fn/YevUJ81fHtUfuzccvO+Ban2COkGtUUohAIEFB4gNxsYu6vzCgTQsRW3kJNHjVK9kdiXRI6MmqR7vVLPvlb+6deqTZucvfaUz2Y8Z8fRYa36r0j/hwb1/+A+2znsqdEr/07/6OantQ0dGaxMnlVqcyQd5+uzzd+xY6A966eKsPn+X3DmnUo0IcODAgQcffJCI/PLR8b/9D+df8/d3/9DLf9ArTk+GqdIDAFx587Fwe6flXfT9uGy7W9+Q//jNG7H8jTXBcbV23cW3/93e1nkBHq/0TdN0vfAec9Fj+fjH//e/+PSnP/KRj1767GdvDnZ3zMOHD7/hDW+46KKLPvWpTz3mPU/C/fff/+EPf7g7fs5znnPttdd+4hOf2PTb33zzzZ/97Gff+c53di+nNv2Zxng87nrnbT3xON7699+yaaDHyDH6j/zOR5k3M1T4eI3v3sJMz3/+Zccr/elX9xHzT3/hC4fLSgoGCJ3MCyTkKCS9vvein33pRmzr6O8dGB1QAXRJ6Qg1gQTmc15F5191Wsn/s4ffd5JW+2NGNpIG4+a71p71F1unPmmuvUt/6SvfngwrYTOhDUqBUgiBiIBAyAFDDc2oOF/nZwspGqPGRk1SvZaZo1aNUzNSqpFQfSj9xNapT5pdv/hfkQmAkDaeHxVyICDC7tSmrgMjRQBGisjUHXzjj9+9dd5ToVP6H3r3X/bypPXsiI3UeWLm54rLL929fS5vA2slzz1L71zAfioSLdaWDy4vLX31k//vns9/8evWXPa//ereF77wTFD6EzmQzxxOLPPdnWsjhH+czFPkjYtPJSMvxvgdE56/dscde/c+73iZ32THjh1vectb7rjjjpMsTb7ggguuv/76q6666lWvetU111zzwQ9+8AUveMFv/MZvvOtd73rXu951/fXXv/Wtb/34xz9+1113dde///3vv/7666+//vqPfvSjL37xi7vjjve///1bZ5/yA44x5iR3Ve6kuvuoMxDzhkOrO0nU5eVtjHRJeMe0/+nMyNs3Xq3ivhnzSN8eGCSHBumhQXJoxhwaZIfmk8Nvf/Gu7rL1zx1cvuvQyurakaXx8tH1ermsj5TNkcmDnxmG8jTN+i7uvhl07xz4x0Zgy0jYGNmI1ncHgfm0dq76+kPr43EAU7BMCBWDZBbEgkHoGF5xlvnVH9rxv/7I+Zd4y3VEcMgNcsvkkSMzR2KOp/UDAAByRI5IETkKisgR2jFUR7la4XLl2PNq94BqFdoxchQUjr0xIJ/UB+87sm/J33OgmukXKEzDCFIBiIcOj1aGbZaaXYs60VC3dHQcbr1vdOjbD339f/+D+f/4ua8szNh3vm3XueeeCTI/VfoNNsSbjyn3Y2V+Q+ljV0Z/TOyJiaC7g3XXnyTMfOIIfV3XDzzwwIUXXnT84PG3yOc973khhG9+85vHX3Bibrnlln379gHAdddd98pXvvL666+/+uqrO1G/4IILfvmXf7lLu5ubm0uS5P777weAT3/60y972csA4JOf/OTNN9/c7cA7N/ekJUZTfhARQpyk+nYyz0zcfVE23tWp+Kagbxx0Gk/dV+ixbJ33FPn25IFZe2ghPTJnD83bQwvm8DZ7eHu6tMMcuWI+K2RBkQAAv3G4gHJAVR/LGaj7PMrFWk+M81iGyekJDEXguPHcKfrxI5uivjFy3EuOQJEpMgeOfuu0p8LqakNoSWgG3LxHMTGtr/539PBHf3hwzcXZWy/p/96PnVuMo+QhcoNUAtUxuBg8h4ZioJNb4T0ZSGHLA3x1IP7uAfq9R/hfPQK/jxR/4X96/y/8/C+/970f+Plf+FXwDVJAisc/tk76FDEtq3sOTpZKX3oeO3IEIETlwvJqec9Dk7+4aeXjf3nwN/6vr//7D/3+I+//NfrSTXe8/IWXvfcfXnXVVSeOoj6TOJHknDkQMfGjfvgNmT9mwVBkAGBi5sfU2nVmfXf9yd/CiOjEzUOklIjiBCZ7d+rEkxzP8vJymqaXX375bbfddtttt3XW/A033PDhD3+4Oz58+HB35RVXXLF79+7V1dUPfOADeZ7v3bu30/grrrji/vvv37179/HZ+1OeAUgpT3KV2nUg25B1YibuTPnjFL37Fjxq3x/T+8fU4G2d9xRZK7++Wy/t1Kt79PI5avlcvXSuWtojls9VSy+Z3Q0AQgqoHO47ZLExcpSJSS7GuRgV3UOPdXqaNlznru9UvLPjjx/Z1PvHXsPEFJg9sGcKcHo2fdMSo2TC7k+7cVMaD/3XbvrxS+Z7ycadYS5VF/Y0cC14iNCKOKZYc2xCAAoB/WnVWHZSLZ5cuR/3spP5jWWB6BYHTwvGjLxYa7GKcuLFJMDhkf/GI6O7969989Dw3kdGK6XvpWLPbX/0xlv+bHll6WuvfvnL/t7VL3npS08cQn2GMVV6AIDP/5D8Lz+s/ubV+ks/Yv72tcmXr0xuviq79fX57W8s7nhT786f7APA51+h/ssr1RdfY/7rj9mbfjz9yk+kt7w+v+2NxR1v7t/5k/273nJSxfEngzHmnHPOufueDXf6FoMeAO68805r7YUXPnmDjsdy2223XX755Wma7t+/v4u1X3/99c95znN+/dd/vTvYcv0VV1zxnve855Zbbrnxxhu/9a1vXXPNNQDwla985ZOf/OSWK6ecOWya8p3cE1Pc0P1NL/2jTvrj9H5D4zfPbZ33FEnCt85TS+eZg+eq5XPU8jly+Rx19Gy5dI48ev5gI0KP+5ayas2qssA6w0kuxoUY96AsxGiw6GT/ZJfIT8wTOu0fP7Lhxg/Ques7dafAdOz5NKjGfuNv3v35CTgE2vd1ZFDqMY2JLtrVIDhgD3FC1EKsgD2Qi9GfK08hpffxIAekgNx540PnkH/MBY9tGCw6p/1xPv+ny3vf62dJmjhpZJoEqZVOZgf5TD/r99IkMTsG+hJ31zn/+rpX3/XFz+ZzS9e85UU//MO9fv/kLaVnBlOlBwC4+hvmTffoN96p3nCHuOo2fN0t+Nqv8I/+Lb3mi+FVXwg//J89AGz/3YPbPnZg8aOPLH70kYXfeWT+Iw/Pf+Thud/aP/ubD818+KGZDz+0ddInQQgRwnf4nr/0pS+7++67P//5z289AXDvvff+u3/3717xilec/Cf11ltvveCCC+q6fvvb3378+OOL6W+++eYbb7zxxhtvvPvuu9M0veGGG5aXlz/2sY997GMfW15e3rdv3xe+8IUtb5nyA02M8cSxpE06Fxd3RjwTRWKmTbN+82CL3h/v0++Ot857KhCHOTiyW66eLYe75cpuubpbre2W62fr1fOyZJCeD8QAIO570Mo6E53MTwoxLsRoYNYLMRqce7od+o53xT/6/Kgbn4658SNwACKmwBSYPJOnR4+/wx3gxDBjZ8ozQ1cbzNUEyglKe8dDGzu+AMBRX//Nyv2CR0AVUgnccozk6+BdQTM/mV37mElPkQ213jDTuwD8Y/5ztzrnjxn0olsf0NaVwVPmN37m0o+/69JPXXfZf/ilF/7f1z3v7a/ZNTeb7N6R1SSPHF2dfOb393ziQ4v33vevt118x8uvee0b/u6ePXu2TnEGcFJf8mc8nYt+wxtPj2uBF+l43+MxL2Xnz9+wUk7eWEHE73i/+6l3vGPPnj0f+uC/+Nxf//XxM3/ta19773vfK6X89V//9ce84cm5+eabL7/88u6481bdcMMN73rXu+65557OdX/PPfdsXjw3N9eV1e3fv/+Nb3zj1Vdf/frXv/6666675JJLrrvuul/5lV95dN4pzwiI6CQzkh7V+C7WdSy21VnsMXb2+qbeHx+/f9oMeoFqp/a75OpOOdylhrvUeKdY34nru8XanvR8RMkQAEA8uE8kzkKVi0khRgWOCjFKRdkTo/SSJy6QOQWOc9ozUaTgffQuOOdd9+y9c8G1vnW+dc4570OgeMys37DvTytOn0pkZtgUe2YoJxAjCHnX/rXWb9xevrj+wIQqoLqTeaCG2TMFi+ZtM//Dgtq+dd5TQTzqjd98juf6d57nfvq89h3nN9cIir//27/88d96/8d/8xc//uF/vCVCjxTE0xSnf+1zZhZ1fU6Px0dWtxm85uXz//La83/pzbt+ZPuDL/3Sb//IzX+1vL7+l694lfrxnwy7X1r0nzbn6w8W0yo7AIA33qm6e9Fmp9vH7nPDf/vaZPGjj5xA5pl59MvnbZ0X4KlV2QHAAw888Gu/+itf/8Y3Lr302c997nONMffcc89NN92ktXbOveMd7/jABz6w9T1PxGQy6Wrzju+cc//993/mM59ZXFzsPPNbuPHGG/fv3//2t7/9S1/6Uif8f/7nf760tHSCyvspP6CcfJXdG15/FTFBF3pnDt7/5m/9tlLyuCq7Tvih0/tu6PnPf/7xAl+W5WnmQLXD/+gO/IJCEsACA0vSEEBv4/NuFLwLAPxXbs4/+5/ZGXAKvOQgOcoAgCwJQfyzt8DcaX2GZx/+GWDqft1J5R8YFt+czHW77BxbBHS3ho1jBCos7Z09uCsbSsHAxByB4+T5d2yd+qR5879Z+ZuHHQoAREQUAsTSg+rwg6isEuLX3vLca374XCUFAPzBI1+8r3pkzS21cmigXtB6u537OwtXXpxesnXSU+RZ//CGLcXxVK+tvv0XNi/Y9icfOvKPN+p7AeCsD71XmuL43nnI8at/drIWyxPSVdld/mPv02ne1o1CeNvVr9i5+6ymFYOj98t//6ez9337obmFe1/3upnnveqaK1+8f512yKOHHnlo2iPvmcwJlP4Nd4gtMk+d0h9Lv//yleniRx85gcwDw+h/OSmlP5nOOR0xxj/5kz/+T//ps/fdd19ZlhdddNGLXvSiV73qVe973/vKsvzABz7wzneebIep4zvnfOELX/jqV7967bXXrq+v/9mf/dnrX//6zd44y8vLn/zkJxcXF9/4xjcWRXF855w///M/v+WWW97znvc83uc/5QeXk++cc9VVrztm1jMwxxh/6h3vOP/8Z3Wm/Kaab3rru6/GliyQLMue7Dt4cjAAiuYOrL4ikc3KXWr561hFL380xkugngzvPxy+vW/xwme5Uggv2UsIgqMgABEFn3tW+Pk3weltZDv70E91FfOti3+1f/dHV952X7wgRGDaSI2jruX8xh2EmaIk/8r+bb996R+d21tDIODITOUL7t469UnzF99s/sGfr5DoAi+IAtTSPrX8MEoLAP1Mvf4FOz/4jhd0FzsOB5qjJVUSeEHPzOs5cRq//iYXvOffblF6rtePXvOPNi/Y9sf/4sg/+a3Nlzs/+D8pk23pqHP7Df9084KnQKf0Fzz/mraqj+w/COwBYTCfX/e+d1yy8rD61L//N01cvezlL3vNj++84GKl9MjxG6+YPXLo4anSP5M5gdJfdTtukfnHd7pd+J1HTiDzzDD+wEkp/Ul2wz2eGGPTNJstR2699dZrr732lMT+5ptvXl1d3bVr10033XTZZZdtptBPJpMvfelL99577zXXXLO4uNgF4zfPbul7f9ddd+3YsWNxcfHReaf8IHNK3XB/4nVXbnzwiZg5dnq+6aHfWARsrgWgU/1bbrl160SnCx0fcyxu+gP9zZth2MC45bVw+GBIn/esdG6BK+agIEgOAqKIhAIwvO5V9NIXABGc9Ffv8cw+9HZgAqDRxP/PD/z0X4xeFQmICDZ0fdMZSBy72wdxJAPuD57z0Tfuul0JYooAVL7w3q1TnzQPrIW33rDy7bUIiJ3Yq/WD+uD9qCwAAJNieuGz5j/yP1y+Z/EJ/nP/9p6DL7pou9XfeXl3Ai58959uavam0i+/49Gde7b/4T89/P6Pbr7c9c/fs6n0m231bvsP/3zzgqdAp/S7z37D0dGY6lWA+NKXXviOd/ydubnBtv7Mz1/7j+9baYVZVJwCOADFkN30pd+aTFbPQKV/6p/4ZxKP7ltzTNo3NP7YcSfqJ5D5412U3xFjTOdUP0mklMd3Frv88ss/8YlP5Hn+4Q9/eDQ60f5Rm1xxxRVXXnnl3r17f/Znf/b4SrmiKK688srrrruu0+/FxcXjz3Zv2Xy5d+/eqcw/kxiNRie/hywdi8xvZNsDbMo8HPsSdLvEb8p8jN8hH+UpIbpkNyQHAM25PwRtBZGhwdaxT43doUVSidyJvMWsFXkLPaeKFmcDPe9iADgdgx5gIyOPiWKM620SAlEIPB7y6jKvLvHqMqwdhfUVXF/B4SqO1qBtOYTGY9liF61nDkynFac/f1a96ZJMiS5HApiZTM4C4VhOXAS45f6jr/nAjW/6F3/9h5+978v3HvnyvUc+e9v+f/R/fPEFP/en7/2X/+WuB45unfQUeVzc/XFVdo9NrX9s8f1Gdt7xFzxlLnv+4PK981dcccHe5+380z/9VxdccN4DD+z7p7/1r+yOHZftvfSyvefu3bvj2c8++9mXbH/2xflJeK+emUxtegCA136Fifj4hvaP6XRLfPsbi/mPPHximZ/8yhNvF/F4m56ZJ5PJ4uLiyefPP5477rjjG9/4xtve9ratJ6ZMOQm89ysrKydp0APAa3/sRzf0/nhTfsOQp+67cGxwY1XAzLfffvvWiZ4umAERXTX4P9+LK2sw5qXD3p1VnPWqs+IYOXRBegFRkNQyBP+CH/Yv/ZHTNOgBYHbfT3br/bWR+9n7fu5zkyuYCEbrXE1gozaBumUREwNzTHJCxUS//5yPvu3cL2vJwJE51lecbLXOEzJx/E/+eu3f3NNg57+nYB65RzYTRAXAyBsd+JG7OxR1DWiBCIB/7qrn/sKbX3CaNv3F/+CPtvSxZ1+DbwC6TvhdEz0+1iiXUQgp9cbLrl0u0y1/+dtb5z0VPvWpT7373e8ejcZEdM+93/qLW8pffsdlX/rSF++8886Xvezlu3btkvIxN1hmThLz8MNnovf+tD70zxgeL/NdM6tjZj19R2v+lGx6RDTGDIfDrSdOhcsuu2wq81OeMqPR6Dt2ZT6ezmPfBbSO6f3xifjHzvJGzOvRb8t3CUQgYpP5+UtoGEbDsD6EwV4je7UsGtVrZK9R/Ub2G51O4KwZf8WrAQDE6Rn0cFzuPUeKkUPkECnJabAQBwtxMB97c6E3F4q5kM/4bCaCpBA4RI4RKHTZ76fZDRcACoO/89q5V+4x3d2HhAqzuzZ+thNy5eXnXHf1C09T5juTfctDSqVspkyqTKZMokyqTKJ0okyijJVSIm+W2AXBT1s33CxLmek//tcHv/aVv/7Qhz982223vfrVr77wwguyLLVWH/9IklP4wD/DmCo9AHTeuM3HRq3dpsx3NXEnlvlTvalZa2OMpyn2U6Y8NdbW1ojolJR+PJkw80Y/vK5d3mZwfuOIO4/95krgBH0enx4QAKB+/bXDs567XKb5SxeKZ8+wMDxQNECeQZpV3Idw/oX1694FQgCf9p61AMym26mWKXCMFAKHsKHlxx3wYw8oBO7a3XdiD6dd7AeQKvg/Xj/3dy60BhiYY2/BbTufBALFbl/BLeSJfvfrn/uxf/hKo56G2/6PXrZ7o4z+cT7843vnbWmi96ifn/mVL3k0MniaIOLLL07e9mMXXPHiy1/3utedc845J1k7euYw9d4DAPzoF4PfMOI3Zb7z3m90ur3rLYOuN84JZL76tSfe3fXx3vsOZi7LsiiKk/egTply+ozH46qqsiw7pbvhm9/0pltvu3VzQXv80nbzeMt699JLL/3c5z53/MjTDxOgAAAqJzIXEOA4kUNgAERWKcCGt/8x731KqPpOEUcM7D3dMnzWUpjbMAKO3Qxgo2PQhlnQjQHwi2a+uSdfQQRgJr3A/ZdtnfopMXH8tw+3v/uVyc2PtIRCtmO9ekCNlpABgLtnJfAVz97+rtdd+sILFk/fmu84cHR09Qf+dFK2WzLwt7w8drC5ue2GHV/k9pO/94tnbT+tfTQ6730IwXu/vr5ujEHEeIwns77OTO/9VOkBAH7rvvgXj8TjZf5Y7v3Gd/buvzeY+fBDJ5D582f13T9/ztZ5AU6g9F3yc13X1ton+8GmTHl6WVtbc86dqsx/X9P5q/HJ7VQmAHxaZP77lnFLXz7gfv+W6taDrg5RkpNtKX2TWHXpnPhnP7HnwrOKzD71rKAn5MDy6Df/9X/5/C3f3NigFgj50U1sN152St/F5o9J7ytfsvd9P/t3T1PmAeCv/uqv7rvvvu5GuvXck1MUxZvf/OaFhYWtJ57RTJX+u84JlL5bKzRNI4To9/snnwg9Zcqp4pwbDoeImCTJ1nNTpkx5RvPkC+Ep3xMQMU1TADh06NDy8rJzp7XB1JQpj6dt2+Xl5cOHDwshpjI/ZcoZyNSm/65zYpt+E2YejUbj8birnu/3+535dTL9y6ZMOZ6u1VKMcTKZjMdjZu73+/1+f+t1U6ZMOTM4s5R+MBh8j8OTzDwcDk9G6Tdp23YymVRV1TXJf7K8kilTngwhRPeRK4oiy7JT+vhNmTLlmccZpPTOuaIovscmcoyxLMtpAH7KlGc8X/3qV2+55ZZuT2pjzEte8pLjW0x+b/h++Bm+H5j+HbZwBsXpEbEzlL+XlGW5dWjKlCnPRG677bZOWjq74o47nvpudU+Z74ef4fuB6d9hC2eQ0mutq6paXV393mS9OedWV1ebppka9FOmnAm86EUv2uxvbYy57LLLtl7x3ef74Wf4fmD6d9jCGeS976iqqm3bzeXedw+llLU2y7KtJ6ZMmTJlypTvIWec0k+ZMmXKlClnFGeQ937KlClTpkw5A5kq/ZQpU6ZMmfJM5v8HBEe6Jdd4dFwAAAAASUVORK5CYII=;" vertex="1" parent="1">
          <mxGeometry x="100" y="50" width="509" height="520" as="geometry" />
        </mxCell>
        <mxCell id="tuwM7d_56svocFPWUMzQ-2" value="" style="ellipse;whiteSpace=wrap;html=1;fillColor=none;strokeColor=#FF0000;strokeWidth=3;dashed=1;" vertex="1" parent="1">
          <mxGeometry x="142" y="398" width="150" height="50" as="geometry" />
        </mxCell>
        <mxCell id="tuwM7d_56svocFPWUMzQ-3" style="edgeStyle=orthogonalEdgeStyle;rounded=0;orthogonalLoop=1;jettySize=auto;html=1;" edge="1" parent="1" source="tuwM7d_56svocFPWUMzQ-2" target="tuwM7d_56svocFPWUMzQ-2">
          <mxGeometry relative="1" as="geometry" />
        </mxCell>
      </root>
    </mxGraphModel>
  </diagram>
</mxfile>
